<?xml version="1.0" encoding="utf-8"?>
<!-- Generator: Adobe Illustrator 23.0.3, SVG Export Plug-In . SVG Version: 6.00 Build 0)  -->
<svg version="1.1" id="Layer_1" xmlns="http://www.w3.org/2000/svg" xmlns:xlink="http://www.w3.org/1999/xlink" x="0px" y="0px"
	 viewBox="0 0 63 63" style="enable-background:new 0 0 63 63;" xml:space="preserve">
<style type="text/css">
	.st0{fill:#255DBE;}
</style>
<g>
	<path class="st0" d="M38.7,44.3c-0.3,0.9-0.7,1.8-1,2.6c-0.1,0.2-0.1,0.4-0.2,0.6c-0.3,0.6-0.9,0.7-1.3,0.2
		c-0.3-0.3-0.5-0.6-0.7-0.9c-0.1-0.2-0.3-0.3-0.6-0.2c-0.4,0.1-0.8,0.1-1.1,0.2c-0.7,0.1-1.1-0.4-0.9-1c0.1-0.2,0.2-0.5,0.3-0.8
		c-0.2,0-0.4,0-0.5,0c-4.1,0-8.3,0-12.4,0c-0.9,0-1.7-0.6-1.7-1.7c0-8.8,0-17.6,0-26.5c0-1.1,0.6-1.7,1.7-1.7c7,0,14,0,21,0
		c1.2,0,1.8,0.8,1.8,1.8c0,5.6,0,11.1,0,16.7c0,0.2,0.1,0.5,0.2,0.7c1.3,2,1.2,4.6-0.2,6.4c-0.2,0.2-0.2,0.4-0.1,0.6
		c0.5,1.4,1,2.8,1.6,4.2c0.3,0.8-0.1,1.4-1,1.2c-0.3-0.1-0.6-0.1-0.9-0.2c-0.3-0.1-0.5,0-0.7,0.2c-0.2,0.3-0.4,0.6-0.7,0.9
		c-0.4,0.5-1.1,0.4-1.4-0.2c-0.4-0.9-0.7-1.9-1.1-2.8C38.8,44.6,38.7,44.5,38.7,44.3z M34.2,40.7c-1.3-1.9-1.5-3.9-0.5-5.9
		c1.1-2,2.8-2.9,5.1-3c0-4.2,0-8.4,0-12.6c-5.4,0-10.7,0-16.1,0c0,7.2,0,14.3,0,21.5C26.5,40.7,30.3,40.7,34.2,40.7z M21.5,18.1
		c6.1,0,12.2,0,18.4,0c0,0.2,0,0.3,0,0.5c0,4.2,0,8.3,0,12.5c0,0.9,0,0.8,0.8,1.2c0.4,0.2,0.7,0.4,1.2,0.6c0-0.2,0-0.3,0-0.4
		c0-3.2,0-6.4,0-9.5c0-2.1,0-4.1,0-6.2c0-0.5-0.1-0.6-0.6-0.6c-0.1,0-0.3,0-0.4,0c-6.9,0-13.8,0-20.7,0c-0.5,0-0.6,0.1-0.6,0.6
		c0,8.8,0,17.6,0,26.4c0,0.6,0.1,0.7,0.7,0.7c2,0,3.9,0,5.9,0c2.4,0,4.8,0,7.1,0c0.1,0,0.3,0,0.4-0.1c0.3-0.6,0.5-1.2,0.7-1.9
		c-4.3,0-8.5,0-12.8,0C21.5,33.9,21.5,26,21.5,18.1z M43,37.4c0-2.5-2-4.5-4.4-4.5s-4.4,2-4.4,4.5s2,4.4,4.5,4.4
		C41,41.8,43,39.8,43,37.4z M39.4,43c0.4,1.1,0.9,2.3,1.3,3.5c0.4-0.3,0.7-0.8,1.1-0.9c0.4-0.2,0.9,0,1.4,0
		c-0.5-1.2-0.9-2.4-1.3-3.5C41,42.3,40.2,42.6,39.4,43z M35.4,42.1c-0.4,1.1-0.9,2.3-1.3,3.4c0.5,0,1-0.1,1.5,0
		c0.4,0.2,0.7,0.6,1.1,0.9c0.4-1.2,0.9-2.3,1.3-3.4C37.1,42.7,36.3,42.4,35.4,42.1z"/>
	<path class="st0" d="M27.6,31.6c0.3-0.5,0.6-1,1.1-0.9c0.6,0.1,0.7,0.6,0.8,1.1c0.6-0.4,1.1-0.5,1.7-0.1c0.1,0,0.2,0,0.3-0.1
		c0.6-0.4,1.2-0.4,1.8,0.1c0.2,0.2,0.3,0.4,0.2,0.7s-0.4,0.4-0.7,0.2s-0.5-0.1-0.8,0.1c-0.4,0.3-0.8,0.2-1.3,0
		c-0.1-0.1-0.3-0.1-0.4,0c-0.9,0.7-1.2,0.7-1.8-0.3c-0.2,0.3-0.3,0.5-0.5,0.7c-0.2,0.3-0.5,0.6-0.9,0.5c-0.3-0.1-0.5-0.4-0.6-0.9
		c0-0.3,0-0.5-0.1-0.8c0,0,0,0,0-0.1c-0.1,0-0.2,0-0.2,0.1c-0.4,0.1-0.8-0.3-0.6-0.7c0.2-0.5,0.4-1.1,0.6-1.6
		c0.1-0.3,0.4-0.6,0.7-0.5c0.4,0.1,0.5,0.3,0.5,0.7C27.5,30.3,27.6,30.9,27.6,31.6z"/>
	<path class="st0" d="M31.1,25.6c1.7,0,3.5,0,5.2,0c0.5,0,0.8,0.3,0.6,0.7c-0.1,0.3-0.4,0.4-0.7,0.4c-1.2,0-2.5,0-3.7,0
		c-2.2,0-4.4,0-6.6,0c-0.1,0-0.2,0-0.3,0c-0.3-0.1-0.5-0.2-0.5-0.6c0-0.3,0.2-0.5,0.6-0.5c0.6,0,1.2,0,1.9,0
		C28.8,25.6,29.9,25.6,31.1,25.6L31.1,25.6z"/>
	<path class="st0" d="M31.1,22.1c1,0,2,0,3,0c0.4,0,0.7,0.2,0.7,0.5s-0.3,0.6-0.7,0.6c-1.9,0-3.9,0-5.8,0c-0.3,0-0.6-0.1-0.7-0.4
		c-0.1-0.4,0.2-0.7,0.6-0.7C29.1,22.1,30.1,22.1,31.1,22.1z"/>
	<path class="st0" d="M38.6,39.8c-1.4,0-2.5-1.1-2.4-2.5c0-1.4,1.1-2.4,2.5-2.4s2.4,1.1,2.4,2.5C41,38.8,39.9,39.8,38.6,39.8z
		 M38.6,38.7c0.8,0,1.4-0.6,1.3-1.4c0-0.8-0.6-1.4-1.3-1.4c-0.8,0-1.4,0.6-1.4,1.4C37.2,38.1,37.8,38.7,38.6,38.7z"/>
</g>
</svg>
