<?xml version="1.0" encoding="utf-8"?>
<!-- Generator: Adobe Illustrator 23.0.3, SVG Export Plug-In . SVG Version: 6.00 Build 0)  -->
<svg version="1.1" id="Layer_1" xmlns="http://www.w3.org/2000/svg" xmlns:xlink="http://www.w3.org/1999/xlink" x="0px" y="0px"
	 viewBox="0 0 63 63" style="enable-background:new 0 0 63 63;" xml:space="preserve">
<style type="text/css">
	.st0{fill:#255DBE;}
</style>
<g>
	<path class="st0" d="M15.9,38.4c0-0.3,0-0.5,0-0.8c0-1.5,0-3,0-4.4c0-0.5,0.2-0.6,0.6-0.6c1,0,1.9,0,3,0c0-0.2,0-0.3,0-0.4
		c0-3.9,0-7.8,0-11.7c0-0.6,0.1-0.7,0.7-0.7c4.1,0,8.2,0,12.4,0c0.6,0,0.7,0.1,0.7,0.7c0,3.9,0,7.8,0,11.7c0,0.1,0,0.3,0,0.5
		c0.9,0,1.8,0,2.7,0c0-0.1,0-0.3,0-0.4c0-1.9,0-3.9,0-5.8c0-0.6,0.1-0.7,0.7-0.7c1.3,0,2.6,0,3.8,0.1c3.3,0.4,6.2,3.4,6.6,6.7
		c0.1,1,0.1,1.9,0.1,2.9s0,2,0,3c0.1,0,0.2,0.1,0.4,0.1c0.6,0.2,1.1,0.8,1,1.4c-0.1,0.7-0.6,1.2-1.3,1.3c-0.7,0-1.4,0-2.1,0
		c-0.2,0-0.3,0.1-0.4,0.2c-0.7,1.3-1.7,2-3.2,2s-2.5-0.7-3.2-2c-0.1-0.1-0.2-0.2-0.3-0.2c-3.8,0-7.6,0-11.5,0
		c-0.1,0-0.3,0.1-0.3,0.2c-0.7,1.3-1.8,2-3.2,2c-1.5,0-2.5-0.7-3.2-2c-0.1-0.2-0.2-0.2-0.4-0.2c-1.2,0-2.3,0-3.5,0
		c-0.7,0-1.2-0.6-1.3-1.3s0.4-1.3,1.1-1.4C15.7,38.4,15.8,38.4,15.9,38.4z M20.4,32.5c4,0,7.9,0,11.9,0c0-4,0-7.9,0-11.9
		c-1.3,0-2.6,0-3.9,0c0,0.1,0,0.3,0,0.4c0,0.9,0,1.7,0,2.6c0,0.5-0.2,0.6-0.6,0.6c-0.9,0-1.9,0-2.8,0c-0.4,0-0.6-0.2-0.6-0.6
		c0-0.9,0-1.8,0-2.7c0-0.1,0-0.2,0-0.4c-1.3,0-2.6,0-4,0C20.4,24.6,20.4,28.5,20.4,32.5z M35.9,33.5c-6.4,0-12.7,0-19.1,0
		c0,1.6,0,3.3,0,4.9c0.9,0,1.7,0,2.6,0c0.1,0,0.2-0.1,0.3-0.2c0.7-1.3,1.8-1.9,3.2-1.9c1.4,0,2.5,0.7,3.2,1.9
		c0.1,0.2,0.2,0.3,0.4,0.3c3,0,6,0,9,0c0.1,0,0.2,0,0.3,0C35.9,36.7,35.9,35.1,35.9,33.5z M46.2,38.4c0-1.8,0.1-3.5,0-5.3
		c-0.1-2-1-3.7-2.6-5c-2-1.6-4.3-1.7-6.7-1.5c0,3.9,0,7.9,0,11.8c0.4,0,0.8,0,1.2,0c0.1,0,0.2-0.1,0.2-0.2c0.7-1.3,1.8-2,3.2-2
		c1.5,0,2.5,0.7,3.2,2c0,0.1,0.1,0.2,0.2,0.2C45.4,38.4,45.8,38.4,46.2,38.4z M22.9,42.4c1.5,0,2.7-1.1,2.7-2.6s-1.2-2.7-2.6-2.7
		s-2.6,1.2-2.7,2.6C20.2,41.2,21.4,42.4,22.9,42.4z M41.5,42.4c1.5,0,2.7-1.2,2.7-2.6c0-1.5-1.2-2.7-2.7-2.7s-2.6,1.2-2.7,2.7
		C38.9,41.2,40,42.4,41.5,42.4z M37.9,39.3c-3.8,0-7.6,0-11.4,0c0,0.3,0,0.6,0,0.8c3.8,0,7.6,0,11.4,0
		C37.9,39.9,37.9,39.6,37.9,39.3z M25.3,20.6c0,0.9,0,1.8,0,2.7c0.7,0,1.4,0,2.1,0c0-0.9,0-1.8,0-2.7C26.7,20.6,26,20.6,25.3,20.6z
		 M19.3,40.2c0-0.3,0-0.6,0-0.9c-0.1,0-0.1,0-0.2,0c-1.1,0-2.1,0-3.2,0c-0.3,0-0.6,0.2-0.5,0.5c0,0.3,0.2,0.4,0.5,0.4
		c0.6,0,1.1,0,1.7,0C18.2,40.2,18.7,40.2,19.3,40.2z M45.1,40.2c0.7,0,1.4,0,2,0c0.3,0,0.4-0.2,0.4-0.4s-0.1-0.4-0.4-0.4
		c-0.7,0-1.4,0-2.1,0C45.1,39.6,45.1,39.9,45.1,40.2z"/>
	<path class="st0" d="M41.5,34.1c-1,0-1.9,0-2.9,0c-0.5,0-0.7-0.1-0.7-0.7c0-1.7,0-3.4,0-5.1c0-0.5,0.2-0.7,0.7-0.7
		c1.5-0.1,2.9,0.3,4.2,1.2c1.5,1.2,2.3,2.7,2.4,4.6c0,0.4-0.2,0.6-0.6,0.6C43.5,34.1,42.5,34.1,41.5,34.1L41.5,34.1z M38.9,28.6
		c0,1.5,0,3.1,0,4.6c1.8,0,3.5,0,5.3,0C44.1,30.9,41.9,28.4,38.9,28.6z"/>
	<path class="st0" d="M24.4,39.8c0,0.8-0.7,1.5-1.5,1.5s-1.5-0.7-1.5-1.5s0.7-1.5,1.5-1.5C23.7,38.3,24.4,38.9,24.4,39.8z
		 M22.9,39.2c-0.3,0-0.6,0.2-0.6,0.6c0,0.3,0.3,0.5,0.6,0.5c0.3,0,0.6-0.3,0.5-0.6C23.5,39.5,23.2,39.2,22.9,39.2z"/>
	<path class="st0" d="M43,39.8c0,0.8-0.7,1.5-1.5,1.5S40,40.6,40,39.8s0.7-1.5,1.5-1.5S43,38.9,43,39.8z M42.1,39.8
		c0-0.3-0.2-0.5-0.5-0.5s-0.5,0.2-0.5,0.6c0,0.3,0.2,0.6,0.5,0.5C41.8,40.3,42.1,40.1,42.1,39.8z"/>
</g>
</svg>
