<?xml version="1.0" encoding="utf-8"?>
<!-- Generator: Adobe Illustrator 23.0.3, SVG Export Plug-In . SVG Version: 6.00 Build 0)  -->
<svg version="1.1" id="Layer_1" xmlns="http://www.w3.org/2000/svg" xmlns:xlink="http://www.w3.org/1999/xlink" x="0px" y="0px"
	 viewBox="0 0 63 63" style="enable-background:new 0 0 63 63;" xml:space="preserve">
<style type="text/css">
	.st0{fill:#255DBE;}
</style>
<g>
	<path class="st0" d="M29.9,43.8c-0.7,0-1.3,0-2,0c-0.4,0-0.5-0.1-0.6-0.5c-0.1-0.7-0.3-1.3-0.4-2c0-0.2-0.1-0.2-0.3-0.3
		c-0.8-0.3-1.6-0.6-2.3-1c-0.2-0.1-0.2-0.1-0.4,0c-0.6,0.4-1.1,0.8-1.7,1.2c-0.3,0.2-0.5,0.2-0.8-0.1c-0.9-0.9-1.8-1.8-2.8-2.8
		c-0.3-0.3-0.3-0.5-0.1-0.8c0.4-0.6,0.8-1.1,1.2-1.7c0.1-0.1,0.1-0.3,0-0.4c-0.3-0.8-0.7-1.5-1-2.3c-0.1-0.2-0.1-0.2-0.3-0.3
		c-0.7-0.1-1.3-0.2-2-0.4c-0.4-0.1-0.5-0.2-0.5-0.6c0-1.3,0-2.6,0-3.9c0-0.5,0.1-0.6,0.6-0.7c0.7-0.1,1.3-0.2,2-0.4
		c0.1,0,0.2-0.1,0.2-0.2c0.3-0.8,0.7-1.6,1-2.4c0.1-0.2,0.1-0.3,0-0.4c-0.4-0.6-0.8-1.1-1.2-1.7c-0.2-0.3-0.2-0.5,0.1-0.8
		c0.9-0.9,1.9-1.9,2.8-2.8c0.3-0.3,0.5-0.3,0.8-0.1c0.6,0.4,1.1,0.8,1.7,1.2c0.2,0.1,0.3,0.1,0.4,0c0.7-0.3,1.4-0.6,2.2-0.9
		c0.2-0.1,0.3-0.2,0.4-0.4c0.1-0.7,0.2-1.3,0.4-2c0.1-0.4,0.2-0.5,0.6-0.5c1.3,0,2.7,0,4,0c0.4,0,0.5,0.1,0.6,0.5
		c0.1,0.7,0.2,1.3,0.4,2c0,0.1,0.1,0.2,0.2,0.3c0.8,0.3,1.6,0.7,2.4,1c0.1,0,0.3,0,0.4,0c0.6-0.4,1.1-0.8,1.7-1.2
		c0.3-0.2,0.5-0.2,0.8,0.1c0.9,0.9,1.8,1.8,2.8,2.8c0.3,0.3,0.3,0.5,0.1,0.9c-0.4,0.6-0.8,1.1-1.2,1.7c-0.1,0.1-0.1,0.2,0,0.4
		c0.3,0.8,0.7,1.6,1,2.3c0.1,0.2,0.1,0.2,0.3,0.3c0.6,0.1,1.3,0.2,1.9,0.3c0.5,0.1,0.6,0.2,0.6,0.7c0,1.3,0,2.6,0,3.9
		c0,0.4-0.1,0.6-0.5,0.6c-0.6,0.1-1.3,0.2-1.9,0.3c-0.2,0-0.3,0.1-0.4,0.4c-0.1,0.4-0.2,0.7-0.4,1c-0.2,0.4-0.5,0.5-0.8,0.2
		c-0.7-0.7-1.5-1.4-2.2-2.2c-0.1-0.1-0.1-0.4-0.1-0.5c0.4-1.9,0.2-3.8-0.8-5.5c-1.5-2.7-4.5-4.3-7.6-4c-4,0.4-7,3.6-7.1,7.7
		c-0.1,4.2,3.2,7.7,7.4,7.9c0.7,0,1.5-0.1,2.2-0.2c0.3,0,0.5,0,0.7,0.2c0.6,0.7,1.3,1.3,2,2c0.3,0.3,0.2,0.7-0.2,0.8
		c-0.3,0.1-0.7,0.2-1,0.3c-0.1,0-0.2,0.2-0.2,0.3c-0.1,0.6-0.2,1.3-0.4,1.9c-0.1,0.5-0.2,0.6-0.7,0.6C31.1,43.8,30.5,43.8,29.9,43.8
		z M19.6,37.9c0.8,0.8,1.6,1.6,2.4,2.4c0.6-0.4,1.2-0.8,1.8-1.2c0.3-0.2,0.5-0.2,0.8,0c0.8,0.5,1.7,0.9,2.7,1.1
		c0.4,0.1,0.6,0.3,0.7,0.8c0.1,0.7,0.2,1.3,0.4,2c1.1,0,2.2,0,3.4,0c0-0.1,0.1-0.2,0.1-0.2c0.1-0.7,0.2-1.3,0.3-2
		c0-0.3,0.2-0.4,0.4-0.5c0.2,0,0.4-0.1,0.7-0.2c-0.5-0.5-0.9-0.9-1.4-1.3c-0.1-0.1-0.2-0.1-0.3,0c-1,0.2-2,0.2-3,0.1
		c-4.8-0.7-8.2-5.3-7.4-10.1c0.8-4.7,5-7.9,9.6-7.3c3.4,0.4,5.8,2.3,7.1,5.4c0.7,1.6,0.8,3.2,0.5,4.9c0,0.1,0,0.3,0,0.4
		c0.4,0.5,0.9,0.9,1.3,1.4c0.1-0.3,0.2-0.5,0.2-0.7c0.1-0.4,0.3-0.6,0.7-0.6c0.7-0.1,1.4-0.2,2.1-0.4c0-1.1,0-2.2,0-3.2
		c0-0.1-0.1-0.2-0.2-0.2c-0.6-0.1-1.3-0.3-1.9-0.4c-0.3,0-0.5-0.2-0.5-0.5c-0.3-1-0.6-1.9-1.2-2.8c-0.2-0.3-0.2-0.6,0-0.9
		c0.4-0.6,0.8-1.1,1.1-1.6c-0.8-0.8-1.6-1.6-2.4-2.4c-0.5,0.4-1.1,0.8-1.6,1.2c-0.3,0.2-0.6,0.2-0.9,0c-0.9-0.5-1.8-0.9-2.7-1.1
		c-0.4-0.1-0.5-0.3-0.6-0.6c-0.1-0.7-0.3-1.4-0.4-2.1c-1.1,0-2.1,0-3.2,0c-0.1,0-0.2,0.1-0.2,0.2c-0.1,0.6-0.2,1.3-0.3,1.9
		c0,0.3-0.2,0.5-0.5,0.6c-1,0.3-1.9,0.6-2.7,1.1c-0.3,0.2-0.6,0.2-0.8,0c-0.6-0.4-1.2-0.8-1.7-1.2c-0.8,0.8-1.6,1.6-2.4,2.4
		c0.4,0.5,0.8,1.1,1.2,1.7c0.2,0.3,0.2,0.6,0,0.9c-0.5,0.8-0.9,1.7-1.1,2.7c-0.1,0.4-0.3,0.6-0.7,0.6c-0.7,0.1-1.4,0.3-2,0.4
		c0,1.1,0,2.1,0,3.2c0,0.1,0.1,0.2,0.2,0.2c0.6,0.1,1.3,0.2,1.9,0.3c0.4,0,0.5,0.2,0.6,0.6c0.3,1,0.6,1.9,1.2,2.8
		c0.2,0.3,0.1,0.5,0,0.8C20.4,36.7,20,37.3,19.6,37.9z"/>
	<path class="st0" d="M24.3,29.8c0.1-0.4,0.2-1,0.3-1.6c0.1-0.5,0.5-0.6,0.9-0.2c0.9,0.9,1.8,1.8,2.6,2.6c0.5,0.5,0.7,0.5,1.2,0
		c0.4-0.4,0.9-0.9,1.3-1.3c0.3-0.3,0.3-0.6,0-1c-0.9-0.9-1.9-1.9-2.8-2.8c-0.3-0.3-0.3-0.7,0.2-0.8c3.3-1.2,7,1.2,7.3,4.7
		c0,0.5,0,1,0,1.5s0.3,1,0.7,1.4c2.5,2.5,5,5,7.5,7.5c0.1,0.1,0.2,0.1,0.3,0.1c1.8,0.3,3,1.8,3.1,3.5c0,1.7-1.2,3.2-3,3.5
		C42,47.3,40.1,46,39.8,44c0-0.1-0.1-0.3-0.2-0.4c-2.4-2.4-4.8-4.8-7.2-7.3c-0.6-0.6-1.4-1-2.3-0.9c-2.7,0.2-5.2-1.9-5.7-4.6
		C24.4,30.6,24.3,30.3,24.3,29.8z M39.8,42.5c0.5-1.4,1.3-2.2,2.7-2.7c-0.1-0.1-0.1-0.2-0.2-0.2c-2.2-2.2-4.4-4.4-6.6-6.6
		c-0.8-0.8-1.2-1.8-1.2-2.9c0.1-1.8-0.7-3.2-2.3-4.2c-1-0.6-2-0.8-3.2-0.6c0.1,0.1,0.2,0.2,0.2,0.2c0.7,0.7,1.4,1.4,2,2
		c0.6,0.7,0.6,1.6,0,2.3c-0.5,0.5-1,1-1.5,1.5c-0.7,0.6-1.6,0.7-2.3,0c-0.7-0.7-1.4-1.4-2-2c-0.1-0.1-0.1-0.1-0.2-0.2v0.1
		c-0.4,2.9,1.9,5.4,4.8,5.3c1.2,0,2.2,0.4,3,1.2c1.8,1.8,3.7,3.7,5.5,5.5C39,41.7,39.4,42.1,39.8,42.5z M40.8,43.4
		c0,1.5,1.2,2.6,2.6,2.7c1.4,0,2.7-1.2,2.7-2.6c0-1.5-1.2-2.7-2.7-2.7C41.9,40.8,40.7,42,40.8,43.4z"/>
	<path class="st0" d="M43.4,41.7c1,0,1.9,0.8,1.8,1.8c0,1-0.8,1.8-1.8,1.8s-1.8-0.8-1.8-1.8C41.6,42.5,42.4,41.7,43.4,41.7z
		 M43.4,42.6c-0.5,0-0.8,0.4-0.8,0.8c0,0.5,0.4,0.8,0.8,0.8c0.5,0,0.8-0.4,0.8-0.8S43.8,42.6,43.4,42.6z"/>
</g>
</svg>
