<?xml version="1.0" encoding="utf-8"?>
<!-- Generator: Adobe Illustrator 23.0.3, SVG Export Plug-In . SVG Version: 6.00 Build 0)  -->
<svg version="1.1" id="Layer_1" xmlns="http://www.w3.org/2000/svg" xmlns:xlink="http://www.w3.org/1999/xlink" x="0px" y="0px"
	 viewBox="0 0 49 52" style="enable-background:new 0 0 49 52;" xml:space="preserve">
<style type="text/css">
	.st0{fill:#255DBE;}
</style>
<g>
	<path class="st0" d="M36.8,32.1c-2,0-3.9,0-5.9,0c2.1,6.1,4.2,12.1,6.3,18.2c0.4,0,0.7,0.1,1.1,0.1c1.8,0,3.6,0,5.4,0
		c0.3,0,0.6-0.1,0.9,0.1c0.3,0.2,0.6,0.5,0.6,0.8c0,0.3-0.4,0.6-0.6,0.8c-0.2,0.1-0.5,0-0.8,0C31,52,18.1,52,5.3,52
		c-0.2,0-0.4,0-0.7,0c-0.5,0-0.8-0.3-0.8-0.8c0-0.5,0.4-0.8,0.8-0.9c0.3,0,0.6,0,0.9,0c2.1,0,4.1,0,6.3,0c2.1-6.1,4.2-12.1,6.3-18.2
		c-2,0-3.8,0-5.9,0c0,0.5,0,1,0,1.5c0,0.5-0.2,0.9-0.8,0.9c-0.6,0-0.8-0.3-0.8-0.9c0-0.8,0-1.6,0-2.3c0-0.6,0.4-0.9,0.9-1.2
		c2-1.3,4-2.7,6-4c0.7-0.4,1-0.9,1-1.8c-0.1-0.9,0-1.8,0-2.7c-2.1,0-4.1,0-6.3,0c0,0.5,0,1,0,1.5c0,0.7-0.3,1-0.8,1
		c-0.6,0-0.7-0.4-0.8-0.9c0-0.1,0-0.1,0-0.2c-0.1-2.6-0.1-2.6,2.1-4.1c1.7-1.1,3.3-2.2,5-3.3c0.5-0.3,0.8-0.7,0.7-1.3c0-1,0-2,0-3
		c-2.1,0-4.1,0-6.2,0c0,0.5,0,1,0,1.5c0,0.7-0.3,1-0.8,0.9c-0.6,0-0.7-0.4-0.7-0.9c0-0.1,0-0.1,0-0.2c-0.1-2.6-0.1-2.6,2-4
		c1.8-1.2,3.7-2.5,5.6-3.8c-0.2-1-0.4-2-0.6-3c0-0.1-0.1-0.3-0.1-0.4c-0.1-0.4-0.2-0.9,0.3-1.2c0.5-0.3,0.8,0,1.2,0.2
		c1.5,1.1,3.1,2.2,4.6,3.3c0.2,0.1,0.4,0.3,0.7,0.5c0.7-0.5,1.3-0.9,2-1.4c1.1-0.8,2.3-1.6,3.4-2.4c0.3-0.2,0.6-0.4,1-0.2
		c0.4,0.3,0.4,0.7,0.4,1.1c-0.2,1.2-0.5,2.3-0.7,3.5c0.3,0.3,0.7,0.5,1,0.7c1.9,1.3,3.9,2.6,5.8,3.9c0.6,0.4,0.9,0.9,0.9,1.6
		c-0.1,0.7,0,1.3,0,2c0,0.5-0.3,0.8-0.8,0.8c-0.5,0-0.8-0.3-0.8-0.8c0-0.5,0-1,0-1.5c-0.8-0.3-4.6-0.3-6.2-0.1
		c-0.1,1.2-0.1,2.4,0,3.6c0,0.3,0.4,0.6,0.7,0.8c2,1.3,4,2.7,6,4c0.8,0.5,1.1,1.1,1,2c0,0.4,0,0.9,0,1.3c0,0.9-0.2,1.2-0.8,1.2
		c-0.5,0-0.7-0.3-0.7-1.1c0-0.4,0-0.7,0-1.1c0,0,0-0.1-0.1-0.3c-1.9,0-3.9,0-6.1,0c0,1.3,0,2.4,0,3.6c0,0.3,0.4,0.6,0.7,0.8
		c2,1.4,4,2.7,6.1,4.1c0.7,0.5,1.1,1,1,1.9c-0.1,0.6,0,1.2,0,1.8c0,0.5-0.2,0.8-0.7,0.8c-0.5,0-0.8-0.3-0.8-0.8
		C36.8,33.2,36.8,32.7,36.8,32.1z M14.6,50.3c6.7,0,13.1,0,19.7,0c-3.4-2.9-6.6-5.7-9.9-8.5C21.2,44.6,18,47.3,14.6,50.3z
		 M20.7,32.1c1.3,2.4,2.4,4.6,3.9,6.9c1.3-2.4,2.6-4.6,3.7-6.9C25.7,32.1,23.3,32.1,20.7,32.1z M23.1,39.9c-1.2-2.3-2.4-4.4-3.7-6.7
		c-0.8,2.4-1.6,4.5-2.3,6.7C19.2,39.9,21,39.9,23.1,39.9z M31.9,39.9c-0.8-2.2-1.5-4.3-2.3-6.7c-1.3,2.3-2.4,4.5-3.6,6.7
		C28,39.9,29.8,39.9,31.9,39.9z M22,41.8c0-0.1-0.1-0.1-0.1-0.2c-1.8,0-3.6,0-5.4,0c-0.7,2.2-1.6,4.3-2.2,6.5c0.1,0,0.1,0.1,0.2,0.1
		C17,46.1,19.5,44,22,41.8z M32.5,41.6c-1.9,0-3.7,0-5.7,0c2.7,2.3,5.2,4.5,7.8,6.6c0.1-0.1,0.1-0.1,0.2-0.2
		C34,46,33.3,43.8,32.5,41.6z M24.6,9c0.7-0.9,1.5-1.8,2.5-3c-2,0-3.8,0-5.5,0C22.6,7,23.6,7.9,24.6,9z M21.7,16.4
		c0.9,0.9,1.9,1.9,2.9,2.9c0.9-0.8,2-2.2,2.2-2.9C25.1,16.4,23.3,16.4,21.7,16.4z M24.5,29.8c1.1-1,2.1-2.3,2.2-2.9
		c-1.7,0-3.5,0-5.1,0C22.6,27.8,23.5,28.7,24.5,29.8z M24.6,14.2c0.7-0.9,1.5-1.9,2.5-3c-2,0-3.7,0-5.6,0
		C22.5,12.3,23.5,13.2,24.6,14.2z M21.6,21.7c1,1,2,1.9,3.1,2.9c0.7-0.9,1.6-1.8,2.3-2.9C25.1,21.7,23.3,21.7,21.6,21.7z M18.5,6.8
		c-1.3,0.6-3.4,2-3.9,2.7c1.3,0,2.6,0.1,3.9,0C18.5,8.5,18.5,7.7,18.5,6.8z M30.5,6.6c0.1,1.1-0.2,2,0.1,2.8c1.3,0,2.5,0,3.7,0
		c0-0.1,0.1-0.1,0.1-0.2C33.2,8.4,32,7.6,30.5,6.6z M18.5,19.9c0-0.9,0-1.7,0-2.8c-1.4,0.9-2.6,1.8-3.9,2.6c0,0.1,0.1,0.1,0.1,0.2
		C15.9,19.9,17.1,19.9,18.5,19.9z M30.6,17.1c0,1.1,0,1.9,0,2.8c1.3-0.1,2.6,0.1,4.1-0.1C33.2,18.8,32,18,30.6,17.1z M18.5,27.6
		c-1.5,0.7-3.4,2.1-3.8,2.6c1.2,0,2.5,0,3.8,0C18.5,29.4,18.5,28.6,18.5,27.6z M30.6,27.5c0,1.1,0,1.9,0,2.8c1.3,0.1,2.6,0.1,3.8,0
		c0-0.1,0-0.2,0.1-0.2C33.2,29.3,32,28.5,30.6,27.5z M26.3,14.7c1,0.2,1.8,0.2,2.6,0c0-0.9,0-1.8,0-2.7c-0.1,0-0.1-0.1-0.2-0.1
		C27.9,12.7,27.2,13.6,26.3,14.7z M26.3,25.1c1,0,1.8,0,2.6,0c0-1,0-1.9,0-3.1C27.9,23.1,27.2,24,26.3,25.1z M28.9,6.7
		c-0.1,0-0.2-0.1-0.2-0.1c-0.7,0.9-1.5,1.8-2.4,2.8c1,0,1.8,0,2.6,0C28.9,8.5,28.9,7.6,28.9,6.7z M26.3,19.8c1,0,1.8,0,2.6,0
		c0-1,0.1-1.9,0-2.7c-0.1,0-0.2,0-0.2-0.1C27.9,17.9,27.2,18.8,26.3,19.8z M26.3,30.3c1,0,1.8,0,2.5,0c0-1,0-1.8,0-2.7
		c-0.1,0-0.1-0.1-0.2-0.1C27.9,28.3,27.2,29.2,26.3,30.3z M20.1,14.6c0.7,0.3,1.4,0.2,2.3,0.1c-0.8-0.8-1.4-1.6-2.3-2.2
		C20.1,13.3,20.1,13.9,20.1,14.6z M22.5,25.2c-0.8-0.9-1.4-1.6-2.3-2.2c0,0.8,0,1.5,0,2.2C20.9,25.2,21.6,25.2,22.5,25.2z M22.4,9.5
		c-0.7-0.9-1.4-1.5-2.2-2.2c0,0.9,0,1.5,0,2.2C20.9,9.5,21.5,9.5,22.4,9.5z M20.2,17.7c0,0.8,0,1.5,0,2.2c0.7,0,1.4,0,2,0
		C21.6,19.2,20.9,18.5,20.2,17.7z M20.2,28c0,0.9,0,1.6,0,2.2c0.7,0,1.4,0,2,0C21.5,29.6,20.9,28.9,20.2,28z M21.5,4.3
		c0-0.1,0.1-0.2,0.1-0.3c-0.6-0.4-1.2-0.8-1.7-1.2C19.8,2.9,19.8,3,19.7,3c0.1,0.4,0.2,0.9,0.3,1.3C20.6,4.3,21.1,4.3,21.5,4.3z
		 M29.1,4.3c0.1-0.5,0.2-1,0.3-1.6c-0.8,0.6-1.5,0.9-2,1.6C28,4.3,28.5,4.3,29.1,4.3z"/>
</g>
</svg>
