<?xml version="1.0" encoding="utf-8"?>
<!-- Generator: Adobe Illustrator 23.0.3, SVG Export Plug-In . SVG Version: 6.00 Build 0)  -->
<svg version="1.1" id="Layer_1" xmlns="http://www.w3.org/2000/svg" xmlns:xlink="http://www.w3.org/1999/xlink" x="0px" y="0px"
	 viewBox="0 0 49 52" style="enable-background:new 0 0 49 52;" xml:space="preserve">
<style type="text/css">
	.st0{fill:#255DBE;}
</style>
<g>
	<path class="st0" d="M35.4,1.5c0.4,0.3,0.5,0.7,0.5,1.1c0,13.9,0,27.7,0,41.6c0,0.2,0,0.4,0,0.7c0,0.4-0.4,0.7-0.8,0.7
		c-0.4,0-0.7-0.3-0.8-0.7c0-0.2,0-0.4,0-0.6c0-13.6,0-27.1,0-40.7c0-0.2,0-0.3,0-0.5c-6.5,0-13,0-19.6,0c0,0.1,0,0.3,0,0.4
		c0,13.4,0,26.9,0,40.3c0,0.3,0,0.5,0,0.8c0,0.6-0.4,0.9-0.9,0.9c-0.5,0-0.8-0.4-0.8-0.9c0-2.1,0-4.3,0-6.4c0-11.9,0-23.7,0-35.6
		c0-0.5,0.1-0.9,0.5-1.2C20.9,1.5,28.1,1.5,35.4,1.5z"/>
	<path class="st0" d="M39.5,50.5c-0.1-0.1-0.3-0.1-0.4-0.2c-1.1-0.4-1.7-1.6-1.5-2.8c0.2-1.1,1.2-2,2.4-1.9c0.3,0,0.5-0.1,0.7-0.3
		c1.3-1.7,3.8-1.8,5.1-0.1c0.3,0.3,0.5,0.5,0.9,0.5c0.2,0,0.4,0,0.6,0.1c0-10.9,0-21.8,0-32.8c-0.2,0-0.4,0-0.6,0
		c-2.7,0-5.4,0-8.1,0c-0.2,0-0.6,0-0.7-0.2c-0.2-0.2-0.3-0.5-0.3-0.8c0-0.2,0.3-0.4,0.5-0.6c0.1-0.1,0.3-0.1,0.5-0.1
		c3.1,0,6.2,0,9.2,0c0.5,0,0.9,0.1,1.1,0.6c0,12.2,0,24.4,0,36.7c-0.3,1-1,1.7-2,2C44.5,50.5,42,50.5,39.5,50.5z M43.3,48.9
		C43.3,48.9,43.3,48.9,43.3,48.9c1,0,2.1,0,3.1,0c0.4,0,0.7-0.1,0.9-0.5c0.1-0.3,0.1-0.6-0.2-0.9c-0.3-0.3-0.6-0.3-1-0.1
		c-0.6,0.3-1,0.1-1.2-0.5c-0.3-0.8-0.8-1.2-1.6-1.2c-0.8,0-1.3,0.4-1.6,1.2c-0.2,0.6-0.6,0.8-1.2,0.5c-0.4-0.2-0.8-0.2-1,0.1
		c-0.2,0.2-0.2,0.6-0.2,0.9c0.1,0.4,0.5,0.5,0.9,0.5C41.2,48.9,42.2,48.9,43.3,48.9z"/>
	<path class="st0" d="M0,40.2c0.1-0.8,0.2-1.7,0.3-2.5c0.2-1.5,0.5-3.1,1.1-4.5c0.2-0.5,0.6-1,0.9-1.5c1-1.1,2.4-1.1,3.4,0
		c0.8,0.8,1.2,1.8,1.4,2.9c0.6,2.3,0.9,4.7,0.9,7c0,1.7-1.1,3.2-2.8,3.8c-0.1,0.1-0.3,0.1-0.5,0.2c0,0.9,0,1.9,0,2.8
		c0,0.3,0,0.6,0,1c0.1,0.5-0.1,0.9-0.5,1.2c-0.2,0-0.4,0-0.6,0c-0.4-0.2-0.6-0.6-0.6-1.1c0-1.2,0-2.3,0-3.5c0-0.3-0.1-0.4-0.4-0.5
		c-1.1-0.3-1.9-1-2.5-2.1C0.3,43,0.1,42.6,0,42.2C0,41.5,0,40.8,0,40.2z M6.5,40.8c0,0,0.1,0,0.1,0c-0.3-1.8-0.5-3.5-0.9-5.3
		c-0.2-0.9-0.6-1.7-1-2.5c-0.4-0.7-1-0.7-1.4,0c-0.2,0.3-0.4,0.7-0.6,1.1c-0.9,2.4-1.1,4.9-1.1,7.5c0,1.3,1.1,2.3,2.4,2.3
		c1.3,0,2.4-1.1,2.4-2.4C6.5,41.3,6.5,41.1,6.5,40.8z"/>
	<path class="st0" d="M0,11.8c0.3-0.4,0.6-0.6,1.1-0.6c3.1,0,6.1,0,9.2,0c0.2,0,0.4,0,0.6,0.1c0.4,0.1,0.6,0.4,0.5,0.8
		c0,0.4-0.2,0.7-0.6,0.7c-0.2,0-0.3,0-0.5,0c-2.7,0-5.4,0-8,0c-0.2,0-0.3,0-0.6,0c0,0.3,0,0.5,0,0.8c0,4.8,0,9.7,0,14.5
		c0,0.7-0.5,1.2-1,1c-0.2-0.1-0.4-0.4-0.6-0.5C0,23.1,0,17.5,0,11.8z"/>
	<path class="st0" d="M12,50.5c-0.4-0.3-0.6-0.6-0.5-1.1c0-0.4,0-0.7,0-1.1c0-0.8,0.3-1,1-1c5.6,0,11.2,0,16.7,0c1.9,0,3.9,0,5.8,0
		c0.7,0,1,0.4,0.9,1c-0.1,0.4-0.4,0.6-1,0.6c-2,0-4,0-6,0c-5.1,0-10.3,0-15.4,0c-0.1,0-0.3,0-0.4,0c0,0.6,0.1,1.3-0.6,1.6
		C12.3,50.5,12.2,50.5,12,50.5z"/>
	<path class="st0" d="M29.4,37.4c0,1.4,0,2.7,0,4c0,1.1,0,2.1,0,3.2c0,0.6-0.3,1-0.8,1c-0.5,0-0.8-0.4-0.8-1c0-2.2,0-4.4,0-6.6
		c0-0.2,0-0.3,0-0.6c-2.2,0-4.3,0-6.5,0c0,0.2,0,0.4,0,0.6c0,2.2,0,4.4,0,6.6c0,0.6-0.3,0.9-0.7,1c-0.5,0.1-0.9-0.3-0.9-0.9
		c0-2.2,0-4.4,0-6.6c0-0.2,0-0.4,0-0.6c-0.7,0-1.3,0-1.9,0c-0.2,0-0.5,0-0.7,0c-0.4-0.1-0.6-0.3-0.7-0.7c0-0.4,0.2-0.7,0.6-0.8
		c0.2-0.1,0.3-0.1,0.5-0.1c4.7,0,9.4,0,14.2,0c0.1,0,0.3,0,0.4,0c0.4,0.1,0.7,0.4,0.7,0.8c0,0.4-0.3,0.7-0.8,0.8c-0.4,0-0.8,0-1.2,0
		C30.3,37.4,29.9,37.4,29.4,37.4z"/>
	<path class="st0" d="M39.2,39c0-0.8,0-1.5,0-2.3c0-0.6,0.3-0.9,0.9-0.9c1,0,2,0,3.1,0c0.6,0,0.9,0.3,0.9,0.9c0,1.6,0,3.1,0,4.7
		c0,0.6-0.3,0.9-0.9,0.9c-1,0-2,0-3.1,0c-0.6,0-0.9-0.3-0.9-1C39.2,40.6,39.2,39.8,39.2,39z M40.9,40.7c0.5,0,1.1,0,1.6,0
		c0-1.1,0-2.1,0-3.2c-0.5,0-1,0-1.6,0C40.9,38.5,40.9,39.6,40.9,40.7z"/>
	<path class="st0" d="M18,19.4c0-0.8,0-1.5,0-2.3c0-0.6,0.3-0.9,0.9-0.9c1,0,2,0,3.1,0c0.6,0,0.9,0.3,0.9,0.9c0,1.5,0,3.1,0,4.6
		c0,0.7-0.3,1-1,1c-1,0-2,0-3,0c-0.7,0-1-0.3-1-1C18,21,18,20.2,18,19.4C18,19.4,18,19.4,18,19.4z M21.2,21.1c0-1.1,0-2.2,0-3.2
		c-0.5,0-1,0-1.6,0c0,1.1,0,2.1,0,3.2C20.2,21.1,20.7,21.1,21.2,21.1z"/>
	<path class="st0" d="M31,19.5c0,0.8,0,1.5,0,2.3c0,0.6-0.3,0.9-0.9,0.9c-1,0-2,0-3,0c-0.6,0-0.9-0.3-0.9-0.9c0-1.6,0-3.1,0-4.7
		c0-0.6,0.3-0.9,0.9-0.9c1,0,2,0,3.1,0c0.6,0,0.9,0.3,0.9,0.9C31,17.9,31,18.7,31,19.5z M27.8,17.9c0,1.1,0,2.2,0,3.2
		c0.5,0,1,0,1.6,0c0-1.1,0-2.1,0-3.2C28.8,17.9,28.3,17.9,27.8,17.9z"/>
	<path class="st0" d="M18,9.7c0-0.8,0-1.5,0-2.3c0-0.7,0.3-1,0.9-1c1,0,2,0,3,0c0.6,0,0.9,0.3,0.9,1c0,1.5,0,3.1,0,4.6
		c0,0.6-0.3,0.9-0.9,0.9c-1,0-2,0-3.1,0c-0.6,0-0.9-0.3-0.9-0.9C18,11.2,18,10.4,18,9.7z M19.6,8.1c0,1.1,0,2.1,0,3.2
		c0.5,0,1,0,1.6,0c0-1.1,0-2.1,0-3.2C20.7,8.1,20.2,8.1,19.6,8.1z"/>
	<path class="st0" d="M31,9.7c0,0.8,0,1.5,0,2.3c0,0.6-0.3,0.9-0.9,0.9c-1,0-2,0-3,0c-0.6,0-0.9-0.3-0.9-0.9c0-1.6,0-3.1,0-4.7
		c0-0.6,0.3-0.9,0.9-0.9c1,0,2,0,3.1,0c0.6,0,0.9,0.3,0.9,0.9C31,8.1,31,8.9,31,9.7z M27.8,11.3c0.6,0,1.1,0,1.6,0
		c0-1.1,0-2.1,0-3.2c-0.5,0-1,0-1.6,0C27.8,9.1,27.8,10.2,27.8,11.3z"/>
	<path class="st0" d="M9.8,19.5c0,0.8,0,1.5,0,2.3c0,0.6-0.3,0.9-0.9,0.9c-1,0-2,0-3,0c-0.6,0-0.9-0.3-0.9-0.9c0-1.6,0-3.1,0-4.7
		c0-0.6,0.3-0.9,0.9-0.9c1,0,2,0,3.1,0c0.6,0,0.9,0.3,0.9,0.9C9.8,17.9,9.8,18.7,9.8,19.5z M8.1,21.1c0-1.1,0-2.1,0-3.2
		c-0.5,0-1,0-1.6,0c0,1.1,0,2.1,0,3.2C7.1,21.1,7.6,21.1,8.1,21.1z"/>
	<path class="st0" d="M44.1,19.5c0,0.8,0,1.5,0,2.3c0,0.7-0.3,1-1,1c-1,0-1.9,0-2.9,0c-0.7,0-1-0.3-1-0.9c0-1.6,0-3.1,0-4.7
		c0-0.6,0.3-0.9,0.9-0.9c1,0,2,0,3.1,0c0.6,0,0.9,0.3,0.9,1C44.1,17.9,44.1,18.7,44.1,19.5z M40.9,17.9c0,1.1,0,2.1,0,3.2
		c0.5,0,1.1,0,1.6,0c0-1.1,0-2.1,0-3.2C41.9,17.9,41.4,17.9,40.9,17.9z"/>
	<path class="st0" d="M39.2,29.3c0-0.8,0-1.6,0-2.3c0-0.6,0.3-0.9,0.9-0.9c1,0,2,0,3,0c0.6,0,0.9,0.3,0.9,0.9c0,1.5,0,3.1,0,4.6
		c0,0.6-0.3,0.9-0.9,0.9c-1,0-2,0-3.1,0c-0.6,0-0.9-0.3-0.9-0.9C39.2,30.8,39.2,30,39.2,29.3z M40.9,27.7c0,1.1,0,2.1,0,3.2
		c0.5,0,1.1,0,1.6,0c0-1.1,0-2.1,0-3.2C41.9,27.7,41.4,27.7,40.9,27.7z"/>
	<path class="st0" d="M31,29.3c0,0.8,0,1.6,0,2.3c0,0.6-0.3,0.9-0.9,0.9c-1,0-2,0-3.1,0c-0.6,0-0.9-0.3-0.9-1c0-1.5,0-3.1,0-4.6
		c0-0.7,0.3-1,1-1c1,0,2,0,3,0c0.6,0,0.9,0.3,0.9,0.9C31,27.7,31,28.5,31,29.3C31,29.3,31,29.3,31,29.3z M27.8,27.7
		c0,1.1,0,2.1,0,3.2c0.5,0,1.1,0,1.6,0c0-1.1,0-2.1,0-3.2C28.8,27.7,28.3,27.7,27.8,27.7z"/>
	<path class="st0" d="M22.9,29.3c0,0.7,0,1.5,0,2.2c0,0.7-0.3,1-1,1c-1,0-2,0-3,0c-0.6,0-0.9-0.3-0.9-0.9c0-1.6,0-3.2,0-4.7
		c0-0.6,0.3-0.9,0.9-0.9c1,0,2.1,0,3.1,0c0.6,0,0.9,0.3,0.9,0.9C22.9,27.7,22.9,28.5,22.9,29.3z M19.6,27.6c0,1.1,0,2.2,0,3.2
		c0.5,0,1.1,0,1.6,0c0-1.1,0-2.1,0-3.2C20.7,27.6,20.2,27.6,19.6,27.6z"/>
	<path class="st0" d="M8.2,27.7c-0.6,0-1.1,0-1.6,0c0,0.3,0,0.5,0,0.8c0,0.5-0.3,0.8-0.8,0.8c-0.4,0-0.8-0.3-0.8-0.7
		c0-0.6,0-1.2,0-1.8c0-0.4,0.4-0.7,0.8-0.7c1.1,0,2.2,0,3.3,0c0.5,0,0.8,0.3,0.8,0.8c0,1.6,0,3.3,0,4.9c0,0.5-0.4,0.8-0.8,0.8
		c-0.5,0-0.8-0.3-0.8-0.9c0-1.1,0-2.2,0-3.3C8.2,28.1,8.2,27.9,8.2,27.7z"/>
	<path class="st0" d="M24.5,40.7c0.5,0,0.8,0.3,0.8,0.8c0,0.5-0.4,0.8-0.8,0.8c-0.4,0-0.8-0.4-0.8-0.8C23.7,41.1,24,40.7,24.5,40.7z
		"/>
</g>
</svg>
