<?xml version="1.0" encoding="utf-8"?>
<!-- Generator: Adobe Illustrator 23.0.3, SVG Export Plug-In . SVG Version: 6.00 Build 0)  -->
<svg version="1.1" id="Layer_1" xmlns="http://www.w3.org/2000/svg" xmlns:xlink="http://www.w3.org/1999/xlink" x="0px" y="0px"
	 viewBox="0 0 49 52" style="enable-background:new 0 0 49 52;" xml:space="preserve">
<style type="text/css">
	.st0{fill:#255DBE;}
</style>
<g>
	<path class="st0" d="M12,17.7c-2.5,0-5,0-7.5,0c-0.1,0-0.1,0-0.2,0c-0.7,9.2-1.3,18.4-2,27.6c4,0,7.8,0,11.8,0
		c0-0.1,0.1-0.3,0.2-0.4c0.2-0.4,0.5-0.6,1-0.6c0.5,0,0.8,0.2,1,0.7c0.1,0.3,0.3,0.4,0.6,0.4c0.6,0,1.2,0,1.8,0c0-0.2,0-0.4,0-0.6
		c0-2.6,0-5.3,0-7.9c0-1.1,0.4-1.4,1.4-1.4c1.3,0,2.5,0,3.8,0c1,0,1.4,0.4,1.4,1.4c0,2.6,0,5.2,0,7.9c0,0.2,0,0.4,0,0.6
		c0.7,0,1.4,0,2.2,0c0-0.2,0-0.4,0-0.6c0-2.6,0-5.3,0-7.9c0-1,0.4-1.4,1.4-1.4c1.3,0,2.5,0,3.8,0c0.9,0,1.3,0.4,1.3,1.3
		c0,2.7,0,5.3,0,8c0,0.2,0,0.4,0,0.6c0.7,0,1.4,0,2.2,0c0-0.2,0-0.4,0-0.6c0-2.6,0-5.3,0-7.9c0-1,0.4-1.4,1.4-1.4c1.3,0,2.6,0,3.9,0
		c0.9,0,1.3,0.4,1.3,1.3c0,2.7,0,5.3,0,8c0,0.2,0,0.4,0,0.6c0.7,0,1.4,0,2.2,0c0-0.2,0-0.4,0-0.6c0-6.7,0-13.5,0-20.2
		c0-0.2,0-0.5-0.1-0.7c-0.2-0.5-0.1-0.9,0.3-1.3c0.4-0.3,0.8-0.5,1.3-0.3c0.5,0.2,0.7,0.6,0.7,1.2c0,9.1,0,18.2,0,27.3
		c0,0.9-0.4,1.3-1.4,1.3c-9.8,0-19.7,0-29.5,0c-4.8,0-9.6,0-14.4,0c-1.1,0-1.4-0.4-1.4-1.5c-0.1-4.2,0.3-8.3,0.6-12.5
		c0.3-3.7,0.5-7.4,0.8-11.1c0.2-3.3,0.5-6.5,0.7-9.8c0.1-1.6,0-3.1,0.1-4.7c0-1,0.4-1.4,1.4-1.4c3.1,0,6.2,0,9.3,0
		c1,0,1.4,0.4,1.3,1.4c-0.1,4.2,0.3,8.3,0.6,12.5c0.1,0.9,0.1,1.8,0.2,2.7c0.2-0.1,0.3-0.2,0.4-0.3c1.8-1.6,3.6-3.1,5.4-4.7
		c0.4-0.4,0.8-0.7,1.4-0.4c0.6,0.3,0.7,0.8,0.6,1.3c0,1.2,0,2.5,0,3.9c0.3-0.3,0.5-0.4,0.7-0.6c1.6-1.4,3.2-2.8,4.8-4.2
		c0.4-0.3,0.8-0.6,1.3-0.4c0.5,0.2,0.7,0.6,0.8,1.2c0.2,1.3,0.4,2.5,0.6,3.8c0,0.2,0.1,0.4,0.1,0.6c0.6-0.6,1.2-1.1,1.8-1.6
		c1.3-1.2,2.7-2.3,4-3.5c0.4-0.4,0.9-0.7,1.4-0.4c0.6,0.3,0.6,0.8,0.6,1.3c0,2,0,4.1,0,6.1c0,0.8-0.4,1.3-1.1,1.3
		c-0.7,0-1.1-0.5-1.1-1.3c0-0.2,0-0.4,0-0.6c0-1.1,0-2.2,0-3.4c-0.2,0.1-0.3,0.2-0.4,0.3c-1.7,1.5-3.4,3-5.2,4.5
		c-0.4,0.3-0.8,0.6-1.3,0.4c-0.6-0.2-0.7-0.7-0.8-1.2c-0.2-1.4-0.5-2.8-0.7-4.3c-0.2,0.2-0.3,0.3-0.5,0.4c-1.8,1.6-3.6,3.2-5.5,4.8
		c-0.2,0.1-0.3,0.3-0.5,0.4c-0.7,0.3-1.5-0.2-1.5-1.1c0-1.3,0-2.7,0-4.1c-0.2,0.1-0.3,0.2-0.4,0.3c-1.6,1.4-3.1,2.7-4.7,4.1
		c-0.2,0.1-0.3,0.5-0.3,0.7c0,1.2,0.1,2.4,0.2,3.5c0,0.8-0.3,1.3-1,1.4c-0.7,0.1-1.2-0.4-1.3-1.2c-0.2-2.4-0.4-4.9-0.5-7.3
		c-0.2-3.1-0.4-6.1-0.7-9.2C12.1,17.9,12.1,17.8,12,17.7z M44.6,47.6c-9.4,0-18.8,0-28.2,0c0,0.7,0,1.4,0,2.1c9.4,0,18.8,0,28.2,0
		C44.6,49,44.6,48.3,44.6,47.6z M14.1,49.8c0-0.8,0-1.4,0-2.2c-4,0-7.9,0-11.9,0c0,0.7,0,1.4,0,2.2C6.2,49.8,10.2,49.8,14.1,49.8z
		 M4.4,13.3c0,0.7,0,1.4,0,2.2c2.5,0,5,0,7.5,0c0-0.7,0-1.5,0-2.2C9.4,13.3,7,13.3,4.4,13.3z M20.7,37.6c0,2.6,0,5.1,0,7.7
		c0.7,0,1.4,0,2.1,0c0-2.6,0-5.1,0-7.7C22.1,37.6,21.5,37.6,20.7,37.6z M29.4,45.3c0.7,0,1.4,0,2.1,0c0-2.6,0-5.1,0-7.7
		c-0.7,0-1.4,0-2.1,0C29.4,40.2,29.4,42.8,29.4,45.3z M40.3,45.3c0-2.6,0-5.1,0-7.7c-0.7,0-1.4,0-2.1,0c0,2.6,0,5.1,0,7.7
		C38.9,45.3,39.5,45.3,40.3,45.3z"/>
	<path class="st0" d="M39.7,10.7c0.2,0.6,0.4,1.1,0.5,1.7c0.5,2.7-1.1,5.3-3.6,6.2c-2.5,0.9-5.3-0.3-6.5-2.7
		c-0.2-0.3-0.3-0.5-0.7-0.4c-2.3,0.4-4.2-0.4-5.8-2.1c-0.1-0.1-0.1-0.2-0.2-0.3c-0.2,0.1-0.3,0.2-0.5,0.3c-1.6,1.1-3.2,1.3-5,0.7
		c-0.7-0.3-1-0.8-0.8-1.4c0.2-0.6,0.8-0.9,1.6-0.7c1.6,0.5,2.9,0.1,3.9-1.3c0.7-0.9,1.5-0.9,2.1,0.1c1.2,2.2,3.2,3,5.6,2.2
		c0.9-0.3,1.4,0,1.7,1.1c0.4,1.7,2,2.8,3.6,2.5c1.7-0.2,3-1.7,2.8-3.5c-0.1-0.6-0.3-1.2-0.6-1.7c-0.5-0.9-0.5-1.4,0.3-2
		c0.3-0.3,0.6-0.6,0.9-1c0.7-1,1.5-1,2.1,0c0.8,1.2,1.9,1.7,3.3,1.5c1.4-0.2,2.3-1.1,2.7-2.6c0.3-1.5-0.4-3-1.8-3.7
		C43.6,3,42,3.3,41.1,4.5c-0.1,0.2-0.2,0.3-0.3,0.5c-0.6,0.8-1.4,0.8-1.9,0c-1.4-2.3-4.6-2.2-5.8,0.2c-0.4,0.8-1.1,0.9-1.8,0.3
		c-2.3-1.9-5.3-1.3-6.7,1.4C23.9,7.9,23,8,22.3,7c-0.8-1.2-2-1.6-3.4-1.4c-1,0.2-1.5-0.2-1.5-1.2c-0.1-1.1-0.8-1.9-1.8-2.2
		c-0.9-0.2-1.9,0.3-2.4,1.3c-0.5,1-1.2,1.1-2,0.4c-0.9-0.8-2.1-0.8-3,0C7.5,4.7,7.4,6,8.1,6.9C8.8,7.8,10,8,11,7.4
		c0.7-0.4,1.3-0.4,1.7,0.2c0.4,0.6,0.2,1.2-0.5,1.7c-1.7,1.1-4,0.9-5.4-0.6C5.3,7.2,5,4.9,6.2,3.1c1.1-1.8,3.3-2.5,5.2-1.7
		c0.4,0.1,0.6,0.1,0.9-0.2c2.2-2.2,5.9-1.4,7.1,1.6c0.1,0.3,0.3,0.5,0.6,0.5c1.2,0.1,2.3,0.5,3.2,1.3c0.4-0.4,0.7-0.7,1.1-1
		c2.2-1.6,4.5-1.9,7-0.7c0.3,0.1,0.4,0.2,0.7-0.1c2.2-2.3,5.2-2.4,7.6-0.3c0,0,0.1,0.1,0.2,0.1C41,1.5,42.5,1,44.1,1.1
		c1.4,0.1,2.5,0.8,3.5,1.8c1.8,2,1.9,5.1,0.2,7.2c-1,1.2-2.3,1.9-3.9,2C42.6,12.2,42,12,39.7,10.7z"/>
	<path class="st0" d="M5.5,19.9c0.7,0,1.4,0,2.1,0c0,0.7,0,1.4,0,2.2c-0.7,0-1.4,0-2.1,0C5.5,21.4,5.5,20.7,5.5,19.9z"/>
	<path class="st0" d="M10.9,25.4c-0.7,0-1.4,0-2.1,0c0-0.7,0-1.4,0-2.2c0.7,0,1.4,0,2.1,0C10.9,24,10.9,24.7,10.9,25.4z"/>
	<path class="st0" d="M7.6,26.6c0,0.7,0,1.4,0,2.1c-0.7,0-1.4,0-2.1,0c0-0.7,0-1.4,0-2.1C6.2,26.6,6.9,26.6,7.6,26.6z"/>
	<path class="st0" d="M8.8,32.1c0-0.7,0-1.4,0-2.1c0.7,0,1.4,0,2.1,0c0,0.7,0,1.4,0,2.1C10.2,32.1,9.5,32.1,8.8,32.1z"/>
	<path class="st0" d="M7.6,35.4c-0.7,0-1.4,0-2.1,0c0-0.7,0-1.4,0-2.2c0.7,0,1.4,0,2.1,0C7.6,33.9,7.6,34.6,7.6,35.4z"/>
	<path class="st0" d="M10.9,38.7c-0.7,0-1.4,0-2.1,0c0-0.7,0-1.4,0-2.1c0.7,0,1.4,0,2.1,0C10.9,37.2,10.9,38,10.9,38.7z"/>
	<path class="st0" d="M15.9,40.1c0,0.6-0.5,1.1-1.1,1.1c-0.6,0-1.1-0.5-1.1-1.2c0-0.6,0.5-1.1,1.1-1.1
		C15.4,38.8,15.9,39.4,15.9,40.1z"/>
	<path class="st0" d="M15.3,9.6c-0.6,0-1.1-0.5-1.1-1.1c0-0.6,0.5-1.1,1.1-1.1c0.6,0,1.1,0.5,1.1,1.1C16.3,9.2,15.9,9.6,15.3,9.6z"
		/>
	<path class="st0" d="M42.5,27c0,0.6-0.5,1.1-1.1,1.1c-0.6,0-1.1-0.5-1.1-1.1c0-0.6,0.5-1.1,1.1-1.1C42,25.9,42.5,26.4,42.5,27z"/>
</g>
</svg>
