<?xml version="1.0" encoding="utf-8"?>
<!-- Generator: Adobe Illustrator 23.0.3, SVG Export Plug-In . SVG Version: 6.00 Build 0)  -->
<svg version="1.1" id="Layer_1" xmlns="http://www.w3.org/2000/svg" xmlns:xlink="http://www.w3.org/1999/xlink" x="0px" y="0px"
	 viewBox="0 0 49 52" style="enable-background:new 0 0 49 52;" xml:space="preserve">
<style type="text/css">
	.st0{fill:#255DBE;}
</style>
<g>
	<path class="st0" d="M0.8,50c-0.3-0.5-0.5-1-0.8-1.5c0.8-0.5,1.6-1.1,2.5-1.6c0.5-0.3,1-0.6,1.4-0.9c0.4-0.3,0.7-0.3,1.1,0
		c0.7,0.5,1.5,1,2.2,1.4c0.5,0.3,1.1,0.5,1.7,0.3c0.1,0,0.3-0.3,0.3-0.4c0-2.1,0-4.3,0-6.4c0-0.3-0.1-0.5-0.2-0.8
		c-0.3-0.6-0.6-1.2-0.8-1.9C8,38,7.9,37.9,7.5,37.9c-1,0-2,0-3,0c-0.7,0-0.9-0.3-0.9-1c0-1.1,0-2.1,0-3.2c0-0.7,0.3-1,1-1
		c0.7,0,1.5,0,2.3,0c0-0.2,0-0.4,0-0.6c0-3.2,0-6.4,0-9.6c0-0.9,0.3-1.2,1.1-1.2c1,0,1.9,0,2.9,0c0-2.9,0-5.8,0-8.7
		c-0.5,0-1,0-1.5,0c0-0.6,0-1.1,0-1.7c4.8,0,9.6,0,14.4,0c0,0.5,0,1.1,0,1.7c-0.5,0-1,0-1.5,0c0,2.9,0,5.8,0,8.7c0.8,0,1.6,0,2.4,0
		c0.8-4.9,1.5-9.8,2.3-14.8c-0.5,0-1,0-1.4,0c0-0.6,0-1.1,0-1.7c1.3,0,2.6,0,4,0c0-0.9,0-1.8,0-2.6c0.6,0,1,0,1.6,0
		c0,0.8,0,1.7,0,2.6c1.4,0,2.7,0,4,0c0,0.6,0,1.1,0,1.8c-0.4,0-0.9,0-1.4,0c1,6.5,2,12.9,2.9,19.3c1.3,0,2.6,0,3.9,0
		c0.8,0,1.1,0.3,1.1,1.2c0,1.9,0,3.8,0,5.8c0.2,0,0.3,0,0.4,0c0.9,0,1.8,0,2.7,0c0.6,0,0.9,0.3,0.9,1c0,1.1,0,2.2,0,3.3
		c0,0.6-0.3,0.9-0.9,0.9c-1,0-2,0-3.1,0c-0.3,0-0.4,0.1-0.5,0.4c-0.3,0.7-0.7,1.5-1,2.2c-0.1,0.2-0.1,0.4-0.1,0.6c0,2,0,4.1,0,6.1
		c0,0.4,0.1,0.6,0.5,0.6c0.5-0.1,1.1-0.1,1.6-0.4c0.8-0.4,1.5-1,2.2-1.4c0.2-0.1,0.6-0.2,0.8-0.1c1.4,0.8,2.7,1.7,4.1,2.6
		c-0.3,0.5-0.6,1-0.8,1.5c-1.1-0.7-2.2-1.4-3.2-2.1c-0.3-0.2-0.5-0.2-0.8,0c-0.5,0.4-1,0.7-1.5,1c-1.4,0.9-2.8,0.9-4.2,0
		c-0.5-0.3-1-0.7-1.6-1c-0.2-0.1-0.5-0.1-0.6,0c-0.7,0.4-1.3,0.8-1.9,1.2c-1.2,0.7-2.4,0.7-3.6,0c-0.7-0.4-1.3-0.8-1.9-1.2
		c-0.3-0.2-0.4-0.2-0.7,0c-0.6,0.4-1.2,0.9-1.9,1.2c-1.2,0.6-2.4,0.6-3.5,0c-0.7-0.4-1.3-0.8-1.9-1.2c-0.3-0.2-0.5-0.2-0.7,0
		c-0.6,0.4-1.2,0.8-1.9,1.2c-1.2,0.7-2.4,0.7-3.6,0c-0.6-0.3-1.2-0.7-1.8-1.2c-0.3-0.2-0.5-0.2-0.9,0c-0.6,0.4-1.2,0.8-1.8,1.2
		c-1.2,0.6-2.4,0.6-3.5,0C6.1,48.8,5.5,48.4,5,48c-0.4-0.3-0.7-0.2-1.1,0C2.9,48.7,1.9,49.3,0.8,50z M8.5,24.7c0.2,0,0.4,0,0.6,0
		c5.9,0,11.7,0,17.6,0c0.8,0,1,0.3,1.1,1.2c0,1.2,0,2.4,0,3.7c0,1.1-0.2,1.3-1.2,1.3c-5.8,0-11.6,0-17.5,0c-0.2,0-0.4,0-0.6,0
		c0,0.6,0,1.2,0,1.7c7,0,13.9,0,20.8,0c0-3.2,0-6.4,0-9.6c-7,0-13.9,0-20.8,0C8.5,23.6,8.5,24.1,8.5,24.7z M5.3,36.1
		c12.9,0,25.7,0,38.5,0c0-0.6,0-1.1,0-1.7c-12.8,0-25.6,0-38.5,0C5.3,35,5.3,35.5,5.3,36.1z M20.5,12.5c-2.7,0-5.3,0-8,0
		c0,2.9,0,5.8,0,8.7c2.7,0,5.3,0,8,0C20.5,18.3,20.5,15.4,20.5,12.5z M30.9,32.6c3,0,5.9,0,8.8,0c0-1.8,0-3.5,0-5.2
		c-2.9,0-5.8,0-8.8,0C30.9,29.1,30.9,30.8,30.9,32.6z M22.1,41.4c0,1.4,0.1,2.8,0,4.2c0,0.8,0.2,1.3,0.9,1.7c1.1,0.7,2,0.7,3.1,0
		c0.2-0.1,0.3-0.2,0.5-0.3c0.3-0.1,0.4-0.4,0.4-0.7c0-1.4,0-2.9,0-4.3c0-0.2,0-0.3,0-0.5C25.3,41.4,23.7,41.4,22.1,41.4z M15.6,41.4
		c-1.6,0-3.2,0-4.8,0c0,1.7,0,3.4,0,5.2c0.2-0.1,0.4-0.2,0.5-0.3c0.7-0.6,1.3-0.6,2.1,0c0.7,0.5,1.4,0.9,2.1,1.4
		C15.6,45.5,15.6,43.5,15.6,41.4z M33.3,47.7c0.9-0.6,1.8-1.1,2.6-1.7c0.4-0.3,0.8-0.3,1.2,0c0.3,0.2,0.6,0.4,1,0.6
		c0-1.8,0-3.5,0-5.2c-1.6,0-3.2,0-4.8,0C33.3,43.5,33.3,45.5,33.3,47.7z M20.5,45.6c0-1.5,0-3.1,0-4.7c0-0.1,0-0.3-0.1-0.4
		c-0.4-0.8-0.7-1.6-1.1-2.3c-0.1-0.1-0.3-0.3-0.4-0.3c-0.2,0-0.4,0.1-0.4,0.3c-0.3,0.6-0.6,1.2-0.9,1.9c-0.2,0.4-0.3,0.9-0.3,1.3
		c0,1.9,0,3.8,0,5.7c0,0.2,0,0.3,0,0.6C18.4,47,19.4,46.3,20.5,45.6z M31.7,47.7c0-2.3,0-4.6,0-6.8c0-0.1,0-0.3-0.1-0.4
		c-0.4-0.8-0.7-1.6-1.1-2.4c-0.2-0.4-0.6-0.4-0.8,0c-0.2,0.3-0.3,0.6-0.4,0.9c-0.3,0.6-0.7,1.1-0.7,1.7c-0.1,1.6,0,3.3,0,4.9
		C29.6,46.3,30.6,47,31.7,47.7z M9.7,37.9c0.3,0.6,0.5,1,0.7,1.5c0.1,0.1,0.3,0.2,0.4,0.2c1.6,0,3.2,0,4.9,0c0.1,0,0.3-0.1,0.4-0.2
		c0.3-0.5,0.5-1,0.7-1.5C14.4,37.9,12.1,37.9,9.7,37.9z M21,37.9c0.2,0.5,0.4,1,0.6,1.4c0.1,0.2,0.3,0.3,0.5,0.3c1.6,0,3.2,0,4.8,0
		c0.1,0,0.3-0.1,0.4-0.2c0.3-0.5,0.5-1,0.7-1.6C25.6,37.9,23.4,37.9,21,37.9z M39.2,37.9c-2.4,0-4.6,0-7,0c0.2,0.5,0.5,1,0.7,1.5
		c0.1,0.1,0.3,0.2,0.4,0.2c1.6,0,3.2,0,4.8,0c0.1,0,0.3-0.1,0.4-0.2C38.8,39,39,38.4,39.2,37.9z M26.1,21.2c1.2,0,2.4,0,3.7,0
		c0.8,0,0.9,0.1,1.2,0.8c0.4,0,0.8,0,1.4,0c-1.9-1.5-3.8-2.9-5.7-4.3C26.5,19,26.3,20.1,26.1,21.2z M27.5,12.3
		c-0.2,1.3-0.4,2.4-0.6,3.6c1.6,0,3.2,0,4.8,0C30.3,14.7,28.9,13.6,27.5,12.3z M11.6,26.5c-1.1,0-2.1,0-3.2,0c0,0.9,0,1.7,0,2.6
		c1.1,0,2.1,0,3.2,0C11.6,28.2,11.6,27.4,11.6,26.5z M13.3,29.1c1.1,0,2.1,0,3.2,0c0-0.9,0-1.7,0-2.6c-1.1,0-2.1,0-3.2,0
		C13.3,27.4,13.3,28.2,13.3,29.1z M18.1,26.5c0,0.9,0,1.7,0,2.6c1.1,0,2.1,0,3.2,0c0-0.9,0-1.7,0-2.6C20.2,26.5,19.2,26.5,18.1,26.5
		z M22.9,26.5c0,0.9,0,1.7,0,2.6c1.1,0,2.1,0,3.2,0c0-0.9,0-1.7,0-2.6C25,26.5,24,26.5,22.9,26.5z M34.1,21.3
		c-0.2-1.3-0.4-2.4-0.5-3.5c-1.3,0-2.7,0-4.1,0C31.1,19,32.6,20.1,34.1,21.3z M30.9,25.6c1.3,0,2.5,0,3.8,0
		c-0.1-0.6-0.2-1.2-0.3-1.7c-1.2,0-2.4,0-3.6,0C30.9,24.5,30.9,25,30.9,25.6z M29.3,11.6c1.3,1.1,2.6,2.2,3.9,3.3
		c-0.2-1.2-0.3-2.2-0.5-3.3C31.5,11.6,30.5,11.6,29.3,11.6z M30.4,9.8C29.7,9,29,8.3,28.2,7.5C28.1,8.2,28,9,27.9,9.8
		C28.8,9.8,29.6,9.8,30.4,9.8z M31.8,6.4c-0.7,0-1.4,0-1.9,0c0.8,0.8,1.6,1.7,2.3,2.5C32.1,8.1,32,7.3,31.8,6.4z"/>
	<path class="st0" d="M15.6,16c-0.5,0-1,0-1.5,0c0-0.6,0-1.1,0-1.7c0.5,0,1,0,1.5,0C15.6,14.8,15.6,15.4,15.6,16z"/>
	<path class="st0" d="M17.3,14.3c0.5,0,1,0,1.5,0c0,0.6,0,1.1,0,1.7c-0.5,0-1,0-1.5,0C17.3,15.4,17.3,14.9,17.3,14.3z"/>
	<path class="st0" d="M14.1,17.8c0.5,0,1,0,1.5,0c0,0.5,0,1.1,0,1.7c-0.5,0-1,0-1.5,0C14.1,18.9,14.1,18.3,14.1,17.8z"/>
	<path class="st0" d="M17.3,19.4c0-0.6,0-1.1,0-1.7c0.5,0,1,0,1.6,0c0,0.5,0,1.1,0,1.7C18.3,19.4,17.8,19.4,17.3,19.4z"/>
</g>
</svg>
