<?xml version="1.0" encoding="utf-8"?>
<!-- Generator: Adobe Illustrator 23.0.3, SVG Export Plug-In . SVG Version: 6.00 Build 0)  -->
<svg version="1.1" id="Layer_1" xmlns="http://www.w3.org/2000/svg" xmlns:xlink="http://www.w3.org/1999/xlink" x="0px" y="0px"
	 viewBox="0 0 49 52" style="enable-background:new 0 0 49 52;" xml:space="preserve">
<style type="text/css">
	.st0{fill:#255DBE;}
</style>
<g>
	<path class="st0" d="M1.7,49.2c0-11.3,0-22.5,0-33.7c-0.7-0.3-0.8-0.5-0.8-1.2c0-0.7,0-1.3,0-2c0-0.8,0.3-1.1,1.1-1.1
		c3.4,0,6.8,0,10.1,0c0.2,0,0.4,0,0.6,0c0-2,0-3.9,0-5.9c-0.7-0.1-0.8-0.7-0.8-1.3c0-0.6,0-1.3,0-2c0-0.7,0.3-1,1-1
		c7.3,0,14.5,0,21.8,0c0.6,0,0.9,0.3,0.9,1c0,0.7,0,1.4,0,2.2c0,0.8-0.3,1.1-1.1,1.1c-6.4,0-12.9,0-19.3,0c-0.2,0-0.4,0-0.7,0
		c0,14.7,0,29.3,0,43.9c1.7,0,3.3,0,5,0c0-0.2,0-0.4,0-0.6c0-2.3,0-4.5,0-6.8c0-0.8,0.3-1.1,1.1-1.1c2.1,0,4.2,0,6.2,0
		c0.8,0,1.1,0.3,1.1,1.1c0,2.3,0,4.5,0,6.8c0,0.2,0,0.3,0,0.6c1.7,0,3.4,0,5.1,0c0-0.2,0-0.5,0-0.7c0-13.7,0-27.5,0-41.2
		c0-0.1,0-0.2,0-0.3c0-0.5,0.4-0.9,0.8-0.9c0.5,0,0.9,0.3,0.9,0.9c0,1.2,0,2.4,0,3.5c0,1,0,2.1,0,3.2c3.4,0,6.7,0,10.1,0
		c0-0.2,0-0.5,0-0.8c-0.2,0-0.4,0-0.6,0c-2.6,0-5.1,0-7.7,0c-0.4,0-0.8-0.1-0.9-0.5c-0.1-0.3,0-0.6,0.1-0.8c0.1-0.2,0.5-0.3,0.8-0.3
		c3,0,6,0,9,0c0.7,0,1,0.3,1,1c0,0.7,0,1.4,0,2.2c0,0.8-0.3,1-1.1,1c-3.4,0-6.8,0-10.2,0c-0.2,0-0.3,0-0.5,0c0,11.3,0,22.5,0,33.8
		c0.3,0,0.5,0,0.8,0c0.2-2.1,1.2-3.6,3-4.5c1.9-0.9,3.7-0.5,5.5,0.8c0-0.3,0-0.5,0-0.7c0-9.1,0-18.2,0-27.3c0-0.1,0-0.3,0-0.4
		c0-0.5,0.4-0.8,0.8-0.8c0.4,0,0.8,0.3,0.8,0.8c0,0.5,0,0.9,0,1.4c0,8.9,0,17.9,0,26.8c0,0.2,0,0.3,0,0.6c1,0.1,1.8,0.4,2.4,1.2
		c0.8,0.8,1.1,1.8,0.9,3c-0.2,0.8-0.4,1-1.2,1c-9.9,0-19.8,0-29.7,0c-5.6,0-11.1,0-16.7,0c-0.2,0-0.3,0-0.5,0
		c-0.5,0-0.8-0.4-0.8-0.8c0-0.5,0.3-0.8,0.8-0.8C1.1,49.2,1.4,49.2,1.7,49.2z M3.4,15.5c0,11.3,0,22.5,0,33.7c3.1,0,6.2,0,9.2,0
		c0-11.3,0-22.5,0-33.7C9.6,15.5,6.5,15.5,3.4,15.5z M21.1,49.2c1.7,0,3.4,0,5,0c0-2.3,0-4.5,0-6.7c-1.7,0-3.4,0-5,0
		C21.1,44.8,21.1,47,21.1,49.2z M37.2,49.2c3.4,0,6.7,0,10.1,0c0-1.4-1.3-2.1-2.5-1.4c-0.6,0.3-1,0.3-1.4-0.3
		c-0.1-0.2-0.2-0.3-0.3-0.5c-0.9-1.1-2.4-1.4-3.8-0.9C38,46.6,37.2,47.8,37.2,49.2z M13.5,3.6c6.8,0,13.5,0,20.2,0
		c0-0.3,0-0.5,0-0.8c-6.8,0-13.5,0-20.2,0C13.5,3.1,13.5,3.3,13.5,3.6z M12.6,13.7c0-0.3,0-0.5,0-0.8c-3.4,0-6.7,0-10.1,0
		c0,0.3,0,0.5,0,0.8C6,13.7,9.3,13.7,12.6,13.7z"/>
	<path class="st0" d="M16.1,12.5c0-1.2,0-2.4,0-3.6c0-0.7,0.3-1,1-1c1.6,0,3.1,0,4.7,0c0.7,0,1,0.3,1,1c0,2.4,0,4.8,0,7.2
		c0,0.8-0.3,1-1.1,1c-1.5,0-3.1,0-4.6,0c-0.8,0-1.1-0.3-1.1-1.1C16.1,14.9,16.1,13.7,16.1,12.5z M21.1,15.4c0-2,0-3.9,0-5.9
		c-1.1,0-2.2,0-3.3,0c0,2,0,3.9,0,5.9C18.9,15.4,20,15.4,21.1,15.4z"/>
	<path class="st0" d="M24.5,12.5c0-1.2,0-2.4,0-3.6c0-0.7,0.3-1,1-1c1.6,0,3.2,0,4.8,0c0.7,0,1,0.3,1,1c0,2.4,0,4.9,0,7.3
		c0,0.7-0.3,1-1,1c-1.6,0-3.2,0-4.9,0c-0.6,0-0.9-0.3-0.9-1C24.5,14.9,24.5,13.7,24.5,12.5z M26.2,9.5c0,2,0,3.9,0,5.8
		c1.1,0,2.2,0,3.3,0c0-2,0-3.9,0-5.8C28.4,9.5,27.3,9.5,26.2,9.5z"/>
	<path class="st0" d="M31.3,34.4c0,1.2,0,2.4,0,3.6c0,0.7-0.3,1-1,1c-1.6,0-3.1,0-4.7,0c-0.7,0-1-0.3-1-1c0-2.4,0-4.8,0-7.2
		c0-0.8,0.3-1,1.1-1c1.5,0,3.1,0,4.6,0c0.8,0,1.1,0.3,1.1,1C31.3,32,31.3,33.2,31.3,34.4z M29.5,31.5c-1.1,0-2.2,0-3.3,0
		c0,2,0,3.9,0,5.8c1.1,0,2.2,0,3.3,0C29.5,35.4,29.5,33.5,29.5,31.5z"/>
	<path class="st0" d="M22.8,34.5c0,1.2,0,2.4,0,3.6c0,0.7-0.3,1-1,1c-1.6,0-3.2,0-4.8,0c-0.7,0-1-0.3-1-1c0-2.4,0-4.9,0-7.3
		c0-0.7,0.3-1,1-1c1.6,0,3.2,0,4.8,0c0.7,0,1,0.3,1,1C22.8,32,22.8,33.3,22.8,34.5z M17.8,37.4c1.1,0,2.2,0,3.3,0c0-2,0-3.9,0-5.8
		c-1.1,0-2.2,0-3.3,0C17.8,33.5,17.8,35.4,17.8,37.4z"/>
	<path class="st0" d="M16.1,23.5c0-1.2,0-2.4,0-3.6c0-0.7,0.3-1,1-1c1.6,0,3.2,0,4.8,0c0.7,0,1,0.3,1,1c0,2.5,0,4.9,0,7.4
		c0,0.6-0.3,0.9-1,0.9c-1.6,0-3.2,0-4.9,0c-0.6,0-0.9-0.3-0.9-0.9C16,25.9,16.1,24.7,16.1,23.5z M21.1,20.5c-1.1,0-2.2,0-3.3,0
		c0,2,0,3.9,0,5.8c1.1,0,2.2,0,3.3,0C21.1,24.4,21.1,22.5,21.1,20.5z"/>
	<path class="st0" d="M24.5,23.4c0-1.2,0-2.4,0-3.6c0-0.7,0.3-1,1-1c1.6,0,3.2,0,4.8,0c0.6,0,1,0.3,1,1c0,2.4,0,4.9,0,7.3
		c0,0.7-0.3,1-1,1c-1.6,0-3.2,0-4.9,0c-0.6,0-0.9-0.3-0.9-1C24.5,25.9,24.5,24.7,24.5,23.4z M29.5,26.4c0-2,0-3.9,0-5.8
		c-1.1,0-2.2,0-3.3,0c0,2,0,3.9,0,5.8C27.3,26.4,28.4,26.4,29.5,26.4z"/>
	<path class="st0" d="M36.3,22.1c0-1.1,0-2.1,0-3.2c0-0.7,0.3-1,1-1c1.3,0,2.6,0,4,0c0.7,0,1,0.3,1,1c0,2.2,0,4.3,0,6.5
		c0,0.7-0.3,1-1,1c-1.3,0-2.6,0-4,0c-0.7,0-1-0.3-1-1C36.3,24.3,36.3,23.2,36.3,22.1z M40.5,24.7c0-1.7,0-3.4,0-5
		c-0.9,0-1.7,0-2.5,0c0,1.7,0,3.3,0,5C38.9,24.7,39.7,24.7,40.5,24.7z"/>
	<path class="st0" d="M36.3,32.3c0-1.1,0-2.1,0-3.2c0-0.7,0.3-1,1-1c1.3,0,2.6,0,4,0c0.7,0,1,0.3,1,1c0,2.2,0,4.3,0,6.5
		c0,0.7-0.3,1-1,1c-1.3,0-2.7,0-4,0c-0.6,0-0.9-0.3-0.9-1C36.3,34.5,36.3,33.4,36.3,32.3z M40.5,29.8c-0.9,0-1.7,0-2.5,0
		c0,1.7,0,3.4,0,5c0.8,0,1.6,0,2.5,0C40.5,33.2,40.5,31.5,40.5,29.8z"/>
	<path class="st0" d="M40.6,40c-0.9,0-1.7,0-2.5,0c0,0.2,0,0.4,0,0.5c0,1,0,1.9,0,2.8c0,0.5-0.4,0.8-0.8,0.8c-0.4,0-0.9-0.3-0.9-0.7
		c0-1.5,0-3,0-4.4c0-0.5,0.4-0.7,0.8-0.7c1.4,0,2.8,0,4.2,0c0.5,0,0.8,0.3,0.8,0.8c0,1.1,0,2.3,0,3.4c0,0.5-0.4,0.8-0.8,0.9
		c-0.5,0-0.8-0.3-0.9-0.9C40.5,41.6,40.6,40.8,40.6,40z"/>
	<path class="st0" d="M17.7,43.4c0,0.5,0,1.1,0,1.6c0,0.5-0.3,0.9-0.8,0.9c-0.5,0-0.9-0.4-0.9-0.9c0-1.1,0-2.1,0-3.2
		c0-0.6,0.4-0.9,0.9-0.9c0.5,0,0.8,0.4,0.8,0.9C17.7,42.3,17.7,42.8,17.7,43.4z"/>
	<path class="st0" d="M29.6,43.3c0-0.5,0-1,0-1.5c0-0.6,0.3-0.9,0.8-1c0.5,0,0.9,0.4,0.9,0.9c0,1.1,0,2.1,0,3.2
		c0,0.6-0.4,0.9-0.9,0.9c-0.5,0-0.8-0.4-0.8-1C29.6,44.4,29.6,43.8,29.6,43.3z"/>
	<path class="st0" d="M11,42.5c0,1.1,0,2.1,0,3.2c0,0.7-0.3,1-1,1c-1.3,0-2.6,0-3.9,0c-0.7,0-1-0.3-1-1c0-2.2,0-4.3,0-6.5
		c0-0.7,0.3-1,1-1c1.3,0,2.6,0,4,0c0.7,0,1,0.3,1,1C11,40.3,11,41.4,11,42.5z M6.8,45c0.9,0,1.7,0,2.5,0c0-1.7,0-3.4,0-5
		c-0.8,0-1.6,0-2.5,0C6.8,41.6,6.8,43.3,6.8,45z"/>
	<path class="st0" d="M5.1,22.2c0-1.1,0-2.1,0-3.2c0-0.7,0.3-1,1-1c1.3,0,2.6,0,3.9,0c0.7,0,1,0.3,1,1c0,2.2,0,4.4,0,6.5
		c0,0.6-0.3,0.9-1,0.9c-1.3,0-2.7,0-4,0c-0.6,0-0.9-0.3-1-0.9C5.1,24.4,5.1,23.3,5.1,22.2z M6.8,19.7c0,1.7,0,3.3,0,5
		c0.8,0,1.7,0,2.5,0c0-1.7,0-3.4,0-5C8.4,19.7,7.6,19.7,6.8,19.7z"/>
	<path class="st0" d="M11,32.3c0,1.1,0,2.1,0,3.2c0,0.7-0.3,1-1,1c-1.3,0-2.6,0-3.9,0c-0.7,0-1-0.3-1-1c0-2.1,0-4.3,0-6.4
		c0-0.7,0.3-1,1-1c1.3,0,2.6,0,3.9,0c0.7,0,1,0.3,1,1C11,30.2,11,31.3,11,32.3z M6.8,29.8c0,1.7,0,3.4,0,5c0.9,0,1.7,0,2.5,0
		c0-1.7,0-3.3,0-5C8.4,29.8,7.6,29.8,6.8,29.8z"/>
</g>
</svg>
