<?xml version="1.0" encoding="utf-8"?>
<!-- Generator: Adobe Illustrator 23.0.3, SVG Export Plug-In . SVG Version: 6.00 Build 0)  -->
<svg version="1.1" id="Layer_1" xmlns="http://www.w3.org/2000/svg" xmlns:xlink="http://www.w3.org/1999/xlink" x="0px" y="0px"
	 viewBox="0 0 49 52" style="enable-background:new 0 0 49 52;" xml:space="preserve">
<style type="text/css">
	.st0{fill:#255DBE;}
</style>
<g>
	<path class="st0" d="M26.2,37.2c0.4-1.6,0.8-3.3,1.1-4.9c0.7-3.9,0.6-7.8,0.6-11.8c0-1.8,0-1.8,1.7-1.8c3.8,0,7.7,0,11.5,0
		c1.3,0,1.4,0.1,1.4,1.4c0,1.7,0,3.5,0,5.2c-0.1,5.3,1,10.4,3,15.3c1.1,2.8,2.2,5.5,3.3,8.3c0.5,1.2,0.2,1.6-1.1,1.6
		c-15.5,0-30.9,0-46.4,0c-0.2,0-0.4,0-0.7,0c-0.5-0.1-0.8-0.5-0.6-1c0.1-0.2,0.2-0.5,0.3-0.7c1.6-3.8,3.2-7.6,4.7-11.4
		c2.1-5,3.1-10.3,3.1-15.7c0-1.7,0-3.4,0-5c0-1.1,0.1-1.2,1.2-1.2c4,0,8.1,0,12.1,0c1.1,0,1.2,0.2,1.3,1.3c0,2.1,0,4.2,0,6.3
		c0.1,4.6,1,9.1,2.7,13.4c0.1,0.3,0.3,0.5,0.4,0.7C26,37.2,26.1,37.2,26.2,37.2z M9.7,20.2c0,0.6,0,1,0,1.5c0,4.5-0.6,9-2.2,13.3
		c-1,2.7-2.1,5.3-3.1,7.9C4.3,43.3,4.1,43.6,4,44c7.7,0,15.3,0,23,0c-1.5-3.9-3.3-7.6-4.3-11.5c-1-4-1.4-8.1-1.4-12.3
		C17.4,20.2,13.6,20.2,9.7,20.2z M45.2,44c-1.3-3.3-2.6-6.6-3.3-10c-0.7-3.5-0.9-7-0.9-10.5c-1.6-0.2-10.8-0.2-11.6,0.1
		c0,0.1,0,0.3,0,0.4c0.1,5.1-0.6,10.2-2.3,15c-0.1,0.3-0.1,0.7,0,0.9c0.5,1.3,1.1,2.7,1.7,4C34.2,44,39.6,44,45.2,44z M3.4,45.6
		C2.6,47,2.1,48.2,2.1,49c8.9,0,17.9,0,27,0c-0.5-1.2-1-2.3-1.4-3.3C19.5,45.6,11.4,45.6,3.4,45.6z M30.7,49c5.5,0,10.9,0,16.4,0
		c-0.5-1.2-0.9-2.3-1.4-3.3c-5.5,0-10.9,0-16.5,0C29.8,46.8,30.3,47.9,30.7,49z M21.2,17c-3.8,0-7.6,0-11.4,0c0,0.6,0,1.1,0,1.6
		c1.6,0.2,10.7,0.2,11.5-0.1c0-0.3,0.1-0.5,0.1-0.8C21.3,17.4,21.3,17.2,21.2,17z M40.9,20.2c-3.9,0-7.7,0-11.5,0c0,0.6,0,1.1,0,1.6
		c1.6,0.2,10.7,0.2,11.5-0.1C40.9,21.3,40.9,20.8,40.9,20.2z"/>
	<path class="st0" d="M14.8,13.8c-2.8,0-4.7-2.3-4.3-4.9c0.4-2.5,1.6-4.2,4-5c2.4-0.8,4.8-1.6,7.2-2.3c0.8-0.3,1.3,0.2,1.1,1
		c-0.7,2.7-1.4,5.3-2.6,7.9C19,12.8,17.1,13.6,14.8,13.8z M21,3.3c-2.3,0.6-4.4,1.3-6.4,2.1c-1.7,0.7-2.4,2-2.6,3.7
		c-0.1,0.5,0,1.1,0.4,1.7c0.5-0.5,0.9-0.9,1.4-1.4c0.4-0.3,0.6-0.7,0.4-1.2C14.1,7.8,14.1,7.4,14,7c0-0.5,0.1-0.8,0.6-0.9
		C15,6,15.3,6.2,15.4,6.6c0.1,0.2,0.2,0.5,0.3,0.8c0.4-0.3,0.6-0.6,0.9-0.9c0.3-0.3,0.5-0.6,0.8-0.7c0.3-0.1,0.7-0.2,1,0
		c0.4,0.2,0.4,0.7,0.1,1.1c-0.3,0.4-0.7,0.7-1.1,1.1c-0.2,0.2-0.3,0.4-0.5,0.7c0.3,0.1,0.4,0.2,0.6,0.2c0.4,0.1,0.7,0.4,0.6,0.9
		c-0.1,0.5-0.5,0.6-1,0.5c-0.4-0.1-0.9-0.1-1.3-0.2c-0.2,0-0.4,0-0.5,0.1c-0.6,0.6-1.2,1.1-1.8,1.8c2,0.7,4.2,0,5-1.6
		C19.7,8.1,20.3,5.8,21,3.3z"/>
	<path class="st0" d="M31,12.4c0.2-2.1,1.1-4,3.3-5c2.5-1.2,5.2-1.9,7.9-2.6c0.8-0.2,1.2,0.2,1,1c-0.7,2.8-1.5,5.6-2.8,8.2
		c-1.1,2.1-3.8,3.4-6.1,2.9C32.2,16.5,31,14.9,31,12.4z M41.5,6.5c-2.7,0.7-5.2,1.3-7.4,2.7c-1.4,0.9-1.9,3.1-1.2,4.8
		c0.5-0.5,0.9-0.9,1.3-1.3c0.4-0.4,0.6-0.8,0.5-1.4c-0.1-0.4-0.2-0.8-0.2-1.2c0-0.3,0.3-0.7,0.6-0.8c0.4-0.2,0.7,0.1,0.8,0.5
		c0.1,0.2,0.2,0.5,0.3,0.9c0.6-0.6,1-1.1,1.5-1.5C38.3,8.8,38.7,8.7,39,9c0.3,0.3,0.3,0.8-0.2,1.2c-0.5,0.5-1,1-1.5,1.5
		c0.4,0.1,0.6,0.2,0.8,0.3c0.4,0.1,0.5,0.5,0.5,0.9c-0.1,0.4-0.4,0.6-0.8,0.6c-0.5,0-0.9-0.1-1.4-0.2c-0.2,0-0.5,0-0.6,0.1
		c-0.6,0.6-1.3,1-1.7,1.8c1.9,0.6,3.9,0,4.7-1.4C40.1,11.6,40.8,9.2,41.5,6.5z"/>
	<path class="st0" d="M18.6,22.8c0.7,0,0.9,0.2,1,0.9c0.1,1.4,0.2,2.8,0.4,4.1c0.4,3.4,1.3,6.7,2.6,9.9c0.1,0.3,0.3,0.7,0.3,1
		c0,0.3-0.2,0.7-0.4,0.7c-0.2,0.1-0.6-0.1-0.8-0.3c-0.1-0.1-0.1-0.2-0.2-0.4c-2-4.8-3.1-9.8-3.3-14.9c0-0.2,0-0.5,0-0.6
		C18.2,23.1,18.5,22.9,18.6,22.8z"/>
	<path class="st0" d="M37.8,27.9c0-0.3,0-0.7,0-1c0-0.5,0.2-0.8,0.7-0.8c0.5,0,0.7,0.3,0.7,0.8c0.1,0.9,0.1,1.7,0.2,2.6
		c0.3,4,1.3,7.8,2.7,11.5c0.4,1,0.3,1.4-0.3,1.6c-0.5,0.1-0.8-0.1-1.1-1.1c-1.4-3.7-2.4-7.5-2.7-11.4C37.9,29.4,37.8,28.6,37.8,27.9
		C37.7,27.9,37.7,27.9,37.8,27.9z"/>
</g>
</svg>
