<?xml version="1.0" encoding="utf-8"?>
<!-- Generator: Adobe Illustrator 23.0.3, SVG Export Plug-In . SVG Version: 6.00 Build 0)  -->
<svg version="1.1" id="Layer_1" xmlns="http://www.w3.org/2000/svg" xmlns:xlink="http://www.w3.org/1999/xlink" x="0px" y="0px"
	 viewBox="0 0 49 52" style="enable-background:new 0 0 49 52;" xml:space="preserve">
<style type="text/css">
	.st0{fill:#255DBE;}
</style>
<g>
	<path class="st0" d="M37.1,0c0.4,0.1,0.8,0.2,1.1,0.3c2.6,0.6,4.1,2.3,4.9,4.8c0.5,1.5,0.6,3,0.6,4.5c0,9.2,0,18.4,0,27.6
		c0,1.7-1.1,2.8-2.8,2.8c-0.4,0-0.9,0-1.3,0c-0.1,0-0.3,0-0.5,0c3.3,4,6.6,8,10,12c-0.3,0-0.4,0-0.6,0c-2.9,0-5.9,0-8.8,0
		c-0.4,0-0.7-0.1-0.8-0.5c-0.3-0.8-0.8-0.9-1.6-0.9c-8.6,0-17.3,0-25.9,0c-0.5,0-0.8,0.1-0.9,0.6C10.1,51.8,9.7,52,9,52
		c-2.8,0-5.5,0-8.3,0c-0.2,0-0.4,0-0.7,0c3.4-4,6.7-8,10.1-12.1c-0.7,0-1.3,0-1.8,0c-1.9,0-2.9-1.1-2.9-2.9c0-9.2,0-18.3,0-27.5
		c0-2,0.2-3.9,1.1-5.8c1.1-2.1,2.8-3.3,5.2-3.7c0.1,0,0.2-0.1,0.3-0.1C20.3,0,28.7,0,37.1,0z M24.5,37.9c5.4,0,10.8,0,16.2,0
		c0.8,0,0.9-0.1,0.9-0.9c0-9.2,0-18.3,0-27.5c0-1-0.1-2-0.2-3C41.1,5,40.4,3.7,39,2.8C37.9,2.2,36.7,2,35.5,2c-3.7,0-7.4,0-11.1,0
		C20.7,2,17,2,13.2,2C11,2,9,2.8,8.1,5C7.7,6,7.5,7.2,7.5,8.3c-0.1,9.6,0,19.1-0.1,28.7c0,0.8,0.1,0.9,0.9,0.9
		C13.7,37.9,19.1,37.9,24.5,37.9z M37,48.5c-0.3-0.4-0.5-0.8-0.7-1.2c-0.2-0.4-0.5-0.6-1-0.6c-3.6,0-7.3,0-10.9,0s-7.3,0-10.9,0
		c-0.2,0-0.4,0-0.5,0.2c-0.3,0.5-0.6,1-1,1.5C20.4,48.5,28.6,48.5,37,48.5z M44.6,49.9c-2.8-3.3-5.4-6.5-8.1-9.8
		c-0.1-0.1-0.2-0.2-0.3-0.2c-0.8,0-1.6,0-2.4,0c0,0.1,0,0.1,0,0.1c2.1,3.2,4.2,6.4,6.2,9.6c0.1,0.1,0.2,0.2,0.4,0.2
		C41.8,50,43.2,49.9,44.6,49.9z M15.1,40c-0.7,0-1.4,0-2,0c-0.3,0-0.5,0.1-0.7,0.3c-2.6,3.1-5.1,6.1-7.7,9.2
		c-0.1,0.1-0.2,0.2-0.3,0.4c1.3,0,2.6,0,3.8,0c0.4,0,0.5-0.1,0.7-0.4c1.2-1.9,2.5-3.8,3.7-5.7C13.5,42.6,14.3,41.3,15.1,40z
		 M14.3,44.7c6.8,0,13.6,0,20.4,0c-0.3-0.5-0.5-1-0.9-1.4c-0.1-0.2-0.4-0.3-0.5-0.3c-1,0-1.9,0-2.9,0c-4.9,0-9.8,0-14.6,0
		c-0.2,0-0.4,0.1-0.5,0.2C14.9,43.7,14.6,44.2,14.3,44.7z M32.3,41c-0.4-1-0.4-1-1.4-1c-4.3,0-8.6,0-12.9,0c-0.9,0-1.1,0.1-1.3,1
		C21.9,41,27.1,41,32.3,41z"/>
	<path class="st0" d="M24.4,22c-4.4,0-8.8,0-13.3,0C9.8,22,9,21.2,9,19.9c0-1.7,0-3.5,0-5.2c0-1.6,0.3-3.2,1.2-4.6
		C11.3,8.3,13,7.6,15,7.5c4.3,0,8.5,0,12.8,0c1.9,0,3.9,0,5.8,0c1.6,0,3.1,0.4,4.3,1.5c1.1,1,1.7,2.3,1.8,3.7c0.2,1.5,0.2,3,0.2,4.5
		c0,0.9,0,1.8,0,2.7c0,1.2-0.9,2.1-2.1,2.1C33.4,22,28.9,22,24.4,22z M38,20c0-0.6,0-1.1,0-1.7c-0.1-1.8,0-3.6-0.2-5.3
		c-0.2-1.8-1.3-3-3-3.3c-0.6-0.1-1.2-0.1-1.8-0.1c-4.2,0-8.4,0-12.7,0c-1.9,0-3.8,0-5.8,0.1c-1.5,0.1-2.6,0.9-3.1,2.3
		c-0.2,0.6-0.3,1.1-0.4,1.7c-0.1,2-0.1,4-0.1,5.9c0,0.1,0,0.2,0,0.3C20,20,29,20,38,20z"/>
	<path class="st0" d="M32.8,30c0-2,1.6-3.6,3.7-3.6c2,0,3.6,1.6,3.6,3.6c0,2.1-1.6,3.6-3.8,3.6C34.3,33.6,32.7,32,32.8,30z
		 M36.4,31.6c0.8,0,1.6-0.7,1.6-1.5c0-0.8-0.7-1.6-1.6-1.6c-0.8,0-1.6,0.7-1.6,1.5C34.8,30.8,35.5,31.6,36.4,31.6z"/>
	<path class="st0" d="M16.2,30c0,2-1.6,3.6-3.7,3.6C10.6,33.6,9,32,9,30c0-2,1.6-3.6,3.7-3.6C14.7,26.4,16.3,28,16.2,30z M14.2,30
		c0-0.9-0.7-1.6-1.6-1.6c-0.8,0-1.6,0.7-1.6,1.6c0,0.8,0.7,1.6,1.6,1.6C13.5,31.6,14.2,30.9,14.2,30z"/>
	<path class="st0" d="M31.3,30.8c0,0.7,0,1.3,0,2c-4.6,0-9.1,0-13.6,0c0-0.7,0-1.3,0-2C22.2,30.8,26.7,30.8,31.3,30.8z"/>
	<path class="st0" d="M31.3,27.2c0,0.7,0,1.3,0,2c-4.5,0-9,0-13.6,0c0-0.7,0-1.3,0-2C22.2,27.2,26.8,27.2,31.3,27.2z"/>
	<path class="st0" d="M24.6,3.8c2,0,4,0,6,0c0.7,0,1.1,0.3,1.1,0.8c0.1,0.6-0.4,1-1.1,1c-1.8,0-3.5,0-5.3,0c-2.3,0-4.6,0-6.8,0
		c-0.7,0-1.1-0.3-1.1-0.8c-0.1-0.7,0.4-1,1.1-1c1.9,0,3.7,0,5.6,0C24.2,3.8,24.4,3.8,24.6,3.8z"/>
</g>
</svg>
