<?xml version="1.0" encoding="utf-8"?>
<!-- Generator: Adobe Illustrator 23.0.3, SVG Export Plug-In . SVG Version: 6.00 Build 0)  -->
<svg version="1.1" id="Layer_1" xmlns="http://www.w3.org/2000/svg" xmlns:xlink="http://www.w3.org/1999/xlink" x="0px" y="0px"
	 viewBox="0 0 49 52" style="enable-background:new 0 0 49 52;" xml:space="preserve">
<style type="text/css">
	.st0{fill:#255DBE;}
</style>
<g>
	<path class="st0" d="M49,15.8c-0.1,0.2-0.1,0.4-0.2,0.7c-0.3,1-1,1.7-1.8,2.2c-1.2,0.8-2.6,1.1-3.9,1.5c-0.1,0-0.2,0-0.2,0.1
		c-0.4,0-0.5,0.2-0.4,0.6c2.1-0.3,4.3-0.5,6.1-1.9c0.3,0.7,0.3,1.4,0.2,2.1c-0.3,1.8-1.4,2.8-3.3,2.9c-1.2,0-2.5,0-3.8-0.1
		c0,0.1-0.1,0.2-0.2,0.5c2.1,0.3,4.1,0.8,6.1,0.1c0.4,1.5-0.8,3.2-2.4,3.2c-1.7,0.1-3.3-0.4-4.7-1.2c-0.1-0.1-0.2-0.1-0.4-0.2
		c-0.1,0.1-0.3,0.2-0.4,0.4c1.7,1.1,3.4,2.1,5.5,2.2c-0.2,1.2-0.8,1.8-2,2c-1,0.2-2,0.1-2.8-0.5c-0.8-0.6-1.5-1.3-2.2-1.9
		c-0.1-0.1-0.2-0.2-0.3-0.4c-0.1,0.1-0.3,0.1-0.4,0.2c0.9,1.4,2,2.7,3.5,3.5c-0.1,0.7-0.7,1.1-1.5,1.1c-1,0-1.8-0.3-2.5-1
		c-0.8-0.7-1.3-1.7-1.7-2.7c-0.1-0.1-0.1-0.3-0.1-0.4c-0.4,0-0.5,0.2-0.4,0.5c0.2,0.7,0.4,1.4,0.7,2.1c0.2,0.6,0.7,1.1,1,1.7
		c-0.1,0.1-0.3,0.2-0.5,0.3c-1.1,0.4-2.2-0.1-2.6-1.2c-0.2-0.6-0.3-1.2-0.4-1.8c0-0.1,0-0.3-0.1-0.4c-0.2,0.2-0.3,0.4-0.6,0.7
		c0-2,0-4,0-5.9c0.4,0,0.9-0.1,1.3-0.1c1.6-0.3,2.5-1.5,2.4-3.2c-0.1-0.8-0.2-1.6-0.4-2.3c-0.1-0.4,0-0.7,0.3-1c0.3-0.3,0.7-0.7,1-1
		c0.4-0.4,0.9-0.8,1.3-1.2c0.8-0.8,1.4-1.6,1.7-2.8c0.2,0.2,0.5,0.4,0.7,0.6c1.6-2.4,3.3-4.7,3.9-7.6c0.5,0.2,0.9,0.5,1.3,0.9
		c0.7,0.8,0.9,1.8,1,2.8c0.2,1.6-0.4,3-1.5,4.2c-0.9,0.9-1.9,1.7-2.9,2.3c-0.5,0.3-0.5,0.3-0.3,1c2.1-1.3,4.3-2.6,5.8-4.7
		c0.5,0.4,0.7,0.9,0.8,1.4c0,0.1,0.1,0.2,0.1,0.3C49,14.9,49,15.3,49,15.8z"/>
	<path class="st0" d="M0,14.4c0.2-0.4,0.3-0.8,0.5-1.3c0.1-0.2,0.3-0.3,0.4-0.5c1.5,2.1,3.7,3.3,5.8,4.7C7,16.7,7,16.7,6.5,16.4
		c-1.2-0.8-2.3-1.6-3.3-2.7c-1.6-1.9-1.3-4.4-0.5-6c0.4-0.7,1-1.2,1.7-1.5c0.2,1.5,0.8,2.7,1.5,4c0.7,1.2,1.5,2.4,2.3,3.7
		c0.3-0.2,0.5-0.4,0.7-0.6C9,13.4,9,13.5,9.1,13.7c0.4,1.1,1.2,1.9,2,2.7c0.5,0.4,0.9,0.9,1.4,1.3c0.7,0.5,0.9,1.2,0.7,2
		c-0.2,0.8-0.3,1.5-0.3,2.3c0,1.6,1,2.6,2.6,2.7c0.3,0,0.7,0.1,1.1,0.1c0,2,0,3.9,0,6c-0.2-0.2-0.4-0.5-0.6-0.7c0,0.4,0,0.8-0.1,1.1
		c-0.1,0.5-0.2,1-0.5,1.5c-0.5,0.9-1.6,1.2-2.5,0.8c-0.2-0.1-0.4-0.2-0.6-0.4c1.2-1,1.5-2.4,1.8-3.7c0.1-0.4,0.1-0.4-0.4-0.5
		c-0.3,0.6-0.5,1.1-0.8,1.7c-0.6,1-1.4,1.9-2.6,2.2c-0.4,0.1-0.8,0.1-1.2,0.1c-0.6-0.1-1-0.5-1.2-1c0.7-0.6,1.4-1.1,1.9-1.7
		c0.6-0.6,1.1-1.3,1.6-2c-0.2-0.1-0.3-0.2-0.5-0.3c-0.5,0.6-1.1,1.1-1.6,1.7c-0.9,0.8-2,1.4-3.3,1.2c-1.3-0.1-2.1-0.8-2.4-2.1
		c2-0.1,3.8-1,5.4-2.2c-0.1-0.1-0.1-0.1-0.2-0.2c-0.1-0.1-0.1-0.1-0.2-0.2c-0.1,0.1-0.3,0.1-0.4,0.2c-1.3,0.7-2.6,1.2-4.1,1.2
		c-2,0.1-3.2-1.3-3-3.3c1,0.4,2,0.4,3.1,0.3c1-0.1,2-0.2,3.1-0.4c-0.1-0.2-0.2-0.4-0.3-0.6c-0.8,0.1-1.5,0.2-2.3,0.2
		c-0.8,0-1.6,0-2.3-0.2c-1.6-0.3-2.4-1.4-2.5-2.9c0-0.6-0.1-1.3,0.2-1.9c1.8,1.4,4,1.6,6.1,1.9c0.1-0.4,0-0.5-0.4-0.6
		c-1.2-0.3-2.3-0.7-3.5-1.1c-1-0.4-1.9-1.1-2.3-2.2c-0.2-0.3-0.2-0.7-0.4-1.1C0,15.3,0,14.9,0,14.4z"/>
	<path class="st0" d="M24.6,0.3c0.9,0.5,1.1,1,0.8,1.9c-0.2,0.6-0.5,1.1-0.8,1.7c-0.5-0.7-0.9-1.3-1-2.1c-0.1-0.7,0.2-1.2,0.9-1.5
		C24.5,0.3,24.5,0.3,24.6,0.3z"/>
	<path class="st0" d="M31.7,21.1c0,0.2,0,0.3,0,0.4c0,4.6,0,9.2,0,13.8c0,0.1,0,0.3,0,0.4c0,1.3-0.6,1.9-1.9,2
		c-0.8,0-1.5,0.1-2.3,0.2c-1.2,0.1-1.9,0.5-3,1.2c-0.8-0.6-1.6-1-2.6-1.1c-0.7-0.1-1.4-0.1-2.1-0.2c-0.3,0-0.7,0-1-0.1
		c-0.9-0.2-1.4-0.7-1.5-1.6c0-0.2,0-0.3,0-0.5c0-4.7,0-9.4,0-14c0-0.1,0-0.2,0-0.3C22.1,21.1,26.9,21.1,31.7,21.1z M25.3,24.9
		c0.1-0.1,0.3-0.2,0.4-0.2c0.4-0.3,0.5-0.8,0.4-1.3c-0.1-0.5-0.4-0.8-0.9-0.9c-0.5-0.1-0.9,0.1-1.2,0.5c-0.4,0.5-0.3,1.1-0.2,1.5
		c0.6,2,1.4,3.9,2.1,5.9c0,0.1,0.1,0.2,0.2,0.2c0.1,0.1,0.3,0.2,0.3,0.3c0.3,0.4,0.5,0.9,0.7,1.4c0.2,0.5,0.4,1,0.6,1.6
		c-0.2,0-0.3,0.1-0.5,0.1c0,0.2,0.1,0.4,0.1,0.6c0,0-0.1,0-0.1,0c-0.1-0.1-0.1-0.3-0.2-0.4c-1.3-3.5-2.5-6.9-3.8-10.4
		c-0.1-0.3-0.3-0.6-0.2-1c0-0.1,0-0.2-0.1-0.2c-0.2-0.3-0.4-0.5-0.6-0.8c0,0-0.1,0-0.2,0c0,0.1,0,0.1,0,0.2c0.3,0.7,0.3,1.5,0.2,2.3
		c0,0.4,0.2,0.7,0.6,0.8c0.2,0,0.3,0.2,0.3,0.4c0,0.8,0,1.5,0,2.3c-0.2,0-0.4,0-0.5,0c-0.8,0-1.5,0.6-1.5,1.4c0,0.2,0.1,0.5,0.1,0.7
		c0.1,0.7,0.4,1.4-0.3,1.9c-0.1,0-0.1,0.2-0.1,0.2c0,0.4-0.1,0.8-0.1,1.2c0,0.2-0.1,0.4-0.1,0.7c0,0.1,0.1,0.3,0.2,0.3
		c0.2,0,0.4,0,0.6,0c0,0,0.1-0.1,0.1-0.1c-0.5-0.5-0.4-1.1-0.2-1.7c0-0.1,0.2-0.3,0.3-0.4c0.6-0.3,1.2-0.7,1.4-1.4
		c0.8,0.1,1.5,0.1,2.2,0.2c0.1,0,0.3,0.2,0.3,0.3c0.2,0.6,0.4,1.1,0.6,1.7c0.1,0.4,0.3,0.7,0.4,1.1c-0.2-0.1-0.3-0.1-0.4-0.2
		c-0.1-0.3-0.2-0.5-0.4-0.8c-0.1-0.3-0.3-0.5-0.7-0.4c0.1,0.1,0.1,0.1,0.2,0.2c-0.1,0-0.2,0.1-0.3,0.1c0.4,0.3,0.4,0.4,0.2,0.7
		c-0.6-0.1-1.2-0.2-1.8-0.1c-0.8,0.1-1.5,0.8-1.5,1.6c0,0.8,0.4,1.5,1.2,1.7c1.1,0.3,1.9-0.4,1.8-1.5c-0.1-0.3-0.2-0.6-0.6-0.5
		c-0.2,0-0.5,0.1-0.6,0.2c-0.1,0.1,0,0.4,0.1,0.6c-0.2,0-0.3,0-0.4-0.2c-0.2-0.4,0.2-0.9,0.6-0.9c0.7-0.1,1.2,0.4,1.1,1.2
		c0,0.5-0.3,0.9-0.2,1.4c0,0.1-0.2,0.3-0.3,0.4c0,0.1-0.1,0.1-0.2,0.2c0,0,0,0.1,0,0.1c0.8-0.1,1.6-0.2,2.4-0.3c0,0,0.1,0.1,0.1,0.3
		c0.6-0.6,0.8-1.3,0.9-2.1c0.1,0.2,0.2,0.3,0.4,0.4c0.1-0.2,0.2-0.4,0.3-0.6c0.1,0.1,0.2,0.2,0.3,0.3c0.1-0.2,0.2-0.3,0.2-0.5
		c0.1,0,0.1,0.1,0.3,0.1c0.3-0.4,0.6-0.7,0.9-1.1c0.1-0.2,0.2-0.5,0.2-0.7c0-0.2-0.3-0.3-0.5-0.5c0,0,0,0.1-0.1,0.1
		c0,0.1,0.1,0.2,0.2,0.4c-0.2,0-0.3,0-0.4,0c0.1,0.1,0.1,0.2,0.2,0.4c-0.3,0.1-0.5,0.2-0.7,0.3c0,0-0.1-0.1-0.1-0.1
		c0.1-0.3,0.2-0.7,0.3-1c-0.4-0.2-0.6-0.1-0.6,0.3c0,0.5-0.2,0.8-0.8,0.9c0-0.1-0.1-0.3-0.1-0.4c-0.1-0.5-0.2-1-0.3-1.6
		c-0.2-0.8-0.3-1.6,0-2.4c0.2-0.6,0.2-1.2,0-1.8c-0.1-0.3-0.1-0.6-0.1-0.9c0-0.1,0.2-0.3,0.2-0.4c0.1,0,0.1,0,0.2,0c0,0.3,0,0.7,0,1
		c0,0.1,0.1,0.3,0.2,0.4c0.1,0,0.3,0,0.4-0.1c0.1-0.1,0.1-0.2,0.2-0.3c0.1-0.3,0.2-0.6,0.4-0.9c0.3-0.7,0-1.4-0.8-1.6
		c-1.4-0.4-2.8,0.6-2.9,2.1c0,0.1,0,0.3-0.1,0.4c0,0-0.1,0-0.1,0c0-0.1-0.1-0.2-0.1-0.3c0.1-0.4,0.1-0.8,0.3-1.1
		C25.5,25.5,25.5,25.2,25.3,24.9z M22.2,24.3c-0.8,0.3-1.5,0.8-1.9,1.5c0.2,0.2,0.3,0.3,0.4,0.5c0.1,0.1,0.2,0.2,0.4,0.3
		c0.6,0.2,1.1,0.3,1.7,0.5c0.1,0,0.1,0,0.3,0c0-0.6,0-1.1-0.1-1.7c0-0.1-0.1-0.2-0.3-0.2C22.5,25,22.2,24.8,22.2,24.3z M19.5,31.1
		c1-0.2,1.4-1,1-1.9c-0.1-0.1-0.1-0.2-0.1-0.4c-0.1-0.5,0.1-0.8,0.7-0.7c0.1,0,0.3,0,0.5-0.1c-0.4-0.6-1-0.9-1.6-0.7
		c-0.5,0.1-0.8,0.5-0.8,1c0,0.4,0.1,0.7,0.4,1c0.3,0.3,0.4,0.7,0.2,1.2C19.7,30.7,19.6,30.8,19.5,31.1z M21.6,34.8
		c-0.2,0-0.4,0.1-0.6,0.1c-0.3,0.1-0.6,0.1-0.9-0.1c-0.3-0.3,0-0.6,0.1-0.8c0.2-0.6-0.1-1.2-0.6-1.4c0.4,0.7,0.3,0.9-0.2,1.5
		c-0.6,0.7-0.3,1.7,0.5,1.9c0.7,0.2,1.4,0.1,2.1-0.1C21.8,35.5,21.7,35.1,21.6,34.8z M28.8,29.4c0.1,0.1,0.2,0.3,0.4,0.5
		c0.2,0.3,0.4,0.5,0,0.8c0,0,0,0.2,0,0.3c0.1,0.1,0.3,0.2,0.6,0.3c-0.1-0.4-0.1-0.7-0.1-1c0-0.9-0.9-1.6-1.7-1.4
		c-0.1,0.4-0.2,0.8-0.3,1.2c0,0,0.1,0,0.1,0.1C28,29.9,28.3,29.7,28.8,29.4z M24,30.9c-0.2,0-0.3,0-0.4-0.1c-0.3-0.1-0.5,0-0.6,0.3
		c-0.1,0.2-0.2,0.5-0.3,0.7c-0.4,0.4-0.2,0.8-0.1,1.2c0.3,0,0.4-0.2,0.3-0.4c-0.1-0.3,0-0.5,0.3-0.7C23.6,31.7,24,31.4,24,30.9z"/>
	<path class="st0" d="M23.4,42.8c-0.3-0.2-0.4,0-0.4,0.2c-0.3,1.5-0.7,3-1.3,4.3c-0.4,0.8-0.8,1.6-1.5,2.2c-1.3,1.3-3.8,0.5-4.1-1.1
		c2.5-1.3,3.8-3.6,5-6c-0.3-0.2-0.5-0.1-0.6,0.2c-0.7,1.4-1.6,2.7-2.8,3.7c-1,0.9-2.2,1.1-3.5,0.6c-0.7-0.3-1.2-0.8-1.3-1.6
		c2.4-0.6,4.1-2.1,5.8-3.7c-0.2-0.2-0.4-0.3-0.6-0.5c1.1-0.6,2.1-1.4,2.3-2.8c1.6,0,3.1,0.3,4.2,1.6c0.5-0.6,1.2-1.1,1.9-1.2
		c0.8-0.2,1.5-0.3,2.3-0.4c0.2,1.3,0.6,1.8,2.3,2.9c-0.2,0.2-0.4,0.3-0.6,0.5c1.7,1.7,3.4,3.1,5.8,3.7c0,0.7-0.4,1.2-1,1.5
		c-1.2,0.6-2.3,0.6-3.4-0.2c-0.7-0.5-1.3-1.2-1.9-1.9c-0.5-0.7-0.9-1.4-1.3-2.1c-0.2-0.3-0.3-0.3-0.6-0.1c1.1,2.4,2.4,4.7,5,6
		c-0.2,0.9-1.1,1.5-2.1,1.7c-0.9,0.1-1.7-0.2-2.3-0.9c-0.8-0.9-1.3-2-1.7-3.1c-0.3-1-0.6-2.1-0.9-3.2c-0.1-0.4-0.1-0.4-0.4-0.2
		c0.1,1.6,0.4,3.2,0.8,4.8c0.2,0.7,0.3,1.4,0.3,2.1c0.1,0.9-0.3,1.3-1.1,1.7c-0.3,0.1-0.7,0.3-1,0.4c-0.1,0-0.2,0-0.3,0
		c-0.3-0.1-0.7-0.3-1-0.4c-0.8-0.3-1.2-0.8-1.1-1.6c0.1-0.8,0.2-1.7,0.4-2.5C23,45.7,23.3,44.3,23.4,42.8z"/>
	<path class="st0" d="M19.2,20.3c-0.1-0.6-0.2-1.1-0.3-1.6c-0.1-0.2-0.1-0.5-0.3-0.7c-0.6-1.1-1.8-1.3-2.7-0.5
		c-0.1,0.1-0.2,0.2-0.3,0.3c0-0.3,0-0.6,0-0.9c-1,0.3-2,0.8-2.7-0.3c1,0.5,1.9,0,2.7-0.5c0.3-0.2,0.7-0.3,1-0.5
		c-0.8-0.7-2-0.6-3,0.3c-0.6-0.6-0.8-1.4-0.6-2.2c0.3-1,1.2-1,2-1.1c0.1-0.8,0.2-0.9,1.1-0.9c1.5,0,3,0,4.5,0c0.9,0,1.7-0.1,2.5-0.8
		c0.1,1.3-0.3,2.2-1.5,2.5c0.4,0.3,0.6,0.4,1.5,0.2c0,0.8-0.6,1.1-1.3,1.4c1.8,1.1,2.4,2.9,2.8,4.8c0.3-1.9,1-3.7,2.7-4.8
		c-0.6-0.3-1.3-0.5-1.3-1.4c0.5,0.1,1,0.2,1.6-0.2c-1.3-0.3-1.7-1.3-1.6-2.4c0,0,0.1,0,0.1,0c0.6,0.6,1.4,0.7,2.2,0.7
		c1.5,0,3,0,4.5,0c0.1,0,0.3,0,0.4,0c0.7,0,0.9,0.2,0.9,0.9c0.8,0.1,1.7,0.1,2,1.1c0.2,0.8,0,1.6-0.6,2.2c-0.4-0.5-0.9-0.8-1.6-0.8
		c-0.5,0-1,0.2-1.4,0.5c0.5,0.2,0.9,0.4,1.4,0.7c0.7,0.4,1.5,0.6,2.3,0.2c-0.1,0.5-0.6,0.8-1.2,0.7c-0.5,0-1-0.2-1.5-0.3
		c0,0.3,0,0.5,0,0.8c-0.2-0.1-0.3-0.2-0.3-0.3c-0.9-0.8-2.2-0.6-2.7,0.6c-0.3,0.6-0.3,1.2-0.5,1.9c0,0.1,0,0.3,0,0.4
		C26.3,20.3,22.7,20.3,19.2,20.3z M33.1,13.1c-0.7,0-1.3,0-2,0c0,0,0,0,0,0.1c0.5,0.2,1.1,0.5,1.6,0.7C32.9,13.6,33,13.4,33.1,13.1z
		 M17.9,13.1C17.9,13.1,17.9,13.1,17.9,13.1c-0.7-0.1-1.3-0.1-2-0.1c0.1,0.3,0.3,0.5,0.4,0.8C16.8,13.6,17.4,13.4,17.9,13.1z"/>
	<path class="st0" d="M40.7,33.9c0.4,0,0.9,0,1.3,0c-0.1,0.4-0.2,0.8-0.3,1.3c0.5-0.1,0.8-0.2,1.3-0.4c0,0.4,0,0.9,0,1.3
		c-0.4-0.1-0.8-0.2-1.2-0.4c0.1,0.4,0.1,0.6,0.2,0.8c0,0.1,0.2,0.2,0.3,0.2c2.2,0.6,3.2,3,2.2,4.9c0,0.1-0.1,0.1-0.1,0.2
		c0.1,0.6-0.3,1-0.7,1.3c-0.1,0.1-0.4,0.1-0.6,0.2c-0.1,0-0.2,0-0.3,0.1c-0.4,0.4-0.8,0.5-1.3,0.2c-0.3,0.1-0.5,0.3-0.8,0.4
		c-0.4,0.1-0.8,0-1.1-0.4c-0.9-1.1-2.1-1.7-3.4-2.1c-0.9-0.3-1.8-0.6-2.6-1.2c-0.1,0-0.2,0-0.3,0c-0.4,0.1-0.8,0.2-1.3,0.3
		c0.1-1,0.2-2-0.5-2.8c0.5-0.4,0.9-0.9,0.9-1.5c0.1-0.6,0.1-1.2,0.2-1.8c0.7,1.3,1.7,2.1,3.3,2.2c-0.1,0.3-0.2,0.5-0.4,0.8
		c0.3,0,0.5,0,0.8,0.1c0,0.6-0.2,1-0.8,1.3c0.7,1.1,1.8,2.1,2.5,2.3c0-0.5,0-1,0-1.4c0.2-1.4,0.9-2.4,2.3-2.8
		c0.5-0.1,0.6-0.4,0.6-0.8c0-0.1,0-0.2,0-0.3c-0.4,0.1-0.8,0.2-1.2,0.3c0-0.4,0-0.9,0-1.3c0.4,0.1,0.8,0.2,1.2,0.4
		C40.9,34.7,40.8,34.3,40.7,33.9z"/>
	<path class="st0" d="M13.6,38.9c-0.6-0.3-0.8-0.7-0.8-1.3c0.3,0,0.6,0,0.8,0c-0.1-0.3-0.3-0.5-0.4-0.8c1.6-0.1,2.6-0.9,3.4-2.2
		c0.1,1.3-0.1,2.5,1.1,3.4c-0.8,0.8-0.7,1.7-0.5,2.8c-0.5-0.1-0.9-0.2-1.3-0.3c-0.1,0-0.2,0-0.3,0c-0.6,0.6-1.4,0.8-2.2,1
		c-0.6,0.2-1.3,0.5-1.9,0.7c-0.3,0.1-0.5,0.4-0.6,0.8c-0.1,0.3-0.3,0.6-0.5,0.9c0.4,0.7,0.9,1.5,1.3,2.2c0.2,0.3,0.2,0.6,0,0.8
		c-0.2,0.1-0.4,0.3-0.6,0.3c-0.2,0-0.4-0.2-0.5-0.4c-0.3-0.5-0.6-1-0.9-1.5c-0.1-0.2-0.3-0.4-0.5-0.3c-0.1,0-0.2,0-0.2,0
		c-0.6-0.1-0.8-0.4-0.8-0.9c-0.7-0.3-0.9-0.5-0.7-1.2c-0.5-0.2-0.9-0.4-0.9-1c0-0.4,0.3-0.7,0.8-0.7c-0.9-1.6-1.8-3.2-2.7-4.8
		c-0.3,0-0.6,0-0.8,0c0-0.4,0-0.7,0.1-1c-0.4,0.2-0.7,0.4-1,0.4c-0.2,0-0.5-0.1-0.7-0.2c-0.6-0.4-0.7-1.1-0.3-1.7
		c0.4,0.4,0.8,0.6,1.3,0.3c0-0.4-0.2-0.6-0.5-0.7c-0.1,0-0.2,0.1-0.4,0.1C2,33.3,2,33,2.4,32.8c0.2-0.1,0.3-0.2,0.5-0.3
		c0,0,0,0,0.1,0c0,0.1,0,0.2,0.1,0.3C3.1,33,3.2,33,3.4,33.1c0,0,0.1,0,0.1,0c-0.1-0.2-0.2-0.5-0.2-0.7c0.6-0.4,1-0.6,1.1,0
		c-0.4,0.2-0.4,0.6,0,1c0.4-0.1,0.6-0.7,0.4-1.3C5.3,32,5.9,32.4,6,33.1c0.1,0.6-0.2,1-1,1.4c0.3,0.1,0.5,0.3,0.9,0.4
		c-0.1,0.2-0.2,0.4-0.4,0.7c0.8,1.3,1.6,2.7,2.4,4.1C8,39.8,8.2,40,8.3,40c0.5,0.1,0.9,0.2,1.2,0.6c0.4,0.5,1.4,0.6,2.1,0.2
		c0.4-0.2,0.7-0.5,1-0.8C13,39.7,13.3,39.3,13.6,38.9z"/>
	<path class="st0" d="M26.1,2.6c1.2,0,2.1,0.8,2.3,1.9c0.1,1.3-0.3,2.4-1.3,3.2C26.9,7.9,26.7,8,26.5,8c-1.3,0-2.7,0-4,0
		c-0.2,0-0.4-0.1-0.6-0.2c-0.9-0.9-1.4-1.9-1.3-3.2c0.1-1.2,1-2,2.2-2c0.2,0.5,0.4,0.9,0.6,1.3c0.2,0.3,0.4,0.6,0.6,0.8
		c0.3,0.4,0.5,0.4,0.8,0C25.5,4.2,25.9,3.5,26.1,2.6z"/>
	<path class="st0" d="M17,7.4c0.3,0.5,0.5,1,0.8,1.4c0.3,0.4,0.5,0.4,0.8,0c0.3-0.4,0.5-0.9,0.8-1.4c0.5-0.1,1.2,0.3,1.4,1
		c0.3,0.8-0.2,2.1-0.9,2.6C19.9,11,19.7,11,19.6,11c-0.9,0-1.8,0-2.7,0c-0.2,0-0.3-0.1-0.4-0.2c-0.7-0.6-0.9-1.4-0.8-2.2
		C15.7,7.9,16.2,7.4,17,7.4z"/>
	<path class="st0" d="M29.6,7.4c0.3,0.5,0.6,1,0.9,1.4c0.2,0.3,0.5,0.3,0.7,0c0.3-0.5,0.6-0.9,0.9-1.4c0.8,0,1.5,0.6,1.4,1.5
		c0,0.5-0.1,0.9-0.3,1.3c-0.3,0.6-0.7,0.9-1.4,0.9c-0.7-0.1-1.5,0-2.2,0c-0.2,0-0.4-0.1-0.6-0.2c-0.5-0.5-0.8-1.2-0.8-1.9
		C28.1,8,28.7,7.4,29.6,7.4z"/>
	<path class="st0" d="M9.8,8.3c0.8-0.1,1.4-0.5,2-0.9C12,7.2,12.2,7,12.4,6.9c0.6-0.4,0.9-0.5,1.3-0.1c0.6,0.5,1,0.9,0.8,1.6
		c-0.1,0.4-0.2,0.7-0.2,1.1c0,0.6,0.3,1,0.8,1.5c-1.5,0.1-2.2-1-2.2-2.7c-0.3,0.1-0.7,0.2-1,0.2c-0.3,0.1-0.7,0.1-1,0.2
		c0.7,1,1.2,2,0.9,3.2c-0.1,0.5-0.4,0.9-0.8,1.3c-0.2-1-0.3-1.1-1.2-0.9c0.5-0.9,0.5-1.8,0.2-2.7C10,9.1,9.9,8.7,9.8,8.3z"/>
	<path class="st0" d="M38,8.7c-0.7-0.1-1.3-0.3-2-0.4c-0.4,2.1-1,2.8-2.3,2.7c0.9-0.7,1-1.6,0.7-2.6c-0.2-0.8,0.5-1.8,1.3-1.8
		c0.2,0,0.3,0,0.5,0.1c0.2,0.1,0.5,0.3,0.7,0.5c0.7,0.5,1.4,1,2.3,1.2c-0.1,0.3-0.2,0.6-0.2,0.9c-0.2,0.7-0.5,1.4-0.3,2.1
		c0.1,0.3,0.2,0.6,0.3,0.9c-0.9-0.1-0.9,0-1.1,0.9C36.7,12.4,36.8,10.8,38,8.7z"/>
	<path class="st0" d="M22.3,8.7c0.4,0,0.8,0,1.3,0c0.2,1.1-0.9,2.3-2.3,2.4C22,10.5,22.2,9.6,22.3,8.7z"/>
	<path class="st0" d="M25.5,8.7c0.4,0,0.8,0,1.3,0c0.3,1.6,0.3,1.7,1,2.3C26.5,11.1,25.4,9.9,25.5,8.7z"/>
	<path class="st0" d="M18.1,8.2c-0.2-0.5-0.4-1-0.5-1.5c-0.1-0.3,0-0.7,0.4-0.9c0.1-0.1,0.4-0.1,0.5-0.1c0.4,0.2,0.5,0.5,0.5,0.9
		C18.8,7.3,18.6,7.7,18.1,8.2z"/>
	<path class="st0" d="M30.6,8.2c-0.2-0.5-0.4-1-0.5-1.6C30,6.3,30.2,6,30.5,5.8c0.1-0.1,0.4,0,0.5,0c0.3,0.2,0.5,0.5,0.4,0.9
		c-0.1,0.5-0.4,1-0.5,1.5C30.8,8.2,30.7,8.2,30.6,8.2z"/>
	<path class="st0" d="M24.3,24.4c-0.5-0.3-0.5-0.9-0.2-1.3c0.3-0.3,0.6-0.4,1-0.3c0.4,0.1,0.7,0.5,0.7,0.9c0,0.4-0.1,0.7-0.5,0.9
		c-0.1,0.1-0.3,0-0.4,0c0.2-0.3,0.5-0.5,0.5-0.7c0-0.2-0.1-0.5-0.3-0.7c-0.2-0.2-0.6-0.2-0.8,0c-0.1,0.2-0.2,0.5-0.2,0.7
		C24.2,24,24.3,24.1,24.3,24.4z"/>
	<path class="st0" d="M25.4,33.9c0,0,0.1,0,0.2,0c-0.1-0.1-0.1-0.1-0.2-0.2c0,0,0.1,0,0.1,0c0.3,0,0.4,0.2,0.5,0.4
		c0.1,0.2,0.2,0.5,0.3,0.8c-0.2,0-0.4,0-0.5,0c-0.2,0-0.3-0.1-0.3-0.4C25.6,34.2,25.5,34.1,25.4,33.9z"/>
</g>
</svg>
