<?xml version="1.0" encoding="utf-8"?>
<!-- Generator: Adobe Illustrator 23.0.3, SVG Export Plug-In . SVG Version: 6.00 Build 0)  -->
<svg version="1.1" id="Layer_1" xmlns="http://www.w3.org/2000/svg" xmlns:xlink="http://www.w3.org/1999/xlink" x="0px" y="0px"
	 viewBox="0 0 49 52" style="enable-background:new 0 0 49 52;" xml:space="preserve">
<style type="text/css">
	.st0{fill:#255DBE;}
</style>
<g>
	<path class="st0" d="M36.6,45.9c0.7,0.4,1.3,0.2,1.8-0.3c1.1-1,2.5-1.1,3.7-0.3c0.2,0.1,0.3,0.2,0.4,0.3c0.7,0.7,1.4,0.7,2.2,0
		c1-0.9,2.2-1.1,3.4-0.5c0.3,0.1,0.6,0.3,0.8,0.5c-0.4,0.4-0.8,0.8-1.2,1.1c-1-0.5-1.3-0.5-2.2,0.2c-1.2,1-2.8,1-4,0
		c-0.9-0.8-1.4-0.8-2.3,0c-1,0.9-2.2,1-3.4,0.5c-0.3,0.8-0.7,1.6-1,2.4c-0.2,0.5-0.5,0.7-1,0.7c-6,0-12,0-18,0c-0.5,0-0.8-0.2-1-0.7
		c-0.4-0.8-0.8-1.7-1.2-2.5c-0.9,0.7-1.8,0.9-2.8,0.6c-0.5-0.2-0.9-0.4-1.3-0.7c-0.7-0.6-1.4-0.6-2.1,0c-1.3,1.1-2.9,1.2-4.2,0.1
		c-0.8-0.7-1.3-0.7-2.3-0.1c-0.1-0.2-0.3-0.4-0.4-0.6c-0.2-0.2-0.4-0.3-0.6-0.5c1.1-1.2,3-1.3,4.2-0.3c1,0.8,1.4,0.8,2.4,0
		c1.2-1,2.9-1,4,0.1c0.8,0.7,1.6,0.7,2.3-0.2c-0.9-2-1.8-3.9-2.7-5.9C9,37,7.7,34.2,6.4,31.4C6,30.8,6.2,30.3,6.9,30
		c1.3-0.5,2.7-1,4.1-1.5c0-1.5,0-3.1,0-4.6c0-2,0-3.9,0-5.9c0-0.8,0.2-1,1-1c1.2,0,2.5,0,3.8,0c0-0.9,0-1.7,0-2.6c0-0.7,0-1.4,0-2.1
		c0-0.7,0.3-1,1-1c1.5,0,3,0,4.6,0c0-0.7,0-1.5,0-2.2c0-0.9,0-1.8,0-2.7c0-0.6,0.3-0.9,0.9-0.9c0,0,0.1,0,0.1,0
		c0.8,0.1,1.5,0.1,1.9-1c0.4-0.9,1.3-1.4,2.3-1.4c1.2-0.1,1.6-0.4,1.9-1.6c0.5,0,1,0,1.5,0c0.2,1.3-0.9,2.7-2.2,3.1
		c-0.3,0.1-0.6,0.1-0.9,0.1c-0.6,0-1,0.3-1.3,0.8c0.4,0,0.8,0,1.2,0c0.6,0,0.9,0.3,0.9,0.9c0,1.4,0,2.8,0,4.1c0,0.2,0,0.4,0,0.7
		c0.3,0,0.5,0,0.8,0c1.3,0,2.6,0,3.9,0c0.6,0,0.9,0.3,0.9,0.9c0,1.6,0,3.1,0,4.7c0,0,0,0,0.1,0.1c0.1,0,0.3,0,0.5,0
		c1.1,0,2.2,0,3.3,0c0.7,0,0.9,0.3,0.9,1c0,3.4,0,6.7,0,10.1c0,0.4,0.1,0.6,0.5,0.7c1.2,0.4,2.4,0.9,3.6,1.3
		c0.7,0.3,0.9,0.7,0.6,1.4c-2,4.7-4,9.4-6,14.1C36.7,45.6,36.7,45.7,36.6,45.9z M41,31.4c-0.1,0-0.2-0.1-0.3-0.1
		c-5.3-2-10.6-3.9-15.9-5.9c-0.2-0.1-0.5-0.1-0.7,0c-5.1,1.9-10.2,3.8-15.3,5.7c-0.2,0.1-0.4,0.2-0.6,0.3c0,0.1,0,0.1,0,0.1
		c2.1,4.4,4.1,8.9,6.2,13.3c0.1,0.1,0.3,0.3,0.4,0.3c0.8,0,1.6,0.2,2.2,0.8c0.8,0.7,1.4,0.7,2.2,0c0.7-0.6,1.5-0.9,2.4-0.8
		c0.8,0.1,1.4,0.5,2.1,1.1c0-6.2,0-12.4,0-18.5c0.6,0,1.1,0,1.6,0c0,6.2,0,12.3,0,18.4c0.1-0.1,0.1-0.1,0.2-0.1
		c1.4-1.3,2.9-1.3,4.4,0c0.6,0.6,1.3,0.5,2,0c0.5-0.4,1.1-0.7,1.7-0.8c0.5-0.1,1,0,1.6,0C37.1,40.6,39,36,41,31.4z M36.5,18.7
		c-8,0-15.9,0-23.9,0c0,3.1,0,6.1,0,9.2c0.2-0.1,0.4-0.1,0.6-0.2c3.6-1.3,7.1-2.7,10.7-4c0.3-0.1,0.8-0.1,1.1,0
		c3.4,1.2,6.8,2.5,10.2,3.8c0.4,0.1,0.8,0.3,1.2,0.4C36.5,24.8,36.5,21.8,36.5,18.7z M31.7,17c0-1.4,0-2.7,0-4c-4.8,0-9.5,0-14.3,0
		c0,1.4,0,2.7,0,4C22.2,17,26.9,17,31.7,17z M34.4,46.8c-0.6-0.1-1,0-1.4,0.4c-1.4,1.2-2.9,1.2-4.3,0c-0.8-0.7-1.4-0.7-2.2,0
		c-1.3,1.1-2.9,1.1-4.2,0c-0.7-0.7-1.4-0.7-2.1,0c-1.4,1.2-2.9,1.2-4.3,0c-0.2-0.1-0.4-0.3-0.6-0.4c0.2,0.6,0.4,1.2,0.7,1.7
		c0.1,0.3,0.3,0.4,0.6,0.4c1.6,0,3.1,0,4.7,0c3.9,0,7.9,0,11.8,0c0.1,0,0.4,0,0.4-0.1C33.9,48.1,34.2,47.4,34.4,46.8z M26.1,11.3
		c0-1.4,0-2.7,0-4.1c-1,0-2.1,0-3.1,0c0,1.4,0,2.7,0,4c0.1,0,0.2,0,0.3,0C24.2,11.3,25.1,11.3,26.1,11.3z"/>
	<path class="st0" d="M17.4,36.5c0,0.6,0,1.3,0,2c0.7-0.3,1.3-0.7,2-1c0.2,0.5,0.5,0.9,0.7,1.4c-0.3,0.1-0.5,0.3-0.8,0.4
		c-0.8,0.4-1.5,0.8-2.3,1.2c-0.2,0.1-0.6,0.2-0.8,0.1c-1.1-0.5-2.1-1.1-3.2-1.6c0.2-0.5,0.5-1,0.7-1.5c0.7,0.3,1.3,0.7,2,1
		c0-0.7,0-1.3,0-1.9c0-0.1-0.2-0.2-0.4-0.3c-1.3-0.5-2-1.7-2-3.2c0-1.3,0.9-2.5,2.1-2.9c1.6-0.6,3.5,0.2,4.1,1.8
		c0.6,1.7-0.1,3.5-1.7,4.2C17.7,36.4,17.5,36.5,17.4,36.5z M17.4,34.6c0.6-0.4,0.9-1,0.7-1.7c-0.2-0.8-0.9-1.3-1.6-1.2
		c-0.7,0.1-1.3,0.7-1.5,1.4c-0.1,0.6,0.3,1.3,0.8,1.5c0-0.4,0-0.8,0-1.3c0.5,0,1,0,1.6,0C17.4,33.8,17.4,34.2,17.4,34.6z"/>
	<path class="st0" d="M15.8,21.9c-0.5,0-1,0-1.5,0c0-0.5,0-1,0-1.6c0.5,0,1,0,1.5,0C15.8,20.8,15.8,21.3,15.8,21.9z"/>
	<path class="st0" d="M19,20.3c0,0.5,0,1,0,1.6c-0.5,0-1,0-1.5,0c0-0.5,0-1,0-1.6C17.9,20.3,18.4,20.3,19,20.3z"/>
	<path class="st0" d="M22.1,20.3c0,0.5,0,1,0,1.6c-0.5,0-1,0-1.6,0c0-0.5,0-1,0-1.6C21.1,20.3,21.6,20.3,22.1,20.3z"/>
	<path class="st0" d="M25.3,21.9c-0.5,0-1,0-1.5,0c0-0.5,0-1,0-1.6c0.5,0,1,0,1.5,0C25.3,20.8,25.3,21.4,25.3,21.9z"/>
	<path class="st0" d="M28.5,20.3c0,0.5,0,1,0,1.6c-0.5,0-1,0-1.5,0c0-0.5,0-1,0-1.6C27.5,20.3,28,20.3,28.5,20.3z"/>
	<path class="st0" d="M30.1,21.9c0-0.5,0-1,0-1.6c0.5,0,1,0,1.5,0c0,0.5,0,1,0,1.6C31.2,21.9,30.7,21.9,30.1,21.9z"/>
	<path class="st0" d="M33.3,20.3c0.5,0,1,0,1.5,0c0,0.5,0,1,0,1.6c-0.5,0-1,0-1.5,0C33.3,21.4,33.3,20.9,33.3,20.3z"/>
	<path class="st0" d="M20.5,13.8c0,0.5,0,1,0,1.6c-0.5,0-1,0-1.6,0c0-0.5,0-1,0-1.6C19.5,13.8,20,13.8,20.5,13.8z"/>
	<path class="st0" d="M22.2,13.8c0.5,0,1,0,1.5,0c0,0.5,0,1,0,1.6c-0.5,0-1,0-1.5,0C22.2,14.8,22.2,14.3,22.2,13.8z"/>
	<path class="st0" d="M25.4,13.7c0.5,0,1,0,1.5,0c0,0.5,0,1,0,1.6c-0.5,0-1,0-1.5,0C25.4,14.8,25.4,14.3,25.4,13.7z"/>
	<path class="st0" d="M28.5,15.3c0-0.3,0-0.6,0-0.9c0-0.2,0-0.4,0-0.7c0.5,0,1,0,1.6,0c0,0.5,0,1,0,1.6
		C29.6,15.3,29.1,15.3,28.5,15.3z"/>
</g>
</svg>
