<?xml version="1.0" encoding="utf-8"?>
<!-- Generator: Adobe Illustrator 23.0.3, SVG Export Plug-In . SVG Version: 6.00 Build 0)  -->
<svg version="1.1" id="Layer_1" xmlns="http://www.w3.org/2000/svg" xmlns:xlink="http://www.w3.org/1999/xlink" x="0px" y="0px"
	 viewBox="0 0 49 52" style="enable-background:new 0 0 49 52;" xml:space="preserve">
<style type="text/css">
	.st0{fill:#255DBE;}
</style>
<g>
	<path class="st0" d="M34.3,44c0,1.7,0,3.3,0,5c1.1,0,2.2,0,3.4,0c0-0.4,0-0.8,0-1.1c0.1-1.1,0.8-1.9,1.9-2c0.6-0.1,1-0.3,1.4-0.7
		c1.3-1.4,3.3-1.4,4.6,0c0.4,0.4,0.7,0.6,1.3,0.7c1.2,0.1,2.1,1.1,2.1,2.3c0,1.2-0.9,2.2-2.1,2.4c-0.3,0.1-0.6,0-1,0
		c-10.4,0-20.8,0-31.2,0c-1.6,0-1.6-0.1-1.6-1.7c0-12.5,0-25,0-37.5c0-0.3,0-0.6,0-0.9c0-0.5,0.3-0.8,0.8-0.8c0.3,0,0.5,0,0.8,0
		c7.6,0,15.2,0,22.8,0c1.6,0,1.6,0.1,1.6,1.7c0,10.3,0,20.6,0,30.8c0,1.6-0.1,1.7-1.7,1.7C36.5,44,35.4,44,34.3,44z M43.3,49
		C43.3,49,43.3,49,43.3,49c1.1,0,2.2,0,3.3,0c0.6,0,1-0.4,0.9-1c-0.1-0.6-0.6-0.9-1.1-0.7c-0.9,0.4-1.2-0.1-1.5-0.8
		c-0.3-0.7-0.9-1-1.6-1c-0.6,0-1.2,0.3-1.5,1c-0.3,0.8-0.7,1.1-1.6,0.7c-0.5-0.2-0.9,0.1-1,0.7c-0.1,0.6,0.2,0.9,0.7,1
		c0.2,0.1,0.5,0.1,0.8,0.1C41.6,49,42.4,49,43.3,49z M19.6,11.2c0,1.7,0,3.3,0,4.9c1.1,0,2.2,0,3.3,0c0-1.7,0-3.3,0-4.9
		C21.7,11.2,20.7,11.2,19.6,11.2z M29.4,11.2c0,1.7,0,3.3,0,4.9c1.2,0,2.2,0,3.3,0c0-1.7,0-3.3,0-4.9C31.6,11.2,30.5,11.2,29.4,11.2
		z M22.9,17.8c-1.2,0-2.2,0-3.3,0c0,1.7,0,3.3,0,4.9c1.1,0,2.2,0,3.3,0C22.9,21,22.9,19.4,22.9,17.8z M29.4,17.8c0,1.7,0,3.3,0,4.9
		c1.2,0,2.2,0,3.3,0c0-1.7,0-3.3,0-4.9C31.6,17.8,30.5,17.8,29.4,17.8z M34.3,17.8c0,1.7,0,3.3,0,4.9c1.1,0,2.2,0,3.3,0
		c0-1.7,0-3.3,0-4.9C36.4,17.8,35.4,17.8,34.3,17.8z M19.6,29.2c1.1,0,2.2,0,3.3,0c0-1.7,0-3.3,0-4.9c-1.2,0-2.2,0-3.3,0
		C19.6,26,19.6,27.6,19.6,29.2z M37.6,35.8c0-1.7,0-3.3,0-4.9c-1.1,0-2.2,0-3.3,0c0,1.7,0,3.3,0,4.9C35.5,35.8,36.5,35.8,37.6,35.8z
		 M29.4,24.3c0,1.7,0,3.3,0,4.9c1.1,0,2.2,0,3.3,0c0-1.7,0-3.3,0-4.9C31.6,24.3,30.5,24.3,29.4,24.3z M34.3,42.4c1.1,0,2.2,0,3.3,0
		c0-1.7,0-3.3,0-4.9c-1.1,0-2.2,0-3.3,0C34.3,39.1,34.3,40.7,34.3,42.4z M22.9,48.9c0-1.7,0-3.3,0-4.9c-1.1,0-2.2,0-3.3,0
		c0,1.7,0,3.3,0,4.9C20.7,48.9,21.8,48.9,22.9,48.9z M32.7,48.9c0-1.7,0-3.3,0-4.9c-1.1,0-2.2,0-3.3,0c0,1.7,0,3.3,0,4.9
		C30.5,48.9,31.5,48.9,32.7,48.9z M34.3,24.3c0,1.7,0,3.3,0,4.9c1.1,0,2.2,0,3.3,0c0-1.7,0-3.3,0-4.9C36.5,24.3,35.5,24.3,34.3,24.3
		z M34.3,16.2c1.2,0,2.2,0,3.3,0c0-1.7,0-3.3,0-4.9c-1.1,0-2.2,0-3.3,0C34.3,12.9,34.3,14.5,34.3,16.2z M22.9,35.8
		c0-1.7,0-3.3,0-4.9c-1.2,0-2.2,0-3.3,0c0,1.7,0,3.3,0,4.9C20.7,35.8,21.7,35.8,22.9,35.8z M32.7,35.8c0-1.7,0-3.3,0-4.9
		c-1.1,0-2.2,0-3.3,0c0,1.7,0,3.3,0,4.9C30.6,35.8,31.6,35.8,32.7,35.8z M19.6,37.5c0,1.6,0,3.2,0,4.9c1.1,0,2.2,0,3.3,0
		c0-1.7,0-3.2,0-4.9C21.7,37.5,20.7,37.5,19.6,37.5z M29.4,37.5c0,1.6,0,3.2,0,4.9c1.1,0,2.2,0,3.3,0c0-1.7,0-3.3,0-4.9
		C31.6,37.5,30.5,37.5,29.4,37.5z M14.7,11.2c0,1.7,0,3.3,0,4.9c1.1,0,2.1,0,3.2,0c0-1.7,0-3.3,0-4.9C16.8,11.2,15.8,11.2,14.7,11.2
		z M24.5,11.2c0,1.7,0,3.3,0,4.9c1.1,0,2.1,0,3.2,0c0-1.7,0-3.3,0-4.9C26.7,11.2,25.6,11.2,24.5,11.2z M14.7,22.7c1.1,0,2.2,0,3.2,0
		c0-1.7,0-3.3,0-4.9c-1.1,0-2.1,0-3.2,0C14.7,19.5,14.7,21.1,14.7,22.7z M24.5,17.8c0,1.7,0,3.3,0,4.9c1.1,0,2.2,0,3.2,0
		c0-1.7,0-3.3,0-4.9C26.6,17.8,25.6,17.8,24.5,17.8z M14.7,24.3c0,1.7,0,3.3,0,4.9c1.1,0,2.2,0,3.2,0c0-1.7,0-3.2,0-4.9
		C16.8,24.3,15.8,24.3,14.7,24.3z M17.9,35.8c0-1.7,0-3.3,0-4.9c-1.1,0-2.2,0-3.2,0c0,1.7,0,3.3,0,4.9
		C15.8,35.8,16.9,35.8,17.9,35.8z M27.8,30.9c-1.1,0-2.2,0-3.2,0c0,1.7,0,3.3,0,4.9c1.1,0,2.1,0,3.2,0
		C27.8,34.2,27.8,32.6,27.8,30.9z M14.7,42.4c1.1,0,2.2,0,3.2,0c0-1.7,0-3.3,0-4.9c-1.1,0-2.1,0-3.2,0
		C14.7,39.1,14.7,40.7,14.7,42.4z M27.8,37.5c-1.2,0-2.2,0-3.3,0c0,1.7,0,3.2,0,4.9c1.1,0,2.2,0,3.3,0
		C27.8,40.7,27.8,39.1,27.8,37.5z M14.7,48.9c1.1,0,2.2,0,3.2,0c0-1.7,0-3.3,0-4.9c-1.1,0-2.2,0-3.2,0
		C14.7,45.7,14.7,47.3,14.7,48.9z M24.5,44c0,1.7,0,3.3,0,4.9c1.1,0,2.2,0,3.2,0c0-1.7,0-3.3,0-4.9C26.7,44,25.6,44,24.5,44z
		 M24.5,24.3c0,1.7,0,3.3,0,4.9c1.1,0,2.2,0,3.2,0c0-1.7,0-3.2,0-4.9C26.6,24.3,25.6,24.3,24.5,24.3z"/>
	<path class="st0" d="M41,7.9c-0.6,0-1.1,0-1.5,0c-6.1,0-12.2,0-18.4,0c-0.6,0-1.4,0.2-1.4-0.8c0-1,0.9-0.7,1.4-0.7
		c3.9,0,7.8,0,11.7,0c0.4,0,0.9,0,1.4,0c0-0.6,0-1.1,0-1.8c-1.2,0-2.4,0-3.7,0c-0.4,0-0.7,0-1.1,0c-1.5,0-1.6,0-1.8-1.6
		c-1,0-2.1,0-3.1,0c-0.3,1.6-0.3,1.6-1.9,1.6c-1.5,0-3.1,0-4.8,0c0,0.8,0,1.4,0,2c0,1-0.2,1.2-1.2,1.2c-1.7,0-3.5,0-5.3,0
		c0,0.6-0.1,1.2-0.1,1.7c0,12.9,0,25.8,0,38.7c0,0.4,0,0.7,0,1.1c0,0.9-0.2,1.1-1.2,1.1c-3,0-5.9,0-8.9,0c-0.2,0-0.4,0.1-0.5,0
		c-0.3-0.2-0.6-0.5-0.6-0.8c0-0.2,0.4-0.6,0.7-0.6c0.8-0.1,1.6,0,2.4,0c0-1.2,0-2.3,0-3.4c0,0-0.1-0.1-0.2-0.2
		c-2.4-1.1-3.2-2.3-2.9-4.9c0.2-2.3,0.3-4.6,1.2-6.8c0.2-0.5,0.4-0.9,0.7-1.4c1.2-1.9,3.1-1.8,4.3,0.1c0.5,0.8,0.9,1.6,1,2.5
		c0.4,2.2,0.6,4.4,0.8,6.7c0.1,1.8-0.9,3-2.5,3.7c-0.2,0.1-0.5,0.2-0.7,0.3c0,1.1,0,2.2,0,3.3c1.6,0,3.2,0,4.9,0
		c0-0.5,0.1-0.9,0.1-1.4c0-13,0-25.9,0-38.9c0-0.3,0-0.6,0-0.9c0-1.2,0.2-1.3,1.3-1.3c1.7,0,3.4,0,5.3,0c0-0.8,0-1.5,0-2.1
		c0-1,0.1-1.1,1.1-1.1c1.3,0,2.7,0,4,0c0.4,0,0.8,0,1.1,0C22.8,3,22.9,3,22.9,2.9c0.3-1.4,0.3-1.4,1.7-1.4c0.9,0,1.9,0,2.8,0
		c1.7,0,1.7,0,2.1,1.7c0.8,0,1.7,0,2.5,0c0.9,0,1.8,0,2.7,0c1,0,1.1,0.2,1.1,1.2c0,0.6,0,1.3,0,2c0.6,0,1.1,0.1,1.6,0.1
		c1.3,0,2.6,0,3.9,0c0.7,0,1.1,0.3,1.1,1c0,0.3,0,0.5,0,0.8c0,10.9,0,21.8,0,32.7c0,0.4,0.1,0.8-0.1,1.1c-0.1,0.3-0.5,0.6-0.7,0.6
		c-0.2,0-0.6-0.4-0.6-0.7c-0.1-0.4-0.1-0.8-0.1-1.2c0-10.4,0-20.8,0-31.2C41,9.1,41,8.6,41,7.9z M6.5,40.4c-0.1-2.1-0.4-4.4-1.2-6.5
		C5,33.3,4.8,32.5,4,32.5c-0.8,0-1.1,0.7-1.2,1.3c-0.4,1.6-0.8,3.3-1.1,4.9C1.5,39.8,1.5,41,1.6,42c0.2,1.3,1.4,2.1,2.6,2
		c1.3-0.1,2.2-1.1,2.3-2.5C6.5,41.2,6.5,40.9,6.5,40.4z"/>
</g>
</svg>
