<?xml version="1.0" encoding="utf-8"?>
<!-- Generator: Adobe Illustrator 23.0.3, SVG Export Plug-In . SVG Version: 6.00 Build 0)  -->
<svg version="1.1" id="Layer_1" xmlns="http://www.w3.org/2000/svg" xmlns:xlink="http://www.w3.org/1999/xlink" x="0px" y="0px"
	 viewBox="0 0 63 63" style="enable-background:new 0 0 63 63;" xml:space="preserve">
<style type="text/css">
	.st0{fill:#255DBE;}
</style>
<g>
	<g>
		<path class="st0" d="M28.4,27.3h-11c-0.5,0-0.8-0.4-0.8-0.8s0.4-0.8,0.8-0.8h11c2,0,3.6-1.6,3.6-3.6s-1.6-3.6-3.6-3.6
			s-3.6,1.6-3.6,3.6c0,0.5-0.4,0.8-0.8,0.8s-1-0.5-1-0.9c0-2.9,2.4-5.3,5.3-5.3s5.3,2.4,5.3,5.3S31.3,27.3,28.4,27.3z"/>
	</g>
	<g>
		<path class="st0" d="M41.2,30.6H17.3c-0.5,0-0.8-0.4-0.8-0.8s0.4-0.8,0.8-0.8h23.8c2,0,3.6-1.6,3.6-3.6s-1.6-3.6-3.6-3.6
			s-3.6,1.6-3.6,3.6c0,0.5-0.4,0.8-0.8,0.8s-0.8-0.4-0.8-0.8c0-2.9,2.4-5.3,5.3-5.3c2.9,0,5.3,2.4,5.3,5.3S44.1,30.6,41.2,30.6z"/>
	</g>
	<g>
		<path class="st0" d="M28.4,35.7h-11c-0.5,0-0.8,0.4-0.8,0.8s0.4,0.8,0.8,0.8h11c2,0,3.6,1.6,3.6,3.6s-1.6,3.6-3.6,3.6
			s-3.6-1.6-3.6-3.6c0-0.5-0.4-0.8-0.8-0.8s-1,0.5-1,0.9c0,2.9,2.4,5.3,5.3,5.3s5.3-2.4,5.3-5.3C33.7,38.1,31.3,35.7,28.4,35.7z"/>
	</g>
	<g>
		<path class="st0" d="M41.2,32.4H17.3c-0.5,0-0.8,0.4-0.8,0.8s0.4,0.8,0.8,0.8h23.8c2,0,3.6,1.6,3.6,3.6s-1.6,3.6-3.6,3.6
			s-3.6-1.6-3.6-3.6c0-0.5-0.4-0.8-0.8-0.8s-0.8,0.4-0.8,0.8c0,2.9,2.4,5.3,5.3,5.3c2.9,0,5.3-2.4,5.3-5.3S44.1,32.4,41.2,32.4z"/>
	</g>
</g>
</svg>
