<?xml version="1.0" encoding="utf-8"?>
<!-- Generator: Adobe Illustrator 23.0.3, SVG Export Plug-In . SVG Version: 6.00 Build 0)  -->
<svg version="1.1" id="Layer_1" xmlns="http://www.w3.org/2000/svg" xmlns:xlink="http://www.w3.org/1999/xlink" x="0px" y="0px"
	 viewBox="0 0 63 63" style="enable-background:new 0 0 63 63;" xml:space="preserve">
<style type="text/css">
	.st0{fill:#255DBE;}
</style>
<g>
	<path class="st0" d="M15.3,30.2c0-0.9,0-1.7,0-2.5c0-0.5,0.2-0.9,0.7-1.1c0.1,0,0.1-0.2,0.1-0.3c0-2.6,0-5.2,0-7.8
		c0-0.1,0-0.3,0-0.4c0-0.7,0.4-1.1,1.1-1.1c2.6,0,5.1,0,7.7,0c0.2,0,0.3-0.1,0.5-0.1s0.4-0.1,0.5-0.1c1.4,0,2.8,0,4.2,0
		c0.7,0,1.1,0.5,1.1,1.1c0,0.8,0,1.6,0,2.4c0,0.7-0.3,1.1-1.1,1.3c0,0.4,0,0.9,0,1.3S30,23.7,29.6,24c0,0-0.1,0.1-0.1,0.2
		c0,0.6,0,1.2,0,1.9c0,0.1,0,0.2,0,0.3c0.1,0,0.2,0,0.3,0c0.5,0,1,0,1.5,0c0.7,0,1.2,0.4,1.2,1.2c0,0.9,0,1.8,0,2.8
		c0.4,0,0.7,0,1.1,0c0-0.1,0-0.2,0-0.3c0-0.8,0-1.7,0-2.5c0-0.7,0.5-1.1,1.1-1.1c2.1,0,4.1,0,6.2,0c0.7,0,1.1,0.4,1.1,1.1
		c0,0.8,0,1.7,0,2.5c0,0.1,0,0.2,0,0.3c0.4,0,0.8,0,1.1,0c0.7,0,1.4,0,2,0.1c1.9,0.4,3.2,2.1,3.2,4.1c0,1.9-1.3,3.7-3.2,4.1
		c-0.2,0.1-0.3,0.1-0.3,0.3c0,2.2,0,4.5,0,6.7c0,0.1,0,0.2,0,0.2c0,0.3-0.2,0.5-0.5,0.5s-0.5-0.2-0.5-0.5c0-0.6,0-1.2,0-1.8
		c0-0.1,0-0.2,0-0.3c-8.9,0-17.7,0-26.6,0c0,0.6,0,1.3,0,1.9c0,0.5-0.2,0.8-0.5,0.7c-0.3,0-0.5-0.3-0.5-0.7c0-2.2,0-4.4,0-6.6
		c0-0.1,0-0.2,0-0.3c-0.5,0-0.9,0-1.3,0c-0.3,0-0.5-0.2-0.5-0.5s0.2-0.5,0.5-0.5c0.1,0,0.2,0,0.2,0c9,0,17.9,0,26.9,0
		c0.7,0,1.4,0,2.2,0c1.8,0,3.2-1.5,3.1-3.3c0-1.7-1.4-3.1-3.2-3.1c-2.6,0-5.2,0-7.8,0c-7.1,0-14.1,0-21.2,0c-0.1,0-0.1,0-0.2,0
		c-0.3,0-0.5-0.3-0.5-0.5c0-0.3,0.2-0.5,0.5-0.5C15.1,30.2,15.2,30.2,15.3,30.2z M44,42.7c0-1.3,0-2.7,0-4c-8.9,0-17.7,0-26.5,0
		c0,1.3,0,2.6,0,4C26.3,42.7,35.1,42.7,44,42.7z M26.5,26.2c0-0.7,0-1.4,0-2.1c0-0.1,0-0.1-0.1-0.2c-0.4-0.3-0.5-0.7-0.5-1.2
		c0-0.4,0-0.8,0-1.2c-0.2-0.1-0.3-0.1-0.5-0.2s-0.3-0.1-0.5-0.1c-1.4,0-2.8,0-4.2,0c-0.1,0-0.2,0-0.3,0c0,1.8,0,3.5,0,5.2
		c0,0.1,0.1,0.2,0.2,0.2c0.4,0.2,0.6,0.6,0.6,1c0,0.7,0,1.4,0,2.1c0,0.1,0,0.3,0,0.4c1,0,1.9,0,2.9,0c0-0.1,0-0.2,0-0.3
		c0-0.8,0-1.7,0-2.5c0-0.7,0.4-1.1,1.1-1.1C25.6,26.2,26,26.2,26.5,26.2z M19.3,26.4c0-2.1,0-4.2,0-6.4c1.9,0,3.7,0,5.5,0
		c0-0.7,0-1.4,0-2.1c-2.6,0-5.1,0-7.7,0c0,2.8,0,5.6,0,8.5C17.9,26.4,18.6,26.4,19.3,26.4z M25.1,30.2c2.1,0,4.2,0,6.3,0
		c0-1,0-1.9,0-2.9c-2.1,0-4.2,0-6.3,0C25.1,28.2,25.1,29.2,25.1,30.2z M41,30.2c0-1,0-1.9,0-2.9c-2.1,0-4.2,0-6.3,0c0,1,0,1.9,0,2.9
		C36.8,30.2,38.9,30.2,41,30.2z M30.2,17.7c-1.4,0-2.8,0-4.2,0c0,0.9,0,1.8,0,2.6c1.4,0,2.8,0,4.2,0C30.2,19.4,30.2,18.6,30.2,17.7z
		 M16.4,27.5c0,0.9,0,1.8,0,2.6c1.2,0,2.5,0,3.7,0c0-0.9,0-1.8,0-2.6C18.8,27.5,17.6,27.5,16.4,27.5z M29.1,23c0-0.5,0-1,0-1.6
		c-0.7,0-1.4,0-2.1,0c0,0.5,0,1,0,1.6C27.7,23,28.4,23,29.1,23z M27.5,24.1c0,0.7,0,1.4,0,2.1c0.4,0,0.7,0,1,0c0-0.7,0-1.4,0-2.1
		c-0.1,0-0.2,0-0.3,0C28.1,24.1,27.8,24.1,27.5,24.1z"/>
	<path class="st0" d="M46.4,34.4c0,1.2-1,2.1-2.1,2.1c-1.2,0-2.1-1-2.1-2.2s1-2.1,2.2-2.1C45.4,32.3,46.4,33.3,46.4,34.4z
		 M44.2,35.5c0.6,0,1.1-0.5,1.1-1.1s-0.5-1.1-1-1.1c-0.6,0-1.1,0.5-1.1,1C43.2,35,43.7,35.5,44.2,35.5z"/>
	<path class="st0" d="M21.9,34.4c0,1-0.8,1.9-1.9,1.9c-1,0-1.9-0.8-1.9-1.9c0-1,0.8-1.9,1.9-1.9C21.1,32.6,21.9,33.4,21.9,34.4z
		 M20.9,34.4c0-0.4-0.4-0.8-0.8-0.8s-0.8,0.4-0.8,0.8c0,0.4,0.4,0.8,0.8,0.8S20.9,34.9,20.9,34.4z"/>
	<path class="st0" d="M24.9,36.3c-1,0-1.9-0.8-1.9-1.9c0-1,0.8-1.9,1.9-1.9c1,0,1.9,0.8,1.9,1.9C26.7,35.5,25.9,36.3,24.9,36.3z
		 M24.9,35.2c0.4,0,0.8-0.4,0.8-0.8c0-0.4-0.4-0.8-0.8-0.8s-0.8,0.4-0.8,0.8C24.1,34.9,24.4,35.2,24.9,35.2z"/>
	<path class="st0" d="M29.6,32.6c1,0,1.9,0.8,1.9,1.9c0,1-0.8,1.9-1.9,1.9c-1,0-1.9-0.8-1.9-1.9C27.8,33.4,28.6,32.6,29.6,32.6z
		 M29.7,33.6c-0.4,0-0.8,0.3-0.8,0.8c0,0.4,0.3,0.8,0.8,0.8c0.4,0,0.8-0.3,0.8-0.8C30.4,34,30.1,33.6,29.7,33.6z"/>
	<path class="st0" d="M36.3,34.4c0,1-0.8,1.9-1.9,1.9c-1,0-1.9-0.8-1.9-1.9c0-1,0.8-1.9,1.9-1.9C35.4,32.6,36.3,33.4,36.3,34.4z
		 M35.2,34.4c0-0.4-0.4-0.8-0.8-0.8c-0.4,0-0.8,0.4-0.8,0.8c0,0.4,0.4,0.8,0.8,0.8C34.9,35.2,35.2,34.9,35.2,34.4z"/>
	<path class="st0" d="M37.3,34.4c0-1,0.8-1.9,1.9-1.9c1,0,1.9,0.8,1.9,1.9c0,1-0.8,1.9-1.9,1.9C38.2,36.3,37.3,35.4,37.3,34.4z
		 M40,34.4c0-0.4-0.4-0.8-0.8-0.8c-0.4,0-0.8,0.4-0.8,0.8c0,0.4,0.4,0.8,0.8,0.8C39.7,35.2,40,34.8,40,34.4z"/>
</g>
</svg>
