<?xml version="1.0" encoding="utf-8"?>
<!-- Generator: Adobe Illustrator 23.0.3, SVG Export Plug-In . SVG Version: 6.00 Build 0)  -->
<svg version="1.1" id="Layer_1" xmlns="http://www.w3.org/2000/svg" xmlns:xlink="http://www.w3.org/1999/xlink" x="0px" y="0px"
	 viewBox="0 0 63 63" style="enable-background:new 0 0 63 63;" xml:space="preserve">
<style type="text/css">
	.st0{fill:#255DBE;}
</style>
<g>
	<path class="st0" d="M31.5,16.5c8.3,0,15,6.8,15,15c0,8.3-6.7,15-15,15s-15-6.8-15-15C16.5,23.2,23.3,16.5,31.5,16.5z M22.4,41.7
		c5,4.7,13.7,5,19.1-0.9c5.2-5.6,4.5-13.7,0.1-18.4C35.2,28.8,28.8,35.2,22.4,41.7z M40.6,21.4c-5.1-4.7-13.7-5-19.2,0.9
		c-5.1,5.5-4.4,13.7,0,18.4c0.1-0.1,0.1-0.1,0.2-0.2c0.5-0.5,1.1-1.1,1.6-1.6c0.2-0.2,0.2-0.3,0.1-0.6c-0.6-1-0.9-2-0.9-3.1
		c0-0.3,0.1-0.6,0.4-0.7c0.3-0.1,0.5-0.1,0.8,0.1c0.3,0.2,0.5,0.4,0.9,0.6c-0.1-0.3-0.2-0.5-0.2-0.8c-0.5-2.1-0.2-4.2,0.6-6.2
		c0.1-0.4,0.4-0.5,0.7-0.5c0.3,0,0.5,0.2,0.6,0.6c0.1,0.3,0.2,0.6,0.3,0.9c0,0.1,0.1,0.2,0.2,0.3c0-0.2,0-0.4,0.1-0.5
		c0.1-0.9,0.3-1.7,0.8-2.4c0.6-0.8,1.1-1.6,1.7-2.3c0.6-0.8,0.7-1.7,0.4-2.6c0-0.1-0.2-0.2-0.3-0.3c-0.3-0.2-0.3-0.6-0.2-0.8
		c0.2-0.3,0.5-0.4,0.8-0.3c0.5,0.2,1,0.3,1.5,0.6c2.1,1.1,3.5,2.8,4.6,4.9c0,0.1,0.1,0.2,0.1,0.2C37.7,24.3,39.1,22.8,40.6,21.4z
		 M31.2,22C31.2,22.1,31.1,22.1,31.2,22c-0.1,0.1-0.1,0.1-0.1,0.2c0.1,1.1-0.2,2-0.9,2.9c-0.6,0.7-1.1,1.5-1.7,2.3
		c-0.3,0.4-0.4,0.9-0.5,1.3s-0.1,0.9-0.2,1.3c-0.2,0.9-1,1.2-1.8,0.7c-0.1-0.1-0.2-0.2-0.3-0.2c0,0-0.1-0.1-0.2-0.1
		c-0.2,0.9-0.3,1.8-0.2,2.8c0.1,0.7,0.2,1.4,0.6,2.1c0.1,0.2,0.2,0.3,0.4,0.5c0.1-0.1,0.2-0.2,0.2-0.2c0.6-0.6,1.3-1.3,1.9-1.9
		c0.6-0.6,1.3-1.2,1.7-2c0.1-0.2,0.2-0.3,0.4-0.4c0.3-0.4,0.7-0.7,1.1-0.8c0.1,0,0.2-0.1,0.2-0.2c1-1,2-2,3-3
		c0.2-0.2,0.2-0.3,0.1-0.5C34.2,25.3,33.2,24,32,23C31.8,22.5,31.5,22.3,31.2,22z M24.4,37.5c0.3-0.3,0.6-0.6,0.9-0.9
		c-0.4-0.1-0.9-0.1-1.4-0.2C24.1,36.8,24.3,37.2,24.4,37.5z"/>
	<path class="st0" d="M38.3,30.2c-0.2,0.2-0.4,0.4-0.6,0.5c-0.4,0.3-0.8,0.6-1.3,0.5c-0.6,0-1.1-0.8-1-1.4c0,0,0-0.1,0.1-0.1
		c0.3-0.3,0.7-0.7,1-1c0.1-0.1,0.1-0.1,0.2-0.2c0,0.4,0,0.8,0,1.2c0,0,0,0,0.1,0c0.1-0.1,0.2-0.2,0.3-0.3c0.3-0.4,0.7-0.7,1-1.1
		c0.4-0.4,1-0.3,1.1,0.3c0.4,1.3,0.7,2.7,0.5,4.1c0,0.4-0.1,0.8-0.2,1.2c0,0.1,0,0.2,0,0.4c0.1-0.1,0.3-0.2,0.4-0.3
		c0.2-0.2,0.5-0.2,0.7-0.1c0.2,0.1,0.4,0.3,0.4,0.6c-0.3,2-0.7,4-2.1,5.5c-1.2,1.3-2.7,2.1-4.5,2.1c-0.7,0-1.4-0.2-2.1-0.6
		c-0.3-0.1-0.4-0.3-0.4-0.6s0.2-0.5,0.4-0.6c1-0.4,1.5-1.3,1.6-2.3c0.2-1.2-0.2-2.4-0.7-3.4c-0.2-0.5-0.5-0.9-0.8-1.4
		c-0.1-0.1-0.1-0.2,0-0.4c0.3-0.3,0.5-0.5,0.8-0.8c0.2,0.3,0.4,0.6,0.5,0.9c0.6,1.1,1.2,2.2,1.4,3.5c0.3,1.6,0.1,3-1,4.3
		c0,0,0,0,0,0.1c0.5,0.1,1,0,1.4-0.1c1.9-0.6,3.1-2,3.6-3.9c0.1-0.2,0.1-0.4,0.2-0.6c0,0,0,0-0.1,0c-0.2,0.1-0.4,0.3-0.6,0.4
		c-0.3,0.2-0.6,0.2-0.8,0s-0.3-0.5-0.2-0.8c0.4-1,0.7-2,0.7-3c0-0.7-0.1-1.5-0.2-2.2C38.4,30.3,38.4,30.2,38.3,30.2z"/>
	<path class="st0" d="M29.4,40.5c-0.1-0.1-0.1-0.2-0.1-0.2c-0.7-0.9-1-2-0.9-3.1c0-0.1,0-0.2,0.1-0.3c0.4-0.4,0.9-0.9,1.3-1.3h0.1
		c0,0.5-0.1,1.1-0.1,1.6c-0.1,1.3,0.4,2.3,1.5,3c0.3,0.2,0.4,0.5,0.3,0.8c0,0.4-0.2,0.6-0.6,0.7c-0.8,0.2-1.6,0.2-2.4,0
		c-1.2-0.2-2.3-0.7-3.3-1.4c-0.1,0-0.1-0.1-0.2-0.2c0.3-0.3,0.6-0.6,0.9-0.9c0,0,0.2,0,0.2,0.1c0.8,0.5,1.7,0.9,2.6,1.1
		C29,40.5,29.2,40.5,29.4,40.5z"/>
</g>
</svg>
