<?xml version="1.0" encoding="utf-8"?>
<!-- Generator: Adobe Illustrator 23.0.3, SVG Export Plug-In . SVG Version: 6.00 Build 0)  -->
<svg version="1.1" id="Layer_1" xmlns="http://www.w3.org/2000/svg" xmlns:xlink="http://www.w3.org/1999/xlink" x="0px" y="0px"
	 viewBox="0 0 63 63" style="enable-background:new 0 0 63 63;" xml:space="preserve">
<style type="text/css">
	.st0{fill:#255DBE;}
</style>
<g>
	<path class="st0" d="M28.2,42.7c0.2,0,0.4,0,0.6,0c0.3,0,0.5,0.2,0.5,0.5c0,0.9,0,1.8,0,2.8c0,0.4-0.2,0.5-0.6,0.5
		c-1.2,0-2.5,0-3.7,0c-1.5,0-3.1,0-4.6,0c-0.5,0-0.7-0.1-0.7-0.7c0-0.7,0-1.5,0-2.2c0-0.8,0-0.8,0.8-0.9c-0.2-0.5-0.4-1-0.7-1.4
		c-0.5-0.8-1.1-1.6-1.7-2.4c-1.2-1.9-1.9-4-2.2-6.2c-0.4-2.6-0.3-5.3-0.3-7.9c0-0.7,0.6-1.3,1.4-1.3c0.7,0,1.3,0.6,1.4,1.3
		c0.2,2.4,0.5,4.8,1,7.2c0.3,1.5,0.9,2.8,1.7,4c0.1,0.2,0.3,0.3,0.6,0.2c0.3-0.1,0.3-0.3,0.2-0.6c-0.4-1.2-0.8-2.5-1.2-3.7
		c-0.2-0.7,0-1.4,0.5-1.8c0.6-0.4,1.3-0.5,1.9-0.1c0.4,0.2,0.6,0.6,0.7,1c0.4,1.3,0.8,2.6,1.3,3.9c0.5,1.5,1.3,2.9,2.3,4.2
		c0.5,0.7,0.9,1.3,1,2.2C28.3,41.8,28.2,42.2,28.2,42.7z M27.2,42.7c0-0.1,0-0.1,0-0.2c0.1-1-0.1-1.8-0.7-2.6
		c-0.9-1.3-1.7-2.6-2.2-4c-0.6-1.5-1-3-1.5-4.5c-0.2-0.5-0.5-0.7-0.9-0.5c-0.4,0.1-0.5,0.5-0.4,0.9c0.2,0.6,0.4,1.2,0.6,1.9
		s0.5,1.3,0.6,2c0.2,0.7-0.2,1.3-0.9,1.6c-0.6,0.3-1.4,0-1.7-0.5c-0.8-1.4-1.5-2.8-1.8-4.3c-0.5-2.4-0.8-4.9-1-7.4
		c0-0.3-0.1-0.5-0.4-0.5s-0.4,0.2-0.4,0.4c0,1.4,0,2.9,0,4.3c0,2,0.2,4,0.8,5.9c0.6,1.7,1.5,3.3,2.6,4.7c0.6,0.7,1.1,1.6,1.3,2.5
		c0.1,0.2,0.2,0.3,0.4,0.3c1.7,0,3.4,0,5.1,0C27,42.7,27.1,42.7,27.2,42.7z M28.3,45.4c0-0.6,0-1.1,0-1.7c-2.5,0-5.1,0-7.6,0
		c0,0.6,0,1.1,0,1.7C23.3,45.4,25.8,45.4,28.3,45.4z"/>
	<path class="st0" d="M42.6,42.7c0.1,0,0.2,0,0.3,0c0.3,0,0.5,0.2,0.5,0.5c0,0.9,0,1.8,0,2.7c0,0.4-0.2,0.5-0.6,0.5
		c-1.3,0-2.5,0-3.8,0c-1.5,0-3,0-4.5,0c-0.6,0-0.7-0.1-0.7-0.7c0-0.8,0-1.5,0-2.3c0-0.6,0.1-0.7,0.7-0.7c0.1,0,0.2,0,0.3,0
		c0-0.2,0-0.5,0-0.7c0-0.9,0.2-1.6,0.7-2.3c1.7-2.3,2.8-4.9,3.6-7.7c0.1-0.3,0.2-0.7,0.3-1c0.3-0.8,1.2-1.3,2-1
		c0.8,0.2,1.4,1.1,1.1,1.9c-0.4,1.2-0.8,2.4-1.2,3.7c-0.2,0.5-0.1,0.6,0.1,0.7c0.3,0.1,0.4,0,0.7-0.4c1.2-1.9,1.7-4,2-6.1
		c0.2-1.7,0.4-3.4,0.6-5c0.1-1,1.2-1.6,2-1.1c0.4,0.2,0.6,0.5,0.6,1c0.1,2.9,0.1,5.7-0.3,8.6c-0.1,0.8-0.3,1.6-0.6,2.3
		c-0.4,0.8-0.7,1.7-1.1,2.5c-0.4,0.8-0.9,1.5-1.4,2.2s-1.1,1.5-1.4,2.3C42.7,42.6,42.6,42.7,42.6,42.7z M35.9,42.8
		c0.1,0,0.3,0,0.4,0c1.7,0,3.4,0,5.1,0c0.1,0,0.3-0.1,0.3-0.2c0.4-1.2,1-2.2,1.8-3.1c0.6-0.8,1.1-1.7,1.5-2.6
		c0.2-0.6,0.4-1.1,0.7-1.7c0.3-0.7,0.5-1.5,0.6-2.3c0.3-2.6,0.3-5.3,0.2-8c0-0.3-0.1-0.4-0.4-0.4c-0.3,0-0.3,0.2-0.4,0.4
		c-0.3,2.1-0.5,4.2-0.8,6.2C44.6,33,44,34.8,43,36.5c-0.3,0.6-0.9,0.9-1.5,0.7c-0.9-0.2-1.3-1-1-1.9c0.4-1.2,0.8-2.4,1.2-3.6
		c0.1-0.5,0-0.8-0.4-0.9s-0.7,0.1-0.8,0.5c-0.1,0.3-0.2,0.5-0.3,0.8c-0.8,2.7-1.8,5.3-3.5,7.7C36,40.8,35.8,41.7,35.9,42.8z
		 M34.8,45.5c2.5,0,5.1,0,7.6,0c0-0.6,0-1.1,0-1.7c-2.5,0-5.1,0-7.6,0C34.8,44.3,34.8,44.9,34.8,45.5z"/>
	<path class="st0" d="M28,28.1c-1.2-0.8-2.3-1.7-3.5-2.5c-0.5-0.3-0.6-0.7-0.4-1.2c0.2-0.4,0.6-0.5,1-0.5c1.3,0,2.6,0,3.9,0
		c0.3,0,0.4-0.1,0.5-0.3c0.4-1.2,0.8-2.4,1.1-3.7c0.2-0.5,0.5-0.8,0.9-0.8s0.8,0.3,0.9,0.7c0.4,1.2,0.8,2.5,1.2,3.7
		c0.1,0.2,0.2,0.3,0.4,0.3c1.3,0,2.5,0,3.8,0c0.6,0,0.9,0.2,1.1,0.7c0.2,0.5,0,1-0.5,1.3c-1,0.7-2,1.4-3,2.1
		c-0.2,0.2-0.2,0.3-0.2,0.5c0.4,1.2,0.8,2.4,1.2,3.7c0.2,0.5,0.1,0.9-0.3,1.1c-0.4,0.3-0.8,0.3-1.2,0c-1.1-0.8-2.2-1.5-3.2-2.3
		c-0.2-0.1-0.3-0.1-0.5,0c-1,0.8-2.1,1.5-3.2,2.3c-0.3,0.2-0.6,0.3-0.9,0.2c-0.5-0.2-0.8-0.7-0.6-1.2C27.1,30.9,27.6,29.5,28,28.1z
		 M38,24.9C38,24.9,38,24.8,38,24.9c-0.1-0.1-0.2-0.1-0.3-0.1c-1.3,0-2.5,0-3.8,0c-0.5,0-0.9-0.2-1-0.7c-0.2-0.6-0.4-1.3-0.6-2
		c-0.2-0.6-0.4-1.2-0.6-2c-0.1,0.2-0.1,0.3-0.1,0.4c-0.4,1.2-0.8,2.3-1.1,3.5c-0.2,0.6-0.5,0.8-1,0.8c-1.2,0-2.5,0-3.7,0
		c-0.1,0-0.2,0-0.4,0c0.1,0.1,0.2,0.1,0.2,0.2c1,0.8,2.1,1.5,3.1,2.3c0.5,0.3,0.6,0.6,0.4,1.2c-0.4,1.2-0.8,2.4-1.2,3.6
		c0,0.1-0.1,0.2-0.1,0.4c1.2-0.9,2.3-1.6,3.4-2.4c0.4-0.3,0.7-0.3,1.2,0c0.3,0.2,0.7,0.5,1,0.7c0.8,0.6,1.6,1.1,2.4,1.7
		c-0.1-0.2-0.1-0.3-0.1-0.4c-0.4-1.1-0.7-2.3-1.1-3.4c-0.2-0.7-0.2-1,0.4-1.4C35.9,26.4,36.9,25.7,38,24.9z"/>
	<path class="st0" d="M23.4,21.4c0.2,0.6,0.4,1.2,0.6,1.8c0.1,0.4,0,0.7-0.2,0.9c-0.3,0.2-0.5,0.2-0.9-0.1c-0.4-0.3-0.9-0.6-1.3-0.9
		c-0.2-0.1-0.3-0.1-0.4,0c-0.4,0.3-0.9,0.7-1.4,1c-0.3,0.2-0.6,0.2-0.9,0s-0.4-0.5-0.2-0.9c0.2-0.5,0.3-1.1,0.5-1.6
		c0.1-0.2,0-0.3-0.1-0.4c-0.4-0.3-0.8-0.6-1.3-0.9c-0.4-0.3-0.5-0.6-0.4-0.9s0.4-0.5,0.9-0.5s1,0,1.5,0c0.2,0,0.3,0,0.4-0.3
		c0.1-0.5,0.3-1,0.4-1.5c0.1-0.4,0.4-0.6,0.7-0.6c0.3,0,0.6,0.2,0.7,0.6c0.2,0.5,0.3,1,0.5,1.5c0.1,0.2,0.1,0.3,0.4,0.3
		c0.5,0,1.1,0,1.6,0c0.4,0,0.7,0.2,0.8,0.5c0.1,0.3,0,0.6-0.4,0.9C24.4,20.7,23.9,21,23.4,21.4z M19.8,22.7
		C19.8,22.7,19.9,22.7,19.8,22.7c0.4-0.2,0.7-0.4,1-0.6c0.4-0.3,0.6-0.3,1,0c0.3,0.2,0.6,0.5,1,0.7c-0.1-0.5-0.2-0.8-0.4-1.2
		c-0.1-0.5-0.1-0.7,0.3-1c0.3-0.2,0.6-0.4,0.9-0.7c-0.4-0.1-0.8-0.1-1.2-0.1c-0.5,0-0.7-0.2-0.8-0.6c-0.1-0.4-0.2-0.7-0.3-1.1h-0.1
		c-0.1,0.3-0.2,0.7-0.3,1c-0.1,0.4-0.4,0.6-0.8,0.6s-0.8,0-1.1,0c0.3,0.3,0.6,0.5,0.9,0.8s0.4,0.5,0.3,0.9
		C20,21.9,19.9,22.3,19.8,22.7z"/>
	<path class="st0" d="M41.9,22.9c-0.5,0.4-1,0.7-1.5,1.1c-0.3,0.2-0.6,0.3-0.9,0c-0.3-0.2-0.3-0.5-0.2-0.9c0.2-0.5,0.3-1.1,0.5-1.6
		c0.1-0.2,0-0.2-0.1-0.3c-0.4-0.3-0.9-0.6-1.3-1C38,20,37.9,19.7,38,19.4c0.1-0.3,0.4-0.5,0.8-0.5c0.5,0,1,0,1.5,0
		c0.3,0,0.5-0.1,0.5-0.4c0.1-0.5,0.3-1,0.4-1.4c0.1-0.4,0.4-0.6,0.7-0.6s0.6,0.2,0.7,0.6c0.2,0.5,0.3,1,0.5,1.5
		c0.1,0.2,0.2,0.3,0.4,0.3c0.5,0,1.1,0,1.6,0c0.4,0,0.7,0.2,0.8,0.5s0,0.5-0.4,0.8c-0.5,0.3-0.9,0.7-1.4,1c-0.2,0.1-0.2,0.2-0.1,0.4
		c0.2,0.5,0.3,1,0.5,1.5c0.1,0.5,0.1,0.8-0.2,1s-0.6,0.2-1-0.1C42.9,23.6,42.4,23.2,41.9,22.9z M42,18.2
		C41.9,18.2,41.9,18.2,42,18.2c-0.2,0.4-0.3,0.7-0.3,1c-0.2,0.6-0.4,0.7-1,0.7c-0.3,0-0.7,0-1,0c0.3,0.3,0.6,0.5,0.8,0.7
		c0.5,0.3,0.5,0.5,0.3,1.1c-0.1,0.3-0.2,0.7-0.3,1c0.1,0,0.1,0,0.1,0c0.3-0.2,0.6-0.4,0.9-0.7c0.3-0.2,0.6-0.2,0.9,0
		c0.3,0.2,0.7,0.5,1,0.7c0,0,0,0,0-0.1c-0.1-0.3-0.2-0.6-0.3-0.9c-0.2-0.6-0.1-0.8,0.4-1.2c0.3-0.2,0.5-0.4,0.8-0.6
		c-0.4-0.1-0.7-0.1-1.1-0.1c-0.5,0-0.7-0.1-0.9-0.7C42.2,18.9,42.1,18.5,42,18.2z"/>
</g>
</svg>
