<?xml version="1.0" encoding="utf-8"?>
<!-- Generator: Adobe Illustrator 23.0.3, SVG Export Plug-In . SVG Version: 6.00 Build 0)  -->
<svg version="1.1" id="Layer_1" xmlns="http://www.w3.org/2000/svg" xmlns:xlink="http://www.w3.org/1999/xlink" x="0px" y="0px"
	 viewBox="0 0 63 63" style="enable-background:new 0 0 63 63;" xml:space="preserve">
<style type="text/css">
	.st0{fill:#255DBE;}
</style>
<g>
	<path class="st0" d="M30.4,16.5c3.1,0,6.2,0,9.4,0c0.7,0,0.8,0.1,0.9,0.8c0.1,1.2,1,2.1,2.2,2.2c0.6,0.1,0.7,0.2,0.7,0.8
		c0,4.3,0,8.5,0,12.8c0,0.3,0,0.7-0.1,1c0,0.2,0,0.4,0.2,0.5c1.2,1.2,1.9,2.7,2.1,4.5c0.2,2.9-1.6,5.9-4.4,7c-2.7,1-5.1,0.5-7.2-1.3
		c-0.2-0.2-0.3-0.1-0.5,0c-1,0.5-1.9,1-2.9,1.5c-0.2,0.1-0.5,0.1-0.7,0c-3.4-1.6-6.6-3.6-9.3-6.2c-1.4-1.3-2.6-2.8-3.2-4.7
		c-0.2-0.7-0.4-1.5-0.4-2.3c0-4.2,0-8.4,0-12.7c0-0.6,0.2-0.8,0.8-0.8c1.2-0.1,2.1-1,2.2-2.2c0-0.6,0.2-0.7,0.8-0.7
		C24.1,16.5,27.3,16.5,30.4,16.5z M21.3,17.7c0,0.1-0.1,0.3-0.1,0.4c-0.4,1.3-1.2,2.1-2.5,2.5c-0.3,0.1-0.4,0.2-0.4,0.5
		c0,4,0,8,0,11.9c0,0.5,0.1,0.9,0.2,1.4c0.4,1.6,1.3,2.9,2.4,4.1c2.6,2.8,5.9,4.8,9.3,6.5c0.1,0,0.2,0.1,0.3,0
		c0.9-0.4,1.7-0.9,2.6-1.4c-0.2-0.4-0.5-0.8-0.7-1.2c-0.5,0.3-1.1,0.6-1.6,0.9c-0.3,0.2-0.6,0.2-1,0c-1.2-0.7-2.4-1.3-3.5-2.1
		c-1.9-1.2-3.7-2.6-5.1-4.4c-0.9-1.1-1.5-2.3-1.5-3.7c0-3.6,0-7.2,0-10.8c0-0.4,0.1-0.6,0.4-0.8c0.8-0.4,1.4-1.1,1.9-1.9
		c0.2-0.3,0.4-0.4,0.7-0.4c5.1,0,10.1,0,15.2,0c0.3,0,0.6,0.1,0.7,0.4c0.4,0.8,1.1,1.4,1.9,1.9c0.3,0.2,0.5,0.4,0.5,0.8
		c0,2.1,0,4.2,0,6.3c0,1.3,0,2.7,0,4c0,0.1,0,0.3,0.1,0.4c0.4,0.2,0.8,0.4,1.2,0.5c0-4.3,0-8.5,0-12.8c-0.1,0-0.2-0.1-0.4-0.1
		c-1.2-0.4-2.1-1.2-2.4-2.5c-0.1-0.3-0.2-0.4-0.5-0.4c-5.8,0-11.5,0-17.3,0C21.6,17.7,21.5,17.7,21.3,17.7z M33.1,39.5
		c0,3.1,2.6,5.8,5.7,5.8c3.2,0,5.8-2.6,5.8-5.7c0-3.1-2.6-5.7-5.7-5.8C35.7,33.8,33.1,36.3,33.1,39.5z M29.8,29.7c0-3.1,0-6.2,0-9.3
		c-0.1,0-0.2,0-0.2,0c-2.1,0-4.1,0-6.2,0c-0.1,0-0.3,0.1-0.4,0.2c-0.5,0.6-1,1.2-1.7,1.6c-0.2,0.1-0.3,0.3-0.3,0.5
		c0,2.2,0,4.4,0,6.6c0,0.1,0,0.2,0,0.3C24,29.7,26.9,29.7,29.8,29.7z M39.8,29.7c0-0.1,0-0.1,0-0.2c0-2.3,0-4.6,0-6.8
		c0-0.1-0.1-0.3-0.2-0.4c-0.5-0.6-1.1-1.1-1.6-1.7c-0.2-0.2-0.3-0.3-0.5-0.3c-2,0-4,0-6,0c-0.1,0-0.2,0-0.4,0c0,3.1,0,6.2,0,9.3
		C34,29.7,36.9,29.7,39.8,29.7z M29.8,41.8c0-0.2,0-0.3,0-0.4c0-3.4,0-6.7,0-10.1c0-0.3-0.1-0.4-0.4-0.4c-2.7,0-5.4,0-8,0
		c-0.1,0-0.2,0-0.4,0c0,0.5,0,0.9,0,1.4c-0.1,1.4,0.4,2.6,1.3,3.6c1.2,1.5,2.8,2.8,4.4,3.9C27.7,40.5,28.7,41.1,29.8,41.8z
		 M39.8,30.9c-2.9,0-5.8,0-8.7,0c0,3.6,0,7.2,0,10.8c0.3-0.1,0.5-0.3,0.7-0.4c0.2-0.1,0.3-0.3,0.3-0.5C32,40.1,32,39.3,32,38.6
		c0.3-3.1,3-5.8,6.1-6c0.6-0.1,1.1,0,1.7,0c0-0.5,0-0.9,0-1.3C39.8,31.2,39.8,31.1,39.8,30.9z"/>
	<path class="st0" d="M37.8,40.5c0.5-0.5,1-1,1.5-1.5c0.6-0.6,1.2-1.2,1.8-1.8c0.3-0.3,0.6-0.3,0.9,0c0.3,0.2,0.3,0.6,0,0.9
		c-1.2,1.2-2.4,2.5-3.7,3.7c-0.3,0.3-0.6,0.3-0.9,0c-0.5-0.5-1-1-1.5-1.5c-0.3-0.3-0.3-0.7,0-0.9s0.6-0.2,0.9,0.1
		C37.1,39.7,37.4,40.1,37.8,40.5z"/>
</g>
</svg>
