<?xml version="1.0" encoding="utf-8"?>
<!-- Generator: Adobe Illustrator 23.0.3, SVG Export Plug-In . SVG Version: 6.00 Build 0)  -->
<svg version="1.1" id="Layer_1" xmlns="http://www.w3.org/2000/svg" xmlns:xlink="http://www.w3.org/1999/xlink" x="0px" y="0px"
	 viewBox="0 0 63 63" style="enable-background:new 0 0 63 63;" xml:space="preserve">
<style type="text/css">
	.st0{fill:#255DBE;}
</style>
<g>
	<path class="st0" d="M35.1,16.5H24.6l-8.1,7.9v5.9h5.1L35.1,16.5z M17.5,29.2v-4.4l7.4-7.3h3l-6.1,6.2c-0.2,0.2-0.2,0.5,0,0.7
		c0.1,0.1,0.2,0.1,0.4,0.1c0.1,0,0.3-0.1,0.4-0.2l6.7-6.9l0,0h3.2L21.2,29.2H17.5z"/>
	<path class="st0" d="M20.1,25.5l-1.6,1.6c-0.2,0.2-0.2,0.5,0,0.7c0.1,0.1,0.2,0.1,0.4,0.1c0.1,0,0.3-0.1,0.4-0.2l1.6-1.6
		c0.2-0.2,0.2-0.5,0-0.7C20.6,25.3,20.3,25.3,20.1,25.5z"/>
	<path class="st0" d="M27.9,47.1h10.5l8.1-7.9v-5.9h-5.1L27.9,47.1z M45.4,34.3v4.4L38,46h-3l6.1-6.2c0.2-0.2,0.2-0.5,0-0.7
		s-0.5-0.2-0.7,0L33.6,46l0,0h-3.2l11.4-11.7H45.4z"/>
	<path class="st0" d="M42.5,38.2c0.1,0,0.3-0.1,0.4-0.2l1.6-1.6c0.2-0.2,0.2-0.5,0-0.7s-0.5-0.2-0.7,0l-1.6,1.6
		c-0.2,0.2-0.2,0.5,0,0.7C42.2,38.1,42.4,38.2,42.5,38.2z"/>
	<path class="st0" d="M20.3,41.6l-1.6,1.6c-0.2,0.2-0.2,0.5,0,0.7c0.1,0.1,0.2,0.1,0.4,0.1c0.1,0,0.3-0.1,0.4-0.2l1.6-1.6
		c0.2-0.2,0.2-0.5,0-0.7C20.8,41.4,20.5,41.4,20.3,41.6z"/>
	<path class="st0" d="M40.2,27.5l-5.1-5.1L16.7,40.5v5.9h5.1L40.2,27.5z M38.7,27.5l-2,2c-1.8-0.5-3.2-1.8-3.7-3.7l2-2L38.7,27.5z
		 M21.3,45.3h-3.6v-4.4l14.5-14.2c0.2,0.6,0.6,1.2,1,1.7L22,39.8c-0.2,0.2-0.2,0.5,0,0.7c0.1,0.1,0.2,0.1,0.4,0.1
		c0.1,0,0.3-0.1,0.4-0.2L33.9,29c0.6,0.5,1.3,0.9,2,1.2L21.3,45.3z"/>
	<path class="st0" d="M46.2,20l-1.8-1.6l-1.6-1.9c-0.3-0.4-0.8-0.6-1.3-0.6s-1,0.2-1.4,0.5l-3,3c-0.3,0.3-0.5,0.8-0.5,1.3
		s0.2,1,0.5,1.3c0.7,0.7,1.9,0.7,2.6,0l0.7-0.7c0.3-0.3,0.8-0.3,1.1,0s0.3,0.8,0,1.1l-0.7,0.7c-0.7,0.7-0.7,1.9,0,2.6
		c0.3,0.3,0.8,0.5,1.3,0.5s1-0.2,1.3-0.5l3-3c0.4-0.4,0.6-0.9,0.5-1.4C46.9,20.8,46.6,20.3,46.2,20z M45.6,22l-3,3
		c-0.1,0.1-0.3,0.2-0.6,0.2s-0.4-0.1-0.6-0.2c-0.3-0.3-0.3-0.8,0-1.1l0.7-0.7c0.4-0.4,0.5-0.8,0.5-1.3c0-1-0.8-1.8-1.8-1.8
		c-0.5,0-1,0.2-1.3,0.5l-0.7,0.7c-0.3,0.3-0.8,0.3-1.1,0c-0.1-0.1-0.2-0.3-0.2-0.6s0.1-0.4,0.2-0.6l3-3C41,17,41.2,17,41.4,17
		s0.4,0.1,0.6,0.3l3.5,3.6c0.2,0.2,0.3,0.4,0.3,0.6C45.9,21.6,45.8,21.8,45.6,22z"/>
</g>
</svg>
