<?xml version="1.0" encoding="utf-8"?>
<!-- Generator: Adobe Illustrator 23.0.3, SVG Export Plug-In . SVG Version: 6.00 Build 0)  -->
<svg version="1.1" id="Layer_1" xmlns="http://www.w3.org/2000/svg" xmlns:xlink="http://www.w3.org/1999/xlink" x="0px" y="0px"
	 viewBox="0 0 63 63" style="enable-background:new 0 0 63 63;" xml:space="preserve">
<style type="text/css">
	.st0{fill:#255DBE;}
</style>
<g>
	<path class="st0" d="M23.7,41.6c0.1-0.3,0.1-0.7,0.2-1c0.5-1.9,1.5-3.4,3.3-4.4c0.2-0.1,0.3-0.3,0.3-0.6c0-6.1,0-12.3,0-18.4
		c0-1.7,1.1-3,2.8-3.2c1.5-0.2,3.2,1.1,3.3,2.6c0.1,1.3,0.1,2.6,0.1,3.9c0,5.1,0,10.1,0,15.2c0,0.2,0.1,0.4,0.3,0.5
		c2.4,1.4,3.8,4,3.4,6.8c-0.4,3-2.5,5.2-5.3,5.9c-0.3,0.1-0.6,0.1-1,0.2c-0.3,0-0.6,0-0.9,0c-0.1,0-0.2-0.1-0.3-0.1
		c-2.9-0.3-5.3-2.4-5.9-5.2c-0.1-0.4-0.1-0.8-0.2-1.1C23.7,42.3,23.7,41.9,23.7,41.6z M32.5,26.7c0-3.2,0-6.4,0-9.5
		c0-1.1-0.9-2-1.9-2s-1.9,0.9-1.9,2c0,6.3,0,12.6,0,18.9c0,0.5-0.2,0.8-0.7,1.1c-2.2,1.1-3.5,3.6-3,6c0.6,3.2,3.5,5,6.2,4.6
		c2.8-0.4,5.1-2.9,5-5.7c-0.1-2.3-1.2-4-3.2-5c-0.4-0.2-0.5-0.4-0.5-0.8C32.5,33,32.5,29.9,32.5,26.7z"/>
	<path class="st0" d="M39.3,23.5c-0.2,0.4-0.5,0.5-0.9,0.5c-0.7,0-1.4,0-2.2,0c-0.4,0-0.7-0.2-0.7-0.6s0.2-0.6,0.7-0.6
		c0.8,0,1.6,0,2.4,0c0.3,0,0.5,0.2,0.7,0.5C39.3,23.3,39.3,23.4,39.3,23.5z"/>
	<path class="st0" d="M39.3,27.3c-0.2,0.4-0.5,0.5-0.9,0.5c-0.7,0-1.4,0-2.1,0c-0.4,0-0.7-0.2-0.7-0.6s0.2-0.6,0.7-0.6
		c0.7,0,1.4,0,2.1,0c0.4,0,0.7,0.1,0.9,0.5C39.3,27.1,39.3,27.2,39.3,27.3z"/>
	<path class="st0" d="M39.3,31c-0.2,0.4-0.5,0.5-0.9,0.5c-0.7,0-1.3,0-2,0c-0.5,0-0.8-0.2-0.8-0.6s0.3-0.6,0.8-0.6
		c0.7,0,1.4,0,2.1,0c0.4,0,0.7,0.1,0.9,0.5C39.3,30.8,39.3,30.9,39.3,31z"/>
	<path class="st0" d="M39.3,19.7c-0.2,0.4-0.4,0.5-0.8,0.5c-0.7,0-1.5,0-2.2,0c-0.4,0-0.7-0.2-0.7-0.6s0.2-0.6,0.6-0.6
		c0.8,0,1.6,0,2.4,0c0.3,0,0.5,0.2,0.7,0.5C39.3,19.5,39.3,19.6,39.3,19.7z"/>
	<path class="st0" d="M39.3,34.8c-0.2,0.4-0.5,0.5-0.9,0.5c-0.7,0-1.4,0-2.1,0c-0.4,0-0.7-0.3-0.7-0.6s0.2-0.5,0.5-0.6
		c0.9,0,1.7,0,2.6,0c0.3,0,0.4,0.2,0.6,0.5C39.3,34.6,39.3,34.7,39.3,34.8z"/>
	<path class="st0" d="M39.3,16c-0.2,0.4-0.4,0.5-0.8,0.5c-0.8,0-1.5,0-2.3,0c-0.3,0-0.5-0.1-0.6-0.4c-0.1-0.3,0-0.5,0.2-0.7
		c0.1-0.1,0.3-0.1,0.4-0.1c0.8,0,1.5,0,2.3,0c0.3,0,0.5,0.2,0.7,0.4C39.3,15.8,39.3,15.9,39.3,16z"/>
	<path class="st0" d="M31.2,34.6c0,1.2,0,2.3,0,3.5c0,0.3,0.1,0.4,0.4,0.5c1.6,0.4,2.8,1.9,2.7,3.6c0,1.7-1.2,3.2-2.8,3.6
		c-1.9,0.5-4-0.7-4.5-2.6c-0.5-2,0.6-4,2.5-4.6c0.3-0.1,0.4-0.2,0.4-0.6c0-2.3,0-4.6,0-6.9c0-0.1,0-0.2,0-0.2
		c0.1-0.4,0.3-0.6,0.6-0.6c0.3,0,0.5,0.3,0.5,0.6c0,1,0,2.1,0,3.1C31.2,34.2,31.2,34.4,31.2,34.6z M28.1,42.1c0,1.4,1.1,2.5,2.5,2.5
		s2.5-1.1,2.5-2.5s-1.1-2.5-2.6-2.5C29.2,39.6,28.1,40.7,28.1,42.1z"/>
</g>
</svg>
