<?xml version="1.0" encoding="utf-8"?>
<!-- Generator: Adobe Illustrator 23.0.3, SVG Export Plug-In . SVG Version: 6.00 Build 0)  -->
<svg version="1.1" id="Layer_1" xmlns="http://www.w3.org/2000/svg" xmlns:xlink="http://www.w3.org/1999/xlink" x="0px" y="0px"
	 viewBox="0 0 63 63" style="enable-background:new 0 0 63 63;" xml:space="preserve">
<style type="text/css">
	.st0{fill:#255DBE;}
</style>
<g>
	<path class="st0" d="M41.1,42.2c0.1-0.4-0.1-1,0.5-1.1c0.7,0,0.5,0.6,0.6,1.1c0.1,0,0.2,0,0.4,0c1.4,0,2.8,0,4.3,0
		c0.5,0,0.7,0.2,0.7,0.7c0,0.4,0,0.8,0,1.2c-0.2,1.4-1.3,2.3-2.7,2.3c-5.7,0-11.4,0-17.1,0c-1.8,0-3.5,0-5.3,0
		c-1.6,0-2.8-1.2-2.8-2.8c0-8.1,0-16.3,0-24.4c0-0.9-0.5-1.5-1.2-1.7c-1-0.2-1.9,0.5-2,1.5c0,0.4,0,0.7,0,1.1s-0.2,0.6-0.5,0.6
		c-0.3,0-0.5-0.2-0.5-0.6c0-0.5,0-1,0.1-1.5c0.2-1.3,1.3-2.2,2.6-2.2c7.1,0,14.3,0,21.4,0c1.4,0,2.5,1,2.7,2.4c0,0.1,0,0.1,0,0.2
		c0,0.3-0.2,0.6-0.5,0.6s-0.5-0.2-0.5-0.6c-0.1-0.8-0.5-1.4-1.3-1.5c-0.1,0-0.3,0-0.4,0c-6.3,0-12.7,0-19,0c-0.1,0-0.1,0-0.2,0
		c0,0.1,0,0.1,0.1,0.2c0.3,0.5,0.4,1,0.4,1.6c0,8.1,0,16.3,0,24.4c0,1,0.7,1.7,1.7,1.7c0.8,0,1.5-0.7,1.5-1.5c0-0.3,0-0.6,0-1
		c0-0.6,0.2-0.7,0.7-0.7c3.1,0,6.1,0,9.2,0c2.3,0,4.6,0,6.9,0C40.9,42.2,41,42.2,41.1,42.2z M46.5,43.3c-7.1,0-14.3,0-21.4,0
		c0.1,0.8-0.1,1.5-0.5,2.1c0.1,0,0.2,0,0.3,0c6.7,0,13.4,0,20.1,0c0.1,0,0.3,0,0.4,0C46.2,45.2,46.6,44.4,46.5,43.3z"/>
	<path class="st0" d="M31.5,30.4c0-2.3,0-4.5,0-6.8c0-1.7,1.1-2.8,2.8-2.8c3.5,0,7,0,10.4,0c1.7,0,2.8,1.1,2.8,2.8
		c0,4.6,0,9.1,0,13.7c0,1.6-1.2,2.8-2.8,2.8c-3.5,0-6.9,0-10.4,0c-1.8,0-2.9-1.1-2.9-2.9C31.5,34.9,31.5,32.7,31.5,30.4z M32.6,30.4
		c0,2.3,0,4.6,0,6.9c0,1,0.7,1.7,1.7,1.7c3.5,0,7,0,10.5,0c1.1,0,1.8-0.7,1.8-1.7c0-4.6,0-9.1,0-13.7c0-1-0.7-1.7-1.7-1.7
		c-3.5,0-7,0-10.5,0c-1.1,0-1.8,0.7-1.8,1.8C32.6,25.9,32.6,28.1,32.6,30.4z"/>
	<path class="st0" d="M26.6,26.1c-1,0-2,0-3,0c-0.4,0-0.7-0.2-0.7-0.5s0.3-0.5,0.6-0.5c2.1,0,4.1,0,6.2,0c0.4,0,0.6,0.2,0.6,0.5
		s-0.2,0.5-0.7,0.5C28.7,26.1,27.7,26.1,26.6,26.1z"/>
	<path class="st0" d="M26.7,21.8c-1,0-2.1,0-3.1,0c-0.4,0-0.7-0.2-0.7-0.5s0.3-0.5,0.7-0.5c2,0,4.1,0,6.1,0c0.4,0,0.7,0.2,0.7,0.5
		s-0.2,0.5-0.7,0.5C28.7,21.8,27.7,21.8,26.7,21.8z"/>
	<path class="st0" d="M25.1,27.2c0.5,0,1,0,1.5,0c0.4,0,0.6,0.2,0.6,0.5s-0.2,0.5-0.6,0.5c-1,0-2,0-3,0c-0.4,0-0.6-0.2-0.6-0.5
		s0.2-0.5,0.6-0.5C24.1,27.2,24.6,27.2,25.1,27.2z"/>
	<path class="st0" d="M25.1,22.9c0.5,0,1,0,1.5,0c0.4,0,0.6,0.2,0.6,0.5s-0.2,0.5-0.6,0.5c-1,0-2,0-3,0c-0.4,0-0.6-0.2-0.6-0.5
		s0.2-0.5,0.7-0.5C24.1,22.9,24.6,22.9,25.1,22.9z"/>
	<path class="st0" d="M29.4,28.3c-0.2,0-0.4,0-0.5,0c-0.3,0-0.5-0.2-0.5-0.5s0.2-0.5,0.5-0.5c0.4,0,0.7,0,1.1,0
		c0.3,0,0.5,0.2,0.5,0.5s-0.2,0.5-0.5,0.5S29.5,28.3,29.4,28.3z"/>
	<path class="st0" d="M29.4,22.9c0.2,0,0.4,0,0.5,0c0.3,0,0.5,0.2,0.5,0.5s-0.2,0.5-0.5,0.5c-0.4,0-0.8,0-1.1,0
		c-0.3,0-0.5-0.3-0.5-0.5c0-0.3,0.2-0.5,0.5-0.5c0.1,0,0.2,0,0.3,0C29.2,22.9,29.3,22.9,29.4,22.9L29.4,22.9z"/>
	<path class="st0" d="M39.5,22.9c1.7,0,3.4,0,5.2,0c0.6,0,0.7,0.2,0.7,0.7c0,1.3,0,2.6,0,3.9c0,0.5-0.2,0.7-0.7,0.7
		c-3.5,0-6.9,0-10.4,0c-0.5,0-0.7-0.2-0.7-0.7c0-1.3,0-2.7,0-4c0-0.5,0.2-0.7,0.7-0.7C36.1,22.9,37.8,22.9,39.5,22.9z M44.3,27.2
		c0-1.1,0-2.1,0-3.2c-3.2,0-6.4,0-9.6,0c0,1.1,0,2.1,0,3.2C37.9,27.2,41.1,27.2,44.3,27.2z"/>
	<path class="st0" d="M34.7,31.5c-0.2,0-0.4,0-0.5,0c-0.3,0-0.5-0.2-0.5-0.5s0.2-0.5,0.5-0.5c0.4,0,0.7,0,1.1,0
		c0.3,0,0.5,0.2,0.5,0.5s-0.2,0.5-0.5,0.5C35.1,31.5,34.9,31.5,34.7,31.5z"/>
	<path class="st0" d="M37.9,31.5c-0.2,0-0.4,0-0.5,0c-0.3,0-0.5-0.2-0.5-0.5s0.2-0.5,0.5-0.5c0.4,0,0.7,0,1.1,0
		c0.3,0,0.5,0.2,0.5,0.5s-0.2,0.5-0.5,0.5C38.3,31.5,38.1,31.5,37.9,31.5z"/>
	<path class="st0" d="M41.1,31.5c-0.2,0-0.3,0-0.5,0c-0.3,0-0.5-0.2-0.5-0.5s0.2-0.5,0.5-0.5c0.4,0,0.7,0,1.1,0
		c0.3,0,0.5,0.2,0.5,0.5s-0.2,0.5-0.5,0.5C41.5,31.5,41.3,31.5,41.1,31.5z"/>
	<path class="st0" d="M44.4,31.5c-0.2,0-0.4,0-0.5,0c-0.3,0-0.5-0.2-0.5-0.5s0.2-0.5,0.5-0.5c0.4,0,0.7,0,1.1,0
		c0.3,0,0.5,0.2,0.5,0.5s-0.2,0.5-0.5,0.5S44.5,31.5,44.4,31.5z"/>
	<path class="st0" d="M34.7,33.7c0.2,0,0.4,0,0.5,0c0.3,0,0.5,0.3,0.5,0.5c0,0.3-0.2,0.5-0.5,0.5c-0.4,0-0.7,0-1.1,0
		c-0.3,0-0.5-0.2-0.5-0.5s0.2-0.5,0.5-0.5C34.4,33.6,34.5,33.7,34.7,33.7L34.7,33.7z"/>
	<path class="st0" d="M37.9,34.7c-0.2,0-0.3,0-0.5,0c-0.3,0-0.5-0.2-0.5-0.5s0.2-0.5,0.5-0.5c0.4,0,0.7,0,1.1,0
		c0.3,0,0.5,0.2,0.5,0.5s-0.2,0.5-0.5,0.5C38.3,34.7,38.1,34.7,37.9,34.7z"/>
	<path class="st0" d="M41.1,34.7c-0.2,0-0.4,0-0.5,0c-0.3,0-0.5-0.2-0.5-0.5s0.2-0.5,0.5-0.5c0.4,0,0.8,0,1.1,0s0.5,0.3,0.5,0.5
		c0,0.3-0.2,0.5-0.5,0.5C41.5,34.7,41.3,34.7,41.1,34.7L41.1,34.7z"/>
	<path class="st0" d="M44.4,34.7c-0.2,0-0.4,0-0.5,0c-0.3,0-0.5-0.2-0.5-0.5s0.2-0.5,0.5-0.5c0.4,0,0.7,0,1.1,0
		c0.3,0,0.5,0.2,0.5,0.5s-0.2,0.5-0.5,0.5S44.5,34.7,44.4,34.7z"/>
	<path class="st0" d="M34.7,37.9c-0.2,0-0.4,0-0.6,0c-0.3,0-0.5-0.3-0.5-0.5c0-0.3,0.2-0.5,0.5-0.5c0.4,0,0.8,0,1.1,0
		s0.5,0.2,0.5,0.5s-0.2,0.5-0.5,0.5C35.1,37.9,34.9,37.9,34.7,37.9z"/>
	<path class="st0" d="M37.9,36.9c0.2,0,0.4,0,0.5,0c0.3,0,0.5,0.2,0.5,0.5s-0.2,0.5-0.5,0.5c-0.4,0-0.7,0-1.1,0
		c-0.3,0-0.5-0.2-0.5-0.5s0.2-0.5,0.5-0.5C37.6,36.9,37.7,36.9,37.9,36.9z"/>
	<path class="st0" d="M41.1,37.9c-0.2,0-0.4,0-0.5,0c-0.3,0-0.5-0.3-0.5-0.5c0-0.3,0.2-0.5,0.5-0.5c0.4,0,0.7,0,1.1,0
		c0.3,0,0.5,0.2,0.5,0.5s-0.2,0.5-0.5,0.5C41.5,37.9,41.3,37.9,41.1,37.9z"/>
	<path class="st0" d="M44.3,37.9c-0.2,0-0.4,0-0.5,0c-0.3,0-0.5-0.2-0.5-0.5s0.2-0.5,0.5-0.5c0.4,0,0.8,0,1.1,0s0.5,0.3,0.5,0.5
		c0,0.3-0.2,0.5-0.5,0.5C44.7,37.9,44.5,37.9,44.3,37.9z"/>
</g>
<g>
	<path class="st0" d="M23.2,35.1H24v-4.4h2.3c1,0,1.7,0.2,2.3,0.5c0.6,0.4,1,1.1,1,2c0,0.8-0.3,1.4-0.8,1.9
		c-0.6,0.6-1.3,0.9-2.6,0.9h-1.1v0.8h4.1v1h-4.1v1.4H24v-1.4h-0.8v-1H24V36h-0.8V35.1z M27.8,32c-0.4-0.2-0.8-0.3-1.5-0.3h-1.1v3.4
		h1c0.9,0,1.5-0.2,1.8-0.5c0.4-0.4,0.5-0.8,0.5-1.3C28.4,32.7,28.2,32.3,27.8,32z"/>
</g>
</svg>
