<?xml version="1.0" encoding="utf-8"?>
<!-- Generator: Adobe Illustrator 23.0.3, SVG Export Plug-In . SVG Version: 6.00 Build 0)  -->
<svg version="1.1" id="Layer_1" xmlns="http://www.w3.org/2000/svg" xmlns:xlink="http://www.w3.org/1999/xlink" x="0px" y="0px"
	 viewBox="0 0 63 63" style="enable-background:new 0 0 63 63;" xml:space="preserve">
<style type="text/css">
	.st0{fill:#255DBE;}
</style>
<g>
	<path class="st0" d="M19.5,28.3c0.5,0,0.9,0,1.4,0c0-0.1,0-0.2,0-0.3c0-1.9,0-3.9,0-5.8c0-0.4,0.1-0.6,0.6-0.6c2.1,0,4.3,0,6.4,0
		c0.5,0,0.6,0.1,0.6,0.6c0,1.9,0,3.9,0,5.8c0,0.1,0,0.2,0,0.3c0.4,0,0.7,0,1.1,0c0-0.1,0-0.2,0-0.3c0-1.6,0-3.1,0-4.7
		c0-0.5,0.1-0.6,0.6-0.6c3.8,0,7.6,0,11.3,0c0.5,0,0.6,0.1,0.6,0.6c0,1.5,0,3.1,0,4.6c0,0.1,0,0.2,0,0.3c0.5,0,0.9,0,1.4,0
		c0-0.1,0-0.3,0-0.4c0-3.5,0-6.9,0-10.4c0-0.6,0.1-0.7,0.7-0.7c0.5,0,1.1,0,1.6,0c0.6,0,0.7,0.1,0.7,0.7c0,6.5,0,13.1,0,19.6
		c0,2.7,0,5.5,0,8.2c0,0.6-0.1,0.7-0.7,0.7c-0.6,0-1.2,0-1.8,0c-0.4,0-0.5-0.1-0.5-0.5c0-1,0-1.9,0-2.9c0-0.1,0-0.2,0-0.3
		c-8,0-16,0-24.1,0c0,0.1,0,0.2,0,0.3c0,1,0,1.9,0,2.9c0,0.4-0.1,0.5-0.5,0.5c-0.6,0-1.2,0-1.9,0c-0.4,0-0.6-0.2-0.6-0.6
		c0-3.3,0-6.7,0-10c0-5.9,0-11.9,0-17.8c0-0.6,0.1-0.7,0.7-0.7s1.1,0,1.7,0c0.4,0,0.6,0.1,0.6,0.6c0,3.5,0,7,0,10.4
		C19.5,28,19.5,28.2,19.5,28.3z M34.6,39.5c0-0.1,0-0.2,0-0.4c0-1.9,0-3.8,0-5.8c0-0.5,0.1-0.6,0.6-0.6c2.1,0,4.2,0,6.3,0
		c0.5,0,0.6,0.1,0.6,0.6c0,1.9,0,3.9,0,5.8c0,0.1,0,0.2,0,0.3c0.5,0,0.9,0,1.4,0c0-2.8,0-5.5,0-8.3c-8,0-16,0-24,0
		c0,2.8,0,5.5,0,8.3c0.5,0,0.9,0,1.4,0c0-0.1,0-0.2,0-0.3c0-1.6,0-3.3,0-4.9c0-0.5,0.1-0.6,0.6-0.6c1.8,0,3.7,0,5.5,0
		c0.5,0,0.6,0.1,0.6,0.6c0,1.6,0,3.3,0,4.9c0,0.1,0,0.2,0,0.3c0.2,0,0.4,0,0.6,0c0-0.1,0-0.2,0-0.3c0-1.3,0-2.6,0-3.9
		c0-0.5,0.1-0.6,0.6-0.6c1.5,0,3,0,4.5,0c0.4,0,0.6,0.1,0.6,0.6c0,1.3,0,2.6,0,3.9c0,0.1,0,0.2,0,0.3C34.2,39.5,34.3,39.5,34.6,39.5
		z M30.4,28.3c3.6,0,7.3,0,10.9,0c0-1.6,0-3.2,0-4.7c-1,0-2,0-3,0c0,0.5,0,0.9,0,1.4c0,0.4-0.2,0.6-0.6,0.6c-1.2,0-2.5,0-3.7,0
		c-0.4,0-0.6-0.1-0.6-0.5c0-0.5,0-0.9,0-1.4c-1,0-2,0-3.1,0C30.4,25.1,30.4,26.7,30.4,28.3z M18.6,45.3c0-9.2,0-18.3,0-27.5
		c-0.4,0-0.8,0-1.3,0c0,9.2,0,18.3,0,27.5C17.8,45.3,18.2,45.3,18.6,45.3z M45.6,45.3c0-9.2,0-18.3,0-27.5c-0.4,0-0.8,0-1.3,0
		c0,9.2,0,18.3,0,27.5C44.8,45.3,45.2,45.3,45.6,45.3z M19.5,30.3c8,0,16,0,24,0c0-0.4,0-0.8,0-1.1c-8,0-16,0-24,0
		C19.5,29.6,19.5,29.9,19.5,30.3z M43.5,40.3c-8,0-16,0-24,0c0,0.4,0,0.8,0,1.2c8,0,16,0,24,0C43.5,41.1,43.5,40.7,43.5,40.3z
		 M39.9,33.6c0,0.6,0,1.2,0,1.8c0,0.4-0.1,0.6-0.6,0.6c-0.6,0-1.3,0-1.9,0c-0.5,0-0.6-0.1-0.6-0.6c0-0.6,0-1.1,0-1.7
		c-0.5,0-0.9,0-1.4,0c0,2,0,3.9,0,5.8c2,0,3.9,0,5.9,0c0-2,0-3.9,0-5.8C40.8,33.6,40.4,33.6,39.9,33.6z M26.2,22.4
		c0,0.6,0,1.1,0,1.7c0,0.5-0.1,0.6-0.7,0.6s-1.2,0-1.8,0c-0.5,0-0.6-0.1-0.6-0.6c0-0.6,0-1.1,0-1.7c-0.5,0-0.9,0-1.4,0
		c0,2,0,3.9,0,5.8c2,0,3.9,0,5.9,0c0-2,0-3.9,0-5.9C27.1,22.4,26.7,22.4,26.2,22.4z M26.7,39.4c0-1.7,0-3.4,0-5c-0.4,0-0.7,0-1.1,0
		c0,0.5,0,1,0,1.5c0,0.4-0.1,0.5-0.5,0.5c-0.6,0-1.1,0-1.7,0c-0.4,0-0.5-0.1-0.5-0.6s0-1,0-1.5c-0.4,0-0.8,0-1.1,0c0,1.7,0,3.3,0,5
		C23.4,39.4,25.1,39.4,26.7,39.4z M29.1,39.4c1.4,0,2.7,0,4,0c0-1.3,0-2.7,0-4c-0.3,0-0.5,0-0.7,0c0,0,0,0,0,0.1c0,0.3,0,0.7,0,1
		c0,0.4-0.1,0.6-0.6,0.6c-0.5,0-0.9,0-1.4,0c-0.4,0-0.5-0.2-0.5-0.5c0-0.4,0-0.8,0-1.2c-0.3,0-0.5,0-0.8,0
		C29.1,36.8,29.1,38.1,29.1,39.4z M34.3,24.7c1.1,0,2.1,0,3.1,0c0-0.4,0-0.7,0-1.1c-1,0-2.1,0-3.1,0C34.3,23.9,34.3,24.3,34.3,24.7z
		 M23.9,22.4c0,0.5,0,1,0,1.5c0.5,0,0.9,0,1.4,0c0-0.5,0-1,0-1.5C24.9,22.4,24.4,22.4,23.9,22.4z M39.1,33.6c-0.5,0-1,0-1.4,0
		c0,0.5,0,1,0,1.5c0.4,0,0.9,0,1.3,0c0.1,0,0.2-0.1,0.2-0.2C39.1,34.5,39.1,34.1,39.1,33.6z M24.8,34.4c-0.4,0-0.8,0-1.1,0
		c0,0.4,0,0.8,0,1.2c0.4,0,0.8,0,1.1,0C24.8,35.2,24.8,34.8,24.8,34.4z M31.5,36.3c0-0.3,0-0.6,0-0.8c-0.3,0-0.5,0-0.8,0
		c0,0.3,0,0.6,0,0.8C31,36.3,31.2,36.3,31.5,36.3z"/>
</g>
</svg>
