<?xml version="1.0" encoding="utf-8"?>
<!-- Generator: Adobe Illustrator 23.0.3, SVG Export Plug-In . SVG Version: 6.00 Build 0)  -->
<svg version="1.1" id="Layer_1" xmlns="http://www.w3.org/2000/svg" xmlns:xlink="http://www.w3.org/1999/xlink" x="0px" y="0px"
	 viewBox="0 0 63 63" style="enable-background:new 0 0 63 63;" xml:space="preserve">
<style type="text/css">
	.st0{fill:#255DBE;}
</style>
<g>
	<path class="st0" d="M19.6,30.5c-0.5,0.5-0.9,1-1.1,1.6c-0.8,2.2,0.6,4.7,2.9,5.1c1.9,0.4,4-0.6,4.6-2.8c0-0.2,0-0.3,0.1-0.5
		c0.1-0.3,0.3-0.6,0.7-0.6c0.3,0,0.6,0.3,0.6,0.6c0,0.5-0.1,1-0.3,1.4c-0.8,1.7-2.1,2.7-3.9,3c-0.5,0.1-1.1,0-1.6,0
		c-0.2,0-0.2,0-0.3,0.2c-0.6,1.4,0,3.2,1.3,4c0.1,0.1,0.2,0.1,0.3,0.2c0.3,0.2,0.4,0.6,0.2,0.9c-0.2,0.3-0.5,0.4-0.9,0.2
		c-0.6-0.3-1.1-0.8-1.5-1.3c-1-1.3-1.2-2.8-0.7-4.3c0.1-0.2,0-0.3-0.2-0.3c-1.2-0.7-2.2-1.7-2.5-3c-0.5-2.1,0-3.8,1.5-5.3
		c0.1-0.1,0.2-0.2,0.1-0.3c-0.6-1.8,0.3-3.8,1.8-4.7c0.2-0.1,0.3-0.3,0.2-0.5c-0.6-2.5,1.6-5.1,4.2-5c1.8,0.1,3.5,1.6,3.8,3.4
		c0,0.2,0.1,0.5,0.1,0.7c0,0.4-0.3,0.6-0.6,0.6c-0.4,0-0.6-0.3-0.6-0.6c0-0.5-0.1-0.9-0.3-1.4c-0.5-1-1.6-1.6-2.8-1.4
		c-2.3,0.3-2.9,2.6-2.2,4c0.2,0.4,0.1,0.8-0.4,1c-0.9,0.3-1.6,0.9-1.8,1.9c-0.4,1.6,0.5,3.5,2.7,3.5c0.4,0,0.7,0.3,0.7,0.6
		c0,0.4-0.3,0.6-0.7,0.6c-1.1,0-2.1-0.5-2.9-1.3C19.7,30.7,19.7,30.6,19.6,30.5z"/>
	<path class="st0" d="M32.7,41.1c0-0.7,0-1.5,0-2.2c0-0.2,0.1-0.3,0.3-0.3c1.2,0,2.5,0,3.7,0c0.1,0,0.3,0.1,0.3,0.2
		c0.3,0.3,0.5,0.7,0.7,1c0.1,0.1,0.2,0.2,0.3,0.2c1.3,0,2.6,0,3.9,0c0.2,0,0.2-0.1,0.3-0.2c0.4-0.8,1.2-1.2,2-1.1
		c1,0.2,1.8,1.2,1.6,2.1c-0.1,1-1.1,1.8-2.1,1.7c-0.7-0.1-1.2-0.5-1.5-1c-0.1-0.2-0.2-0.2-0.4-0.2c-1.5,0-3,0-4.5,0
		c-0.2,0-0.3-0.1-0.4-0.2c-0.2-0.3-0.5-0.6-0.7-0.9c-0.1-0.1-0.2-0.2-0.4-0.2c-0.6,0-1.2,0-1.8,0c-0.2,0-0.3,0.1-0.3,0.3
		c0,1,0,1.9,0,2.9c0,1.9-1.4,3.7-3.3,4c-1.3,0.2-2.5-0.3-3.4-1.2c-0.6-0.7-1-1.5-1-2.5c0-0.5,0.2-0.7,0.6-0.7c0.4,0,0.6,0.3,0.7,0.7
		c0,1.2,0.7,2.1,1.8,2.4c1.1,0.4,2.3,0,3-0.9c0.4-0.5,0.5-1,0.5-1.6C32.7,42.5,32.7,41.8,32.7,41.1z M44,41.2c0.5,0,0.7-0.2,0.7-0.7
		c0-0.5-0.2-0.7-0.7-0.7c-0.4,0-0.6,0.2-0.6,0.7C43.3,41,43.5,41.2,44,41.2z"/>
	<path class="st0" d="M32.6,21.6c0-0.9,0-1.8,0-2.7c-0.1-1-0.8-1.6-1.8-1.7c-0.9-0.1-1.7,0.4-2,1.3c0,0.1,0,0.2-0.1,0.3
		c-0.1,0.3-0.4,0.5-0.8,0.4c-0.3-0.1-0.5-0.4-0.5-0.8c0.3-1.2,1.2-2,2.4-2.4c2-0.6,4.1,1.1,4.1,3.1c0,1.2,0,2.4,0,3.6
		c0,0.3,0.1,0.3,0.3,0.3c0.5,0,1,0,1.4,0c0.1,0,0.3-0.1,0.4-0.2c0.3-0.3,0.7-0.6,1-1c0.1-0.1,0.2-0.2,0.4-0.2c1.5,0,3,0,4.4,0
		c0.2,0,0.3-0.1,0.4-0.2c0.5-0.8,1.4-1.2,2.2-1c0.9,0.3,1.5,1.2,1.4,2c-0.1,0.9-0.9,1.7-1.7,1.8c-0.8,0.1-1.4-0.3-1.9-1
		c-0.1-0.2-0.3-0.3-0.5-0.3c-1.2,0-2.5,0-3.7,0c-0.2,0-0.4,0.1-0.6,0.3c-0.3,0.3-0.6,0.6-0.9,0.9c-0.1,0.1-0.3,0.2-0.4,0.2
		c-1.1,0-2.2,0-3.2,0c-0.2,0-0.3-0.1-0.3-0.3C32.7,23.2,32.7,22.4,32.6,21.6C32.7,21.6,32.6,21.6,32.6,21.6z M43.3,22.4
		c0,0.5,0.2,0.7,0.6,0.7c0.5,0,0.7-0.2,0.7-0.6c0-0.5-0.2-0.7-0.7-0.7C43.5,21.7,43.3,21.9,43.3,22.4z"/>
	<path class="st0" d="M35.4,33.4c0.7,0,1.4,0,2,0c0.2,0,0.4,0.1,0.5,0.2c0.3,0.3,0.6,0.6,0.9,0.9c0.1,0.1,0.3,0.2,0.4,0.2
		c0.9,0,1.7,0,2.6,0c0.2,0,0.3-0.1,0.4-0.2c0.3-0.5,0.7-0.9,1.3-1c0.8-0.2,1.4,0.1,1.9,0.7c0.6,0.8,0.5,1.8-0.2,2.5
		c-0.7,0.7-1.7,0.7-2.5,0c-0.2-0.2-0.3-0.4-0.5-0.6c-0.1-0.1-0.2-0.2-0.3-0.2c-1,0-2.1,0-3.1,0c-0.2,0-0.3,0-0.4-0.2
		c-0.3-0.3-0.6-0.6-0.9-1c-0.1-0.1-0.3-0.2-0.5-0.2c-1.2,0-2.5,0-3.7,0c-0.5,0-0.8-0.5-0.6-0.9c0.1-0.3,0.3-0.4,0.6-0.4
		C34,33.4,34.7,33.4,35.4,33.4z M44.6,35.4c0-0.4-0.2-0.7-0.7-0.7c-0.4,0-0.7,0.2-0.7,0.7c0,0.5,0.2,0.7,0.7,0.7
		C44.4,36,44.6,35.8,44.6,35.4z"/>
	<path class="st0" d="M35.3,28.3c0.5,0,1.1,0,1.6,0c0.2,0,0.4-0.1,0.5-0.2c0.3-0.3,0.6-0.6,0.9-0.9c0.2-0.2,0.3-0.2,0.6-0.2
		c1,0,2,0,3,0c0.2,0,0.3-0.1,0.4-0.2c0.3-0.5,0.7-0.8,1.2-1c0.7-0.2,1.5,0.1,1.9,0.7c0.6,0.8,0.5,1.8-0.2,2.5
		c-0.7,0.7-1.7,0.7-2.5,0.1c-0.2-0.2-0.4-0.4-0.5-0.6c-0.1-0.1-0.1-0.2-0.3-0.2c-0.9,0-1.8,0-2.7,0c-0.1,0-0.3,0.1-0.4,0.2
		c-0.3,0.3-0.7,0.7-1,1c-0.1,0.1-0.2,0.1-0.3,0.1c-1.3,0-2.6,0-3.9,0c-0.4,0-0.7-0.3-0.7-0.6c0-0.4,0.3-0.6,0.7-0.6
		C34.2,28.3,34.8,28.3,35.3,28.3z M43.3,27.6c0,0.5,0.2,0.7,0.6,0.7c0.4,0,0.7-0.2,0.7-0.6c0-0.5-0.2-0.7-0.7-0.7
		C43.5,26.9,43.3,27.1,43.3,27.6z"/>
	<path class="st0" d="M32.9,25.7c1.2,0,2.3,0,3.5,0c0.1,0,0.3-0.1,0.4-0.2c0.3-0.3,0.6-0.6,0.9-0.9c0.3-0.3,0.7-0.3,0.9,0
		c0.3,0.3,0.3,0.6,0,0.9c-0.4,0.5-0.9,0.9-1.4,1.4c-0.1,0.1-0.2,0.1-0.4,0.1c-2.2,0-4.4,0-6.5,0c-0.3,0-0.4,0.1-0.4,0.3
		c-0.4,1.6-1.9,2.8-3.5,2.9c-0.1,0-0.2,0-0.3,0c-0.4,0-0.6-0.3-0.6-0.6c0-0.3,0.2-0.6,0.6-0.6c0.2,0,0.5,0,0.7-0.1
		c1.2-0.3,1.9-1.2,2-2.4c0-0.2,0-0.3,0.1-0.5c0.1-0.2,0.3-0.3,0.6-0.3C30.6,25.7,31.7,25.7,32.9,25.7C32.9,25.7,32.9,25.7,32.9,25.7
		z"/>
	<path class="st0" d="M36.9,32.1c-1.2,0-2.3,0-3.5,0c-0.4,0-0.7-0.2-0.7-0.6c0-0.3,0.2-0.6,0.5-0.6c0.1,0,0.2,0,0.3,0
		c2.2,0,4.5,0,6.7,0c0.5,0,0.8,0.2,0.8,0.6c0,0.4-0.3,0.6-0.8,0.6C39.1,32.1,38,32.1,36.9,32.1z"/>
	<path class="st0" d="M35.1,36c0.6,0,1.2,0,1.8,0c0.1,0,0.3,0.1,0.4,0.2c0.4,0.4,0.9,0.8,1.3,1.3c0.3,0.3,0.3,0.7,0,1
		c-0.3,0.3-0.6,0.2-0.9-0.1c-0.3-0.3-0.6-0.6-0.9-0.9c-0.1-0.1-0.3-0.2-0.4-0.2c-1,0-2,0-3,0c-0.5,0-0.8-0.4-0.7-0.9
		c0.1-0.3,0.3-0.4,0.6-0.4C33.9,36,34.5,36,35.1,36C35.1,36,35.1,36,35.1,36z"/>
	<path class="st0" d="M23.5,28.9c0-0.4,0.3-0.6,0.6-0.6c0.4,0,0.7,0.3,0.7,0.6c0,0.3-0.3,0.6-0.6,0.6C23.8,29.5,23.6,29.2,23.5,28.9
		z"/>
	<path class="st0" d="M25.3,44.1c0,0.4-0.3,0.6-0.6,0.6c-0.4,0-0.6-0.3-0.6-0.6c0-0.3,0.3-0.6,0.6-0.6C25,43.5,25.3,43.8,25.3,44.1z
		"/>
</g>
</svg>
