<?xml version="1.0" encoding="utf-8"?>
<!-- Generator: Adobe Illustrator 23.0.3, SVG Export Plug-In . SVG Version: 6.00 Build 0)  -->
<svg version="1.1" id="Layer_1" xmlns="http://www.w3.org/2000/svg" xmlns:xlink="http://www.w3.org/1999/xlink" x="0px" y="0px"
	 viewBox="0 0 63 63" style="enable-background:new 0 0 63 63;" xml:space="preserve">
<style type="text/css">
	.st0{fill:#255DBE;}
</style>
<g>
	<path class="st0" d="M41.1,47.1c-8.4,0-16.8,0-25.2,0c0-0.1,0-0.2,0-0.3c0-7.1,0-14.1,0-21.2c0-0.2,0.1-0.4,0.2-0.5
		c2-2,3.9-3.9,5.9-5.9c0.2-0.2,0.3-0.3,0.6-0.3c5.4,0,10.8,0,16.1,0c0.3,0,0.4-0.1,0.5-0.3c0.1-0.2,0.3-0.5,0.4-0.7
		c1-1.6,2.8-2.4,4.6-1.8c1.8,0.5,3,2.2,2.8,4.1c-0.1,1.4-0.8,2.5-2,3.2c-1.2,0.7-2.5,1.4-3.8,2.1c-0.2,0.1-0.3,0.2-0.3,0.5
		c0,6.9,0,13.8,0,20.7C41.1,46.8,41.1,46.9,41.1,47.1z M34.6,37.2c-2.9-2.9-5.8-5.8-8.8-8.8c0.5-0.5,1-0.9,1.6-1.5
		c-0.4-0.3-0.7-0.7-1-1c0.9-1,1.9-1.9,3.2-2c1.6-0.2,2.8,0.5,3.9,1.6c0.2-0.5,0.4-0.9,0.7-1.3c0.1-0.1,0.2-0.3,0.3-0.3
		c0.7-0.3,1.4-0.6,2.1-0.8c0.1-0.1,0.3-0.2,0.3-0.3c0.5-0.9,1-1.8,1.5-2.7c0-0.1,0.1-0.1,0.1-0.2c-5.2,0-10.3,0-15.5,0c0,2,0,4,0,6
		c-2,0-4,0-6,0c0,6.7,0,13.4,0,20.1c7.7,0,15.4,0,23.1,0c0-6.6,0-13.2,0-19.7c-0.1,0.1-0.1,0.2-0.2,0.2c-0.3,0.7-0.5,1.4-0.8,2
		c-0.1,0.1-0.2,0.3-0.3,0.4c-0.4,0.2-0.9,0.4-1.3,0.7c2.3,1.9,2.3,5.1-0.4,7.1c-0.3-0.3-0.6-0.7-0.9-1C35.5,36.3,35,36.7,34.6,37.2z
		 M36.6,28.9c0.3-0.2,0.6-0.3,0.9-0.5c0.4-0.2,0.7-0.4,0.8-0.9c0.1-0.3,0.3-0.7,0.4-1c0.2-0.7,0.6-1.1,1.2-1.4
		c1.6-0.9,3.2-1.8,4.8-2.7c1.9-1.2,1.7-4.1-0.3-5.2c-1.5-0.7-3.1-0.2-4,1.3c-1,1.7-1.9,3.4-2.9,5.1c-0.1,0.1-0.2,0.3-0.4,0.3
		c-0.7,0.3-1.4,0.5-2,0.8c-0.1,0-0.2,0.1-0.3,0.2c-0.2,0.4-0.4,0.8-0.6,1.2c0,0.1,0,0.2,0,0.3C35,27.3,35.8,28.1,36.6,28.9z
		 M37.1,35.3c0.1-0.1,0.2-0.2,0.3-0.4c1-1.3,0.9-3-0.3-4.1c-1.6-1.6-3.3-3.3-4.9-4.9c-0.8-0.8-1.8-1.1-2.9-0.9
		c-0.6,0.1-1.2,0.4-1.6,0.9C30.8,29.1,33.9,32.2,37.1,35.3z M27.3,28.4c2.4,2.4,4.9,4.9,7.3,7.3c0.2-0.2,0.5-0.5,0.7-0.7
		c-2.4-2.4-4.9-4.9-7.3-7.3C27.7,28,27.5,28.2,27.3,28.4z M21.9,20.8c-1.4,1.4-2.8,2.8-4.1,4.1c1.3,0,2.7,0,4.1,0
		C21.9,23.5,21.9,22.1,21.9,20.8z"/>
	<path class="st0" d="M27.4,43.8c-0.5-0.1-0.9,0.1-1.2,0.5c-0.9,1-2.4,1-3.3,0c-0.3-0.4-0.7-0.5-1.2-0.5c-1.3,0.1-2.5-1-2.4-2.4
		c0-0.5-0.1-0.9-0.5-1.2c-1.1-0.9-1.1-2.5,0-3.4c0.4-0.3,0.5-0.7,0.5-1.2c-0.1-1.3,1-2.5,2.4-2.4c0.5,0,0.9-0.1,1.2-0.5
		c0.9-1.1,2.5-1.1,3.4,0c0.3,0.4,0.7,0.5,1.2,0.5c1.3-0.1,2.5,1,2.4,2.4c0,0.5,0.1,0.9,0.5,1.2c1.1,0.9,1.1,2.5,0,3.4
		c-0.4,0.3-0.5,0.7-0.5,1.2C29.8,42.8,28.7,43.9,27.4,43.8z M27.2,42.8c1,0.1,1.6-0.5,1.5-1.4c0-0.7,0.2-1.3,0.8-1.8
		c0.7-0.6,0.7-1.4,0-2c-0.6-0.5-0.8-1.2-0.8-1.9c0.1-0.8-0.6-1.4-1.3-1.3c-0.8,0.1-1.4-0.2-1.9-0.8c-0.6-0.6-1.4-0.6-2,0
		c-0.5,0.6-1.2,0.8-1.9,0.8c-0.8-0.1-1.4,0.6-1.3,1.3c0.1,0.8-0.2,1.4-0.7,1.9c-0.7,0.7-0.7,1.4,0,2c0.6,0.5,0.8,1.1,0.7,1.9
		c-0.1,0.8,0.6,1.4,1.4,1.4c0.8-0.1,1.4,0.2,1.9,0.7c0.6,0.7,1.4,0.7,2,0C26,43,26.6,42.8,27.2,42.8z"/>
	<path class="st0" d="M43.8,19.2c-0.9-0.5-1.5-0.2-1.7,0.8c-0.3,0-0.6,0-1,0c0-0.8,0.4-1.5,1.2-1.8c0.7-0.3,1.6-0.2,2.1,0.4
		C44.2,18.7,44,18.9,43.8,19.2z"/>
	<path class="st0" d="M24.5,34.5c2.2,0,4,1.8,4,4.1c0,2.2-1.8,4-4,4c-2.2,0-4-1.8-4-4C20.4,36.3,22.3,34.5,24.5,34.5z M24.5,41.6
		c1.7,0,3-1.4,3-3c0-1.7-1.4-3-3-3c-1.7,0-3,1.4-3,3C21.4,40.2,22.8,41.6,24.5,41.6z"/>
</g>
</svg>
