<?xml version="1.0" encoding="utf-8"?>
<!-- Generator: Adobe Illustrator 23.0.3, SVG Export Plug-In . SVG Version: 6.00 Build 0)  -->
<svg version="1.1" id="Layer_1" xmlns="http://www.w3.org/2000/svg" xmlns:xlink="http://www.w3.org/1999/xlink" x="0px" y="0px"
	 viewBox="0 0 63 63" style="enable-background:new 0 0 63 63;" xml:space="preserve">
<style type="text/css">
	.st0{fill:#255DBE;}
</style>
<g>
	<path class="st0" d="M23.7,17.9c0-0.4,0-0.7,0-1c0-0.6,0.4-1,1-1c0.6,0,1,0.3,1,1c0,0.3,0,0.6,0,1c3.9,0,7.8,0,11.7,0
		c0-0.3,0-0.6,0-0.9c0-0.7,0.5-1.1,1.2-1c0.5,0.1,0.7,0.4,0.7,0.9c0,0.3,0,0.6,0,1c0.9,0,1.8,0,2.7,0c1.3,0,2.4,0.4,3.3,1.3
		c1.1,1,1.7,2.2,1.7,3.7c0,6.3,0,12.7,0,19c0,3-2.2,5.2-5.2,5.2c-6.9,0-13.9,0-20.8,0c-2.6,0-4.6-1.7-5.1-4.2
		c-0.1-0.3-0.1-0.6-0.1-1c0-6.3,0-12.6,0-18.8c0-3,2.2-5.2,5.2-5.2C22,17.9,22.8,17.9,23.7,17.9z M18,29.6c0,0.1,0,0.2,0,0.3
		c0,4,0,8.1,0,12.1c0,1.8,1.4,3.2,3.2,3.2c6.9,0,13.9,0,20.8,0c1.8,0,3.3-1.5,3.3-3.3c0-4,0-7.9,0-11.9c0-0.1,0-0.3,0-0.4
		C36.2,29.6,27.1,29.6,18,29.6z M23.7,19.8c-1,0-2-0.1-3,0c-1.7,0.1-2.9,1.5-2.9,3.2c0,1.4,0,2.8,0,4.3c0,0.1,0,0.2,0,0.3
		c9.1,0,18.2,0,27.3,0c0,0,0-0.1,0-0.1c0-1.6,0-3.2,0-4.7c0-1.5-1.2-2.8-2.7-2.9c-1-0.1-2.1,0-3.1,0c0,0,0,0-0.1,0.1
		c0,0.3,0,0.7,0,1c0,0.2,0.1,0.3,0.2,0.4c1.4,0.6,2.1,2.2,1.5,3.6c-0.5,1.4-2,2.2-3.5,1.8c-1.2-0.3-2.1-1.3-2.2-2.5
		c-0.1-1.3,0.5-2.4,1.7-3c0.1,0,0.2-0.1,0.3-0.2c0-0.4,0-0.8,0-1.2c-3.9,0-7.8,0-11.7,0c0,0.4,0,0.7,0,1.1c0,0.2,0.1,0.3,0.3,0.4
		c1.5,0.7,2.2,2.5,1.4,4c-0.8,1.4-2.7,2-4.1,1.1c-1-0.6-1.5-1.6-1.4-2.7c0.1-1.1,0.6-1.9,1.7-2.4c0.1-0.1,0.3-0.2,0.3-0.2
		C23.7,20.7,23.7,20.3,23.7,19.8z M38.4,24.9c0.6,0,1-0.4,1-1c0-0.6-0.4-1-1-1c-0.6,0-1,0.4-1,1C37.4,24.5,37.8,24.9,38.4,24.9z
		 M24.7,24.9c0.6,0,1-0.4,1-0.9c0-0.6-0.4-1-0.9-1c-0.6,0-1,0.4-1,1C23.7,24.5,24.1,24.9,24.7,24.9z"/>
	<path class="st0" d="M40,32.5c0.2,0,0.4,0,0.5,0c0.5,0,0.9,0.5,0.9,1c0,0.5-0.3,0.9-0.9,1c-0.4,0-0.7,0-1.1,0c-0.6,0-0.9-0.4-0.9-1
		c0-0.6,0.4-0.9,1-0.9C39.7,32.5,39.9,32.5,40,32.5C40,32.5,40,32.5,40,32.5z"/>
	<path class="st0" d="M28.8,32.5c0.2,0,0.4,0,0.7,0.1c0.5,0.1,0.8,0.5,0.7,1c0,0.5-0.3,0.8-0.8,0.9c-0.4,0-0.9,0-1.3,0
		c-0.5,0-0.8-0.4-0.8-0.9c0-0.5,0.3-0.9,0.8-1C28.3,32.5,28.5,32.5,28.8,32.5z"/>
	<path class="st0" d="M23,38.4c-0.2,0-0.3,0-0.5,0c-0.6,0-0.9-0.4-0.9-1c0-0.6,0.4-0.9,1-1c0.3,0,0.6,0,1,0c0.6,0,1,0.4,1,1
		c0,0.6-0.4,0.9-1,1C23.4,38.4,23.2,38.4,23,38.4z"/>
	<path class="st0" d="M40,36.4c0.2,0,0.3,0,0.5,0c0.6,0,1,0.4,1,1c0,0.6-0.3,1-0.9,1c-0.4,0-0.8,0-1.2,0c-0.5,0-0.9-0.4-0.9-1
		c0-0.5,0.4-0.9,0.9-1C39.7,36.4,39.9,36.4,40,36.4C40,36.4,40,36.4,40,36.4z"/>
	<path class="st0" d="M28.7,38.4c-0.2,0-0.4,0-0.6,0c-0.6-0.1-0.9-0.4-0.9-1c0-0.6,0.4-0.9,0.9-1c0.4,0,0.7,0,1.1,0
		c0.5,0,0.9,0.4,1,1c0,0.6-0.3,0.9-0.9,1C29.1,38.4,28.9,38.4,28.7,38.4C28.7,38.4,28.7,38.4,28.7,38.4z"/>
	<path class="st0" d="M34.4,36.4c0.2,0,0.4,0,0.5,0c0.5,0,0.9,0.5,0.9,1c0,0.5-0.3,0.9-0.9,1c-0.4,0-0.8,0-1.2,0
		c-0.6,0-0.9-0.4-0.9-1c0-0.5,0.4-0.9,0.9-0.9C34,36.4,34.2,36.4,34.4,36.4C34.4,36.4,34.4,36.4,34.4,36.4z"/>
	<path class="st0" d="M23,32.5c0.2,0,0.5,0,0.7,0.1c0.5,0.1,0.8,0.5,0.8,1c0,0.5-0.3,0.9-0.9,0.9c-0.4,0-0.8,0-1.2,0
		c-0.5,0-0.8-0.4-0.8-1c0-0.5,0.3-0.9,0.9-1C22.7,32.5,22.9,32.5,23,32.5C23,32.5,23,32.5,23,32.5z"/>
	<path class="st0" d="M34.4,34.5c-0.2,0-0.3,0-0.5,0c-0.6,0-0.9-0.4-0.9-1c0-0.6,0.4-0.9,1-0.9c0.3,0,0.7,0,1,0c0.6,0,1,0.5,1,1
		c0,0.6-0.4,0.9-0.9,1C34.7,34.5,34.5,34.5,34.4,34.5z"/>
	<path class="st0" d="M34.4,42.3c-0.1,0-0.3,0-0.4,0c-0.6,0-1-0.4-1-1c0-0.6,0.4-1,1-1c0.3,0,0.6,0,1,0c0.6,0,1,0.4,1,1
		c0,0.6-0.4,0.9-0.9,1C34.7,42.3,34.5,42.3,34.4,42.3C34.4,42.3,34.4,42.3,34.4,42.3z"/>
	<path class="st0" d="M23,42.3c-0.2,0-0.3,0-0.5,0c-0.6,0-1-0.4-0.9-1c0-0.6,0.4-0.9,1-1c0.3,0,0.6,0,1,0c0.6,0,1,0.4,1,1
		c0,0.6-0.4,1-1,1C23.4,42.3,23.2,42.3,23,42.3z"/>
	<path class="st0" d="M28.7,40.3c0.2,0,0.4,0,0.5,0c0.5,0,0.9,0.5,0.9,1c0,0.5-0.4,0.9-0.9,0.9c-0.4,0-0.8,0-1.1,0
		c-0.5,0-0.9-0.4-0.9-1c0-0.5,0.4-0.9,0.9-1C28.3,40.3,28.5,40.3,28.7,40.3z"/>
	<path class="st0" d="M40.1,40.3c0.2,0,0.3,0,0.5,0c0.5,0,0.9,0.4,1,1c0,0.6-0.3,0.9-0.9,1c-0.4,0-0.8,0-1.1,0
		c-0.5,0-0.9-0.4-0.9-0.9c0-0.5,0.3-0.9,0.9-1C39.7,40.3,39.9,40.3,40.1,40.3C40.1,40.3,40.1,40.3,40.1,40.3z"/>
</g>
</svg>
