<?xml version="1.0" encoding="utf-8"?>
<!-- Generator: Adobe Illustrator 23.0.3, SVG Export Plug-In . SVG Version: 6.00 Build 0)  -->
<svg version="1.1" id="Layer_1" xmlns="http://www.w3.org/2000/svg" xmlns:xlink="http://www.w3.org/1999/xlink" x="0px" y="0px"
	 viewBox="0 0 63 63" style="enable-background:new 0 0 63 63;" xml:space="preserve">
<style type="text/css">
	.st0{fill:#255DBE;}
</style>
<g>
	<path class="st0" d="M14.5,29.9c0.2-0.1,0.3-0.3,0.5-0.4c0.7-0.4,1.4-0.8,2-1.2c0.3-0.2,0.5-0.2,0.8,0c0.7,0.4,1.4,0.8,2.1,1.2
		c0.3,0.2,0.4,0.4,0.4,0.7c0,0.8,0,1.7,0,2.5c0,0.3-0.1,0.5-0.4,0.7c-0.7,0.4-1.4,0.8-2.1,1.3c-0.3,0.2-0.5,0.2-0.8,0
		c-0.7-0.4-1.5-0.8-2.2-1.3c-0.1-0.1-0.2-0.2-0.4-0.3C14.5,32,14.5,31,14.5,29.9z M15.6,31.5c-0.3,0.9,0.2,1.3,0.9,1.7
		c0.7,0.4,1.2,0.5,1.8,0c0.3-0.2,0.7-0.3,0.9-0.6c0.2-0.3,0.1-0.7,0.1-1.1c0-0.3,0.1-0.8,0-1c-0.2-0.3-0.6-0.4-0.9-0.6
		c-0.7-0.6-1.2-0.5-1.9,0C15.8,30.3,15.3,30.6,15.6,31.5z"/>
	<path class="st0" d="M48.5,33.1c-0.2,0.1-0.3,0.3-0.5,0.4c-0.7,0.4-1.4,0.8-2,1.2c-0.3,0.2-0.5,0.2-0.8,0c-0.7-0.4-1.4-0.8-2.1-1.2
		c-0.3-0.2-0.4-0.4-0.4-0.7c0-0.8,0-1.7,0-2.5c0-0.3,0.1-0.5,0.4-0.7c0.7-0.4,1.4-0.8,2.1-1.2c0.3-0.2,0.5-0.2,0.8,0
		c0.7,0.4,1.4,0.8,2,1.2c0.2,0.1,0.3,0.3,0.5,0.4C48.5,31,48.5,32,48.5,33.1z M47.4,31.5c0.3-0.9-0.1-1.3-0.9-1.6c0,0,0,0,0,0
		c-0.6-0.5-1.2-0.5-1.8,0c-0.3,0.2-0.7,0.3-0.9,0.6c-0.2,0.3,0,0.7-0.1,1.1c-0.2,0.8,0.2,1.2,0.9,1.6c0.7,0.4,1.2,0.4,1.9,0
		C47.2,32.7,47.7,32.4,47.4,31.5z"/>
	<path class="st0" d="M29.9,48.5c-0.1-0.2-0.3-0.3-0.4-0.5c-0.4-0.7-0.8-1.4-1.2-2c-0.2-0.3-0.2-0.5,0-0.8c0.4-0.7,0.8-1.4,1.2-2.1
		c0.2-0.3,0.4-0.4,0.7-0.4c0.8,0,1.7,0,2.5,0c0.3,0,0.5,0.1,0.7,0.4c0.4,0.7,0.8,1.5,1.3,2.2c0.1,0.2,0.2,0.5,0,0.7
		c-0.4,0.7-0.9,1.5-1.3,2.2c-0.1,0.1-0.2,0.2-0.3,0.3C32,48.5,31,48.5,29.9,48.5z M31.5,47.4c0.9,0.3,1.3-0.1,1.6-0.9c0,0,0,0,0,0
		c0.5-0.6,0.5-1.2,0-1.8c-0.2-0.3-0.3-0.7-0.6-0.9c-0.3-0.2-0.7,0-1.1-0.1c-0.8-0.1-1.2,0.2-1.6,0.9c-0.4,0.7-0.4,1.2,0,1.9
		C30.3,47.2,30.6,47.7,31.5,47.4z"/>
	<path class="st0" d="M38.4,31.5c0,1.2,0,2.3,0,3.5c0,0.3-0.1,0.6-0.4,0.8c-2,1.2-4,2.3-6,3.5c-0.3,0.2-0.6,0.2-0.9,0
		c-2-1.2-4-2.4-6-3.5c-0.3-0.2-0.4-0.4-0.4-0.7c0-2.3,0-4.7,0-7c0-0.4,0.1-0.6,0.4-0.8c2-1.2,4-2.3,6-3.5c0.3-0.2,0.6-0.2,0.9,0
		c2,1.2,4,2.4,6,3.5c0.3,0.2,0.4,0.4,0.4,0.8C38.4,29.2,38.4,30.3,38.4,31.5z M25.7,31.5c0,1,0,2.1,0,3.1c0,0.2,0.1,0.4,0.3,0.5
		c1.8,1,3.5,2.1,5.3,3.1c0.2,0.1,0.3,0.1,0.5,0c1.8-1,3.6-2.1,5.4-3.1c0.2-0.1,0.2-0.2,0.2-0.4c0-2.1,0-4.2,0-6.3
		c0-0.2-0.1-0.3-0.3-0.4c-1.8-1-3.5-2.1-5.3-3.1c-0.2-0.1-0.4-0.1-0.6,0c-1.8,1-3.5,2.1-5.3,3.1c-0.2,0.1-0.2,0.2-0.2,0.4
		C25.7,29.4,25.7,30.5,25.7,31.5z"/>
	<path class="st0" d="M40.7,24.8c-0.1-0.1-0.2-0.1-0.4-0.2c-0.6-0.6-1.2-1.2-1.9-1.8c-0.2-0.2-0.2-0.4-0.2-0.7
		c0.2-0.8,0.4-1.7,0.7-2.5c0.1-0.2,0.2-0.4,0.5-0.5c0.8-0.2,1.7-0.4,2.5-0.7c0.2-0.1,0.5,0,0.6,0.2c0.6,0.6,1.2,1.3,1.9,1.9
		c0.2,0.2,0.2,0.4,0.2,0.6c-0.2,0.8-0.4,1.7-0.7,2.5c-0.1,0.2-0.2,0.4-0.4,0.5c-0.9,0.3-1.7,0.5-2.6,0.7
		C40.9,24.7,40.8,24.7,40.7,24.8z M42,19.5c-0.7,0.2-1.3,0.3-1.9,0.5c-0.1,0-0.1,0.1-0.2,0.2c-0.2,0.6-0.3,1.1-0.4,1.7
		c0,0.1,0,0.3,0.1,0.4c0.4,0.4,0.8,0.8,1.2,1.2c0.1,0.1,0.3,0.1,0.4,0.1c0.5-0.1,1.1-0.3,1.6-0.4c0.1,0,0.2-0.2,0.3-0.3
		c0.2-0.5,0.3-1.1,0.4-1.6c0-0.1,0-0.3-0.1-0.4c-0.4-0.4-0.8-0.8-1.2-1.2C42.1,19.6,42,19.5,42,19.5z"/>
	<path class="st0" d="M38.2,40.7c0.1-0.1,0.1-0.2,0.2-0.4c0.6-0.6,1.2-1.2,1.8-1.8c0.2-0.2,0.4-0.3,0.7-0.2c0.8,0.2,1.7,0.4,2.5,0.7
		c0.3,0.1,0.4,0.2,0.5,0.5c0.2,0.8,0.4,1.7,0.7,2.5c0.1,0.3,0,0.5-0.2,0.7c-0.6,0.6-1.2,1.2-1.9,1.9c-0.2,0.2-0.4,0.2-0.6,0.2
		c-0.8-0.2-1.7-0.4-2.5-0.7c-0.2-0.1-0.4-0.2-0.5-0.4c-0.3-0.9-0.5-1.7-0.7-2.6C38.3,40.9,38.3,40.8,38.2,40.7z M43.5,42
		c0-0.1,0-0.2-0.1-0.2c-0.1-0.5-0.3-1-0.4-1.6c0-0.2-0.1-0.3-0.3-0.3c-0.5-0.1-1.1-0.3-1.6-0.4c-0.1,0-0.3,0-0.4,0.1
		c-0.4,0.4-0.8,0.8-1.2,1.2c-0.1,0.1-0.1,0.3-0.1,0.4c0.1,0.5,0.3,1.1,0.4,1.6c0,0.1,0.2,0.2,0.3,0.3c0.5,0.2,1.1,0.3,1.7,0.4
		c0.1,0,0.3,0,0.3-0.1c0.4-0.4,0.8-0.8,1.2-1.2C43.5,42.1,43.5,42,43.5,42z"/>
	<path class="st0" d="M24.8,22.3c-0.1,0.1-0.1,0.2-0.2,0.4c-0.6,0.6-1.2,1.2-1.8,1.9c-0.2,0.2-0.4,0.2-0.7,0.2
		c-0.8-0.2-1.7-0.4-2.5-0.7c-0.2-0.1-0.4-0.2-0.5-0.5c-0.2-0.8-0.4-1.7-0.7-2.5c-0.1-0.2,0-0.5,0.2-0.6c0.6-0.6,1.2-1.2,1.9-1.9
		c0.2-0.2,0.4-0.2,0.7-0.2c0.8,0.2,1.7,0.4,2.5,0.7c0.2,0.1,0.4,0.2,0.5,0.4c0.3,0.9,0.5,1.7,0.7,2.6C24.7,22.1,24.7,22.2,24.8,22.3
		z M23.6,22.1c0-0.1,0-0.1,0-0.1c-0.2-0.6-0.3-1.2-0.5-1.8c0-0.1-0.1-0.2-0.2-0.2c-0.6-0.2-1.1-0.3-1.7-0.4c-0.1,0-0.3,0-0.3,0.1
		c-0.4,0.4-0.8,0.8-1.2,1.2c-0.1,0.1-0.1,0.2-0.1,0.3c0.1,0.6,0.3,1.1,0.4,1.7c0,0.1,0.2,0.2,0.3,0.3c0.5,0.2,1.1,0.3,1.6,0.4
		c0.1,0,0.3,0,0.4-0.1c0.4-0.4,0.8-0.8,1.2-1.2C23.5,22.2,23.6,22.1,23.6,22.1z"/>
	<path class="st0" d="M22.3,38.2c0.1,0.1,0.2,0.1,0.4,0.2c0.6,0.6,1.2,1.2,1.9,1.8c0.2,0.2,0.2,0.4,0.2,0.7
		c-0.2,0.8-0.4,1.7-0.7,2.5c-0.1,0.2-0.3,0.4-0.4,0.4c-0.9,0.3-1.7,0.5-2.6,0.7c-0.2,0-0.4,0-0.6-0.2c-0.7-0.6-1.3-1.3-1.9-1.9
		c-0.2-0.2-0.2-0.4-0.2-0.6c0.2-0.8,0.4-1.7,0.7-2.5c0.1-0.2,0.2-0.4,0.4-0.5c0.9-0.3,1.7-0.5,2.6-0.7
		C22.1,38.3,22.2,38.3,22.3,38.2z M22,39.4c-0.1,0-0.1,0-0.1,0c-0.6,0.2-1.1,0.3-1.7,0.5c-0.1,0-0.3,0.2-0.3,0.3
		c-0.2,0.5-0.3,1.1-0.4,1.6c0,0.1,0,0.3,0.1,0.4c0.4,0.4,0.8,0.8,1.2,1.2c0.1,0.1,0.3,0.1,0.4,0.1c0.5-0.1,1.1-0.3,1.6-0.4
		c0.1,0,0.2-0.2,0.3-0.3c0.2-0.5,0.3-1.1,0.4-1.6c0-0.1,0-0.3-0.1-0.4c-0.4-0.4-0.8-0.8-1.2-1.2C22.2,39.5,22.1,39.4,22,39.4z"/>
	<path class="st0" d="M31.5,20.3c-0.4,0-0.9,0-1.3,0c-0.3,0-0.5-0.1-0.6-0.3c-0.4-0.8-0.9-1.5-1.3-2.3c-0.1-0.2-0.1-0.4,0-0.7
		c0.4-0.7,0.9-1.5,1.3-2.2c0.1-0.2,0.3-0.3,0.6-0.3c0.9,0,1.7,0,2.6,0c0.3,0,0.5,0.1,0.6,0.4c0.4,0.7,0.8,1.5,1.3,2.2
		c0.2,0.3,0.2,0.5,0,0.7c-0.4,0.7-0.9,1.5-1.3,2.2c-0.1,0.3-0.4,0.4-0.7,0.4C32.3,20.3,31.9,20.3,31.5,20.3z M31.6,15.6
		c-0.4,0-0.9-0.1-1.1,0c-0.3,0.1-0.3,0.6-0.6,0.9c-0.5,0.6-0.5,1.2,0,1.9c0.2,0.3,0.3,0.7,0.6,0.9c0.3,0.2,0.7,0.1,1.1,0.1
		c0.4,0,0.8,0.1,1.1-0.1c0.3-0.1,0.3-0.6,0.6-0.9c0.5-0.6,0.5-1.2,0-1.9C32.7,15.8,32.4,15.3,31.6,15.6z"/>
	<path class="st0" d="M27.1,17.3c0.1,0.4,0.2,0.7,0.3,1c-0.7,0.3-1.5,0.6-2.2,0.9c-0.2-0.3-0.3-0.6-0.5-0.9
		C25.4,18,26.2,17.6,27.1,17.3z"/>
	<path class="st0" d="M37.9,19.2c-0.7-0.3-1.5-0.6-2.2-0.9c0.1-0.3,0.2-0.6,0.3-1c0.8,0.3,1.6,0.7,2.5,1
		C38.2,18.6,38,18.9,37.9,19.2z"/>
	<path class="st0" d="M18.3,24.6c0.3,0.2,0.6,0.4,0.9,0.5c-0.3,0.7-0.6,1.5-0.9,2.2c-0.3-0.1-0.6-0.2-1-0.3
		C17.6,26.2,17.9,25.4,18.3,24.6z"/>
	<path class="st0" d="M44.7,24.6c0.3,0.8,0.7,1.6,1,2.5c-0.4,0.1-0.7,0.2-1,0.3c-0.3-0.7-0.6-1.5-0.9-2.2
		C44.1,25,44.4,24.8,44.7,24.6z"/>
	<path class="st0" d="M24.6,44.7c0.2-0.4,0.4-0.6,0.5-0.9c0.7,0.3,1.5,0.6,2.2,0.9c-0.1,0.3-0.2,0.7-0.3,1
		C26.2,45.4,25.4,45.1,24.6,44.7z"/>
	<path class="st0" d="M18.3,35.7c0.3,0.7,0.6,1.5,0.9,2.2c-0.3,0.2-0.6,0.3-0.9,0.5c-0.3-0.8-0.7-1.7-1-2.5
		C17.6,35.9,18,35.8,18.3,35.7z"/>
	<path class="st0" d="M43.8,37.9c0.3-0.7,0.6-1.5,0.9-2.2c0.3,0.1,0.6,0.2,1,0.3c-0.3,0.8-0.7,1.6-1,2.5
		C44.4,38.2,44.1,38.1,43.8,37.9z"/>
	<path class="st0" d="M35.9,45.7c-0.1-0.4-0.2-0.7-0.3-1c0.7-0.3,1.5-0.6,2.2-0.9c0.2,0.3,0.3,0.6,0.5,0.9
		C37.6,45.1,36.8,45.4,35.9,45.7z"/>
	<path class="st0" d="M34.4,31.5c0,0.5,0,0.9,0,1.4c0,0.3-0.1,0.5-0.3,0.6c-0.8,0.5-1.5,0.9-2.3,1.4c-0.2,0.1-0.4,0.1-0.7,0
		c-0.8-0.5-1.5-0.9-2.3-1.4c-0.2-0.1-0.3-0.3-0.3-0.6c0-0.9,0-1.8,0-2.8c0-0.3,0.1-0.5,0.3-0.6c0.7-0.5,1.5-0.9,2.2-1.4
		c0.2-0.2,0.5-0.1,0.7,0c0.7,0.5,1.5,0.9,2.2,1.4c0.2,0.1,0.3,0.3,0.3,0.6C34.4,30.6,34.4,31,34.4,31.5z M33.3,31.5
		c0-0.4,0.1-0.8,0-1.1c-0.2-0.3-0.6-0.4-0.9-0.6c-0.6-0.5-1.1-0.5-1.7,0c-0.3,0.2-0.8,0.3-0.9,0.6c-0.2,0.3-0.1,0.8-0.1,1.1
		c0,0.4-0.1,0.8,0.1,1.1c0.2,0.3,0.6,0.4,0.9,0.6c0.6,0.5,1.1,0.5,1.7,0c0.3-0.2,0.8-0.3,0.9-0.6C33.5,32.3,33.3,31.9,33.3,31.5z"/>
</g>
</svg>
