<?xml version="1.0" encoding="utf-8"?>
<!-- Generator: Adobe Illustrator 23.0.3, SVG Export Plug-In . SVG Version: 6.00 Build 0)  -->
<svg version="1.1" id="Layer_1" xmlns="http://www.w3.org/2000/svg" xmlns:xlink="http://www.w3.org/1999/xlink" x="0px" y="0px"
	 viewBox="0 0 63 63" style="enable-background:new 0 0 63 63;" xml:space="preserve">
<style type="text/css">
	.st0{fill:#255DBE;}
</style>
<g>
	<path class="st0" d="M27.7,47.1c-1.2,0-2.4,0-3.5,0c-0.1-0.2-0.3-0.4-0.4-0.7c-0.9-2.2-1.7-4.4-2.6-6.6c-0.1-0.4-0.3-0.7-0.6-0.9
		c-1.4-1.4-2.8-2.7-4.3-4.1c-0.3-0.2-0.4-0.5-0.4-0.9c0-0.4,0-0.8,0-1.2c0-1.3,0-2.6,0-4c0.2-0.4,0.6-0.5,1.1-0.6
		c0.6,0,1.2-0.1,1.8-0.2c0.4-0.1,0.9-0.1,1.2-0.5c0.5-0.5,0.9-1,1.4-1.4c0.7-0.5,0.7-1.1,0.5-1.8c-0.3-0.9-0.6-1.9-0.9-2.8
		c-0.2-0.5,0-1,0.6-1.1c0.7-0.2,1.4-0.2,2.1-0.1c1.3,0.3,2.4,1,3.4,1.9c0.3,0.3,0.4,0.3,0.8,0.1c0-0.3-0.1-0.7-0.1-1
		c0.1-3.1,2.7-5.8,6.5-5.3c3,0.5,5,3.6,4.3,6.6c-0.1,0.2,0,0.3,0.2,0.4c2,0.9,3.7,2.2,5.1,3.9C43.9,27,44,27,44.2,27
		c0.7-0.1,1.3-0.7,1.4-1.3c0.1-1-0.5-1.8-1.5-1.8c-0.5,0-0.9-0.4-0.8-0.8c0-0.5,0.4-0.8,0.9-0.7c1,0.1,1.7,0.5,2.3,1.2
		c0.4,0.4,0.5,1,0.7,1.5c0,0.3,0,0.6,0,0.9c0,0,0,0.1-0.1,0.1c-0.2,1.2-0.9,2-2,2.4c-0.1,0-0.1,0.1-0.2,0.1c0.1,0.1,0.1,0.2,0.2,0.4
		c0.5,1.2,0.9,2.4,0.9,3.7c0.1,2.5-0.7,4.8-2.3,6.8c-0.1,0.1-0.2,0.3-0.3,0.5c-0.9,2.2-1.7,4.4-2.6,6.6c-0.1,0.2-0.3,0.5-0.4,0.7
		c-1.2,0-2.4,0-3.5,0c-0.2-0.2-0.4-0.4-0.4-0.8c0-0.2-0.1-0.5-0.1-0.7c-0.1-0.6-0.1-1.1-0.2-1.7c-2.6,0.6-5.1,0.6-7.7,0
		c0,0.1,0,0.1,0,0.2c-0.1,0.7-0.2,1.4-0.3,2C28.1,46.5,28,46.9,27.7,47.1z M37.9,45.6c0.4,0,0.8,0,1.2,0c0.2,0,0.3-0.1,0.4-0.3
		c0.6-1.7,1.3-3.4,1.9-5c0.3-0.9,0.8-1.7,1.3-2.5c1.7-2.5,2.1-5.2,0.9-8c-0.8-2-2.2-3.5-4-4.6c-0.6-0.4-1.2-0.7-1.8-1
		c-0.4,0.5-0.8,0.9-1.2,1.4c0.1,0,0.2,0.1,0.3,0.1c0.4,0.2,0.9,0.4,1.3,0.7c0.3,0.2,0.4,0.5,0.4,0.8c-0.1,0.3-0.3,0.6-0.7,0.6
		c-0.2,0-0.5-0.1-0.6-0.2c-1.8-1.1-3.7-1.5-5.7-1.3c-1.1,0.1-2.2,0.4-3.2,0.8c-0.2,0.1-0.5,0.1-0.7,0c-0.3-0.1-0.5-0.3-0.5-0.7
		c0-0.3,0.1-0.6,0.5-0.7c0.5-0.2,1.1-0.4,1.6-0.6c-0.2-0.3-0.4-0.5-0.6-0.8c-0.2-0.2-0.3-0.5-0.5-0.6c-0.2-0.1-0.5,0.1-0.7,0.2
		c-0.4,0.2-0.8,0.1-1.1-0.3c-0.4-0.4-0.9-0.8-1.4-1.2c-0.6-0.5-1.4-0.8-2.2-0.8c0.1,0.2,0.1,0.3,0.2,0.5c0.3,0.9,0.6,1.8,0.6,2.8
		c0,0.7-0.1,1.3-0.7,1.8c-0.5,0.5-1,0.9-1.4,1.5c-0.6,0.7-1.3,1-2.2,1.2c-0.6,0.1-1.1,0.2-1.7,0.3c0,0,0,0.1,0,0.1
		c0,1.2,0,2.5,0,3.7c0,0.1,0.1,0.3,0.2,0.4c1.3,1.2,2.5,2.5,3.8,3.7c0.6,0.5,1,1.1,1.2,1.8c0.7,2,1.5,4,2.3,6c0,0.1,0.2,0.2,0.2,0.3
		c0.4,0,0.9,0,1.3,0c0-0.1,0-0.2,0.1-0.3c0.1-0.8,0.2-1.6,0.3-2.4c0-0.3,0.2-0.6,0.5-0.7c0.2-0.1,0.4-0.1,0.6,0c1,0.2,2,0.4,3,0.5
		c1.8,0.2,3.6,0,5.4-0.5c0.6-0.2,1,0.1,1.1,0.7c0,0.2,0,0.3,0.1,0.5C37.8,44.2,37.8,44.9,37.9,45.6z M37.1,21.4c0-0.3,0-0.5-0.1-0.8
		c-0.4-1.8-1.9-3-3.8-3.1c-1.7-0.1-3.3,1.1-3.8,2.7c-0.5,1.7,0.1,3.6,1.6,4.5c0.2,0.1,0.4,0.1,0.6,0.2c0.9,0.1,1.9,0.1,2.8,0.2
		c0.1,0,0.3,0,0.4-0.1C36.3,24.2,37,23,37.1,21.4z"/>
	<path class="st0" d="M24.9,29c0,0.4-0.3,0.8-0.8,0.8c-0.4,0-0.8-0.3-0.8-0.8c0-0.4,0.3-0.8,0.8-0.8C24.6,28.2,24.9,28.5,24.9,29z"
		/>
</g>
</svg>
